<svg width="100" height="100" viewBox="0 0 100 100" fill="none" xmlns="http://www.w3.org/2000/svg">
<path d="M36.6055 45.5356C36.6055 45.5356 38.3912 61.6071 50.8912 61.6071C63.3912 61.6071 65.1769 45.5356 65.1769 45.5356" stroke="#C38648" stroke-width="2" stroke-linecap="round"/>
<path d="M11.6522 32.808L8 96.9998H92L88.3478 32.808M11.6522 32.808L17.1304 23.8925H19.8696M11.6522 32.808H21.6957M88.3478 32.808L82.8696 23.8925H78.3044M88.3478 32.808H75.5652M75.5652 32.808L80.1304 17.6516L63.1106 13.3429M75.5652 32.808H62.7826M52.7391 20.3263L55.4783 11.4107L63.1106 13.3429M21.6957 32.808L18.0435 11.4107L39.0435 8.84753M21.6957 32.808H33.5652M49.087 20.3263L47.2609 7.84454L39.0435 8.84753M62.7826 32.808L59.1304 18.5432L31.7391 25.6756L33.5652 32.808M62.7826 32.808H33.5652M39.0435 8.84753C39.0435 8.84753 43.3398 -0.500183 53.5652 2.49525C63.7906 5.49067 63.1106 13.3429 63.1106 13.3429" stroke="#C38648" stroke-width="2"/>
<path d="M17.8994 87.2041C18.316 87.2041 18.637 87.1289 18.8522 86.9821C19.0503 86.8455 19.1425 86.6577 19.1425 86.3896C19.1425 86.1215 19.0503 85.932 18.8522 85.7971C18.637 85.6502 18.3177 85.5751 17.8994 85.5751H16.2567V87.2041H17.8994ZM18.1214 90.001C18.5875 90.001 18.9376 89.9276 19.1613 89.7807C19.3662 89.6476 19.4618 89.4478 19.4618 89.1507C19.4618 88.7818 19.3235 88.2918 18.1214 88.2918H16.255V90.001H18.1214ZM15 91.087V84.4857H17.9796C18.7292 84.4857 19.3218 84.6411 19.7401 84.9484C20.1772 85.2677 20.3975 85.7168 20.3975 86.2803C20.3975 86.6406 20.3121 86.9582 20.1414 87.2246C20.0423 87.3799 19.9211 87.5148 19.7811 87.6275C20.0184 87.7437 20.2182 87.9042 20.3753 88.1039C20.6075 88.3993 20.7271 88.775 20.7271 89.219C20.7271 89.82 20.4965 90.2896 20.0406 90.614C19.6035 90.9265 18.97 91.0853 18.1572 91.0853H15V91.087ZM36.5764 88.0681C37.0955 88.0681 37.4899 87.9588 37.7511 87.7437C38.0056 87.5353 38.1302 87.2399 38.1302 86.8421C38.1302 86.4442 38.0073 86.1522 37.7529 85.9456C37.4899 85.7339 37.0955 85.6263 36.5764 85.6263H35.2445V88.0664H36.5764V88.0681ZM38.2463 91.087L36.9059 89.178C36.7847 89.1848 36.6839 89.1899 36.6054 89.1899H35.2479V91.087H33.9912V84.4857H36.6054C37.454 84.4857 38.1336 84.694 38.6288 85.1072C39.1342 85.5273 39.3887 86.1113 39.3887 86.8421C39.3887 87.3595 39.2572 87.8085 38.9994 88.1757C38.7825 88.4847 38.4854 88.7255 38.1166 88.8928L39.6653 91.0853H38.2463V91.087ZM45.0987 91.087L41.6272 86.7721V91.087H40.3705V84.4857H41.3711L44.8425 88.7989V84.4857H46.0993V91.087H45.0987ZM23.0954 91.1587C22.6941 91.1587 22.3168 91.0733 21.9736 90.9043C21.6252 90.7335 21.3418 90.4911 21.1283 90.1803L21.0498 90.0642L21.8113 89.1711L21.9462 89.3658C22.257 89.8115 22.6344 90.0266 23.0971 90.0266C23.3942 90.0266 23.6094 89.943 23.7545 89.7705C23.9065 89.5912 23.9833 89.3129 23.9833 88.944V85.6263H21.7294V84.4857H25.2315V88.8997C25.2315 89.6339 25.0488 90.1991 24.6868 90.5799C24.3231 90.9641 23.7887 91.1587 23.0971 91.1587M29.707 85.5734C29.2835 85.5734 28.8959 85.6707 28.5527 85.862C28.2129 86.0532 27.9414 86.3196 27.7484 86.6542C27.5555 86.9889 27.4564 87.3714 27.4564 87.788C27.4564 88.2047 27.5555 88.5872 27.7484 88.9218C27.8304 89.0636 27.926 89.1916 28.0421 89.3112L30.5983 85.7441C30.3234 85.6314 30.0246 85.5751 29.707 85.5751M28.8139 89.832C29.0905 89.943 29.3911 90.001 29.707 90.001C30.1304 90.001 30.5146 89.9037 30.8493 89.7141C31.184 89.5229 31.4521 89.2565 31.645 88.9218C31.838 88.5872 31.937 88.2047 31.937 87.788C31.937 87.3714 31.8397 86.9906 31.645 86.6542C31.5648 86.5159 31.4726 86.3913 31.3633 86.2735L28.8122 89.832H28.8139ZM26.6351 91.2748L27.3267 90.3084C27.0603 90.0778 26.8349 89.8098 26.6573 89.5109C26.3534 88.997 26.1997 88.4181 26.1997 87.788C26.1997 87.158 26.3534 86.5774 26.6573 86.0651C26.9613 85.5512 27.3847 85.1431 27.9158 84.8528C28.4451 84.5625 29.0479 84.4157 29.7053 84.4157C30.2807 84.4157 30.8186 84.5318 31.3018 84.7606L31.6314 84.3013H32.7754L32.0804 85.2694C32.3417 85.4965 32.562 85.7629 32.7378 86.06C33.0384 86.5706 33.1903 87.1511 33.1903 87.788C33.1903 88.425 33.0384 89.0055 32.7378 89.5161C32.4373 90.0266 32.0156 90.433 31.4828 90.7233C30.9535 91.0136 30.3541 91.1604 29.7018 91.1604C29.123 91.1604 28.5851 91.046 28.1019 90.8189L27.774 91.2765H26.6283L26.6351 91.2748Z" fill="#C38648"/>
<path d="M48.8945 91.1469V84.5456H50.1513V90.0063H53.5271V91.1469H48.8945ZM58.5779 88.5088L57.5124 86.0892L56.4469 88.5088H58.5762H58.5779ZM59.7374 91.1469L59.0509 89.5879H55.9757L55.2892 91.1469H53.9693L56.9592 84.5456H58.0759L61.0744 91.1469H59.7356H59.7374ZM64.1052 88.1263C64.6243 88.1263 65.0187 88.017 65.2817 87.8019C65.5361 87.5935 65.6608 87.2981 65.6608 86.9003C65.6608 86.5024 65.5378 86.2104 65.2834 86.0038C65.0205 85.7921 64.6243 85.6828 64.1069 85.6828H62.7751V88.1229H64.1069L64.1052 88.1263ZM65.7752 91.1469L64.4348 89.2379C64.3135 89.2447 64.2128 89.2498 64.1342 89.2498H62.7751V91.1469H61.5183V84.5456H64.1325C64.9812 84.5456 65.6608 84.7556 66.156 85.1671C66.6614 85.5872 66.9175 86.1712 66.9175 86.902C66.9175 87.4194 66.786 87.8684 66.5282 88.2356C66.3113 88.5446 66.0142 88.7854 65.6454 88.9544L67.1941 91.1469H65.7752ZM73.4113 91.1469V84.5456H78.177V85.6862H74.6663V87.2367H77.7928V88.3602H74.6663V90.008H78.3016V91.1486H73.4113V91.1469ZM83.9997 91.1469L80.5283 86.8337V91.1469H79.2715V84.5456H80.2721L83.7435 88.8588V84.5456H85.0003V91.1469H83.9997ZM70.1089 91.2169C69.6223 91.2169 69.1459 91.1401 68.6934 90.9898C68.234 90.8361 67.8652 90.6329 67.5988 90.3853L67.4998 90.2948L67.9916 89.2567L68.1743 89.4206C68.3928 89.617 68.6797 89.7809 69.0263 89.9055C69.3747 90.0319 69.7401 90.0951 70.1089 90.0951C70.5853 90.0951 70.9405 90.0165 71.1642 89.8646C71.3708 89.7228 71.4681 89.5487 71.4681 89.3164C71.4681 89.1508 71.4186 89.0279 71.3144 88.9271C71.1949 88.8127 71.0429 88.7222 70.8636 88.6607C70.6656 88.5924 70.3787 88.5122 70.0133 88.4251C69.5386 88.3107 69.1476 88.1946 68.8539 88.0785C68.5397 87.9555 68.2665 87.7626 68.0428 87.5065C67.8089 87.2384 67.691 86.8798 67.691 86.4375C67.691 86.0704 67.7901 85.734 67.983 85.4369C68.176 85.1415 68.4714 84.9042 68.8573 84.7283C69.2364 84.5575 69.7076 84.4722 70.2592 84.4722C70.6417 84.4722 71.0224 84.5217 71.393 84.6207C71.7686 84.7215 72.0965 84.8683 72.368 85.0579L72.4875 85.1415L72.0538 86.1917L71.8694 86.0738C71.6235 85.9167 71.3571 85.7972 71.0788 85.717C70.7987 85.6367 70.5221 85.5957 70.2557 85.5957C69.793 85.5957 69.4464 85.6777 69.2278 85.8365C69.0212 85.9867 68.9239 86.166 68.9239 86.4017C68.9239 86.5673 68.9734 86.6903 69.0793 86.7893C69.2022 86.9054 69.3593 86.9959 69.5454 87.0625C69.7486 87.1342 70.0304 87.211 70.3855 87.293C70.8636 87.4074 71.2529 87.5252 71.5432 87.6396C71.854 87.7626 72.1255 87.9538 72.3475 88.2048C72.5814 88.4695 72.7009 88.8247 72.7009 89.2618C72.7009 89.6238 72.6002 89.9585 72.4038 90.2573C72.2075 90.5561 71.9069 90.7952 71.5142 90.9659C71.13 91.1332 70.657 91.2169 70.1055 91.2169" fill="#C38648"/>
</svg>
