<svg width="56" height="56" viewBox="0 0 56 56" fill="none" xmlns="http://www.w3.org/2000/svg">
<path d="M13 18.3571C13 10.4662 19.6767 4 28 4C36.3233 4 43 10.4662 43 18.3571C43 20.2703 42.2536 22.9062 41.001 25.8646C39.7602 28.7951 38.0676 31.9392 36.2749 34.8324C34.4816 37.7268 32.6043 40.344 31.0039 42.2256C30.2014 43.1692 29.488 43.9045 28.9051 44.3948C28.6131 44.6405 28.3755 44.8061 28.1937 44.9057C28.0931 44.9608 28.0302 44.9842 28 44.994C27.9698 44.9842 27.9069 44.9608 27.8063 44.9057C27.6245 44.8061 27.3869 44.6405 27.0949 44.3948C26.512 43.9045 25.7986 43.1692 24.9961 42.2256C23.3957 40.344 21.5184 37.7268 19.7251 34.8324C17.9324 31.9392 16.2398 28.7951 14.999 25.8646C13.7464 22.9062 13 20.2703 13 18.3571Z" stroke="#C38648" stroke-width="2"/>
<circle cx="28" cy="18" r="4" stroke="#C38648" stroke-width="2"/>
<path d="M16 37.6994C11.1422 39.2501 8 41.7191 8 44.5C8 49.1944 16.9543 53 28 53C39.0457 53 48 49.1944 48 44.5C48 41.7191 44.8578 39.2501 40 37.6994" stroke="#C38648" stroke-width="2" stroke-linecap="round"/>
</svg>
