<svg width="57" height="56" viewBox="0 0 57 56" fill="none" xmlns="http://www.w3.org/2000/svg">
<g clip-path="url(#clip0_2254_3575)">
<path d="M28.0397 27.2387L2.01363 40.7337C1.79776 40.8456 1.79776 41.1544 2.01363 41.2663L28.0397 54.7613C28.3283 54.911 28.6717 54.911 28.9603 54.7613L54.9864 41.2663C55.2022 41.1544 55.2022 40.8456 54.9864 40.7337L28.9603 27.2387C28.6717 27.089 28.3283 27.089 28.0397 27.2387Z" stroke="#C38648" stroke-width="2"/>
<path d="M28.0397 14.2387L2.01363 27.7337C1.79776 27.8456 1.79776 28.1544 2.01363 28.2663L28.0397 41.7613C28.3283 41.911 28.6717 41.911 28.9603 41.7613L54.9864 28.2663C55.2022 28.1544 55.2022 27.8456 54.9864 27.7337L28.9603 14.2387C28.6717 14.089 28.3283 14.089 28.0397 14.2387Z" fill="white" stroke="#C38648" stroke-width="2"/>
<path d="M8 31.5L36 17.5" stroke="#C38648" stroke-width="2"/>
<path d="M15 35.5L43 21.5" stroke="#C38648" stroke-width="2"/>
<path d="M22 38.5L50 24.5" stroke="#C38648" stroke-width="2"/>
<path d="M28.0397 1.23868L2.01363 14.7337C1.79776 14.8456 1.79776 15.1544 2.01363 15.2663L28.0397 28.7613C28.3283 28.911 28.6717 28.911 28.9603 28.7613L54.9864 15.2663C55.2022 15.1544 55.2022 14.8456 54.9864 14.7337L28.9603 1.23868C28.6717 1.08902 28.3283 1.08902 28.0397 1.23868Z" fill="white" stroke="#C38648" stroke-width="2"/>
</g>
<defs>
<clipPath id="clip0_2254_3575">
<rect width="56" height="56" fill="white" transform="translate(0.5)"/>
</clipPath>
</defs>
</svg>
