<svg width="113" height="16" viewBox="0 0 113 16" fill="none" xmlns="http://www.w3.org/2000/svg">
<path d="M19.8785 0H17.2089V13.5377H19.8785V0Z" fill="#101010"/>
<path d="M14.1422 0.757528H11.4726V14.295H14.1422V0.757528Z" fill="#101010"/>
<path d="M8.40592 1.60323H5.73629V15.1432H8.40592V1.60323Z" fill="#101010"/>
<path d="M2.66964 2.45833H0L1.01725e-05 16H2.66965L2.66964 2.45833Z" fill="#101010"/>
<path d="M91.0549 7.21263L86.7564 2.43341H84.2435V13.499H86.8672V6.43893L90.7916 10.6218H91.2765L95.1334 6.43893V13.499H97.7571V2.43341H95.2442L91.0549 7.21263Z" fill="#101010"/>
<path d="M110.257 2.43341L103.754 9.62561V2.43341H101.13V13.499H103.534L110.037 6.30675V13.499H112.661V2.43341H110.257Z" fill="#101010"/>
<path d="M70.1114 6.48245C70.1114 8.24423 71.0748 9.63206 72.5537 10.2139L69.7806 13.499H72.992L75.5146 10.5105H78.2443V13.499H80.868V2.43341H74.1883C71.6978 2.43341 70.1114 4.13716 70.1114 6.48245ZM78.2459 4.87057V8.14268H74.6748C73.4834 8.14268 72.8443 7.47859 72.8443 6.50501C72.8443 5.53144 73.5058 4.86735 74.6748 4.86735L78.2459 4.87057Z" fill="#101010"/>
<path d="M57.919 4.64652C57.7585 8.45216 56.9556 10.9087 55.3836 10.9087H54.9902V13.565L55.4093 13.5876C58.5613 13.7633 60.3035 10.9973 60.5893 4.956H64.7353V13.499H67.3542V2.43341H58.0074L57.919 4.64652Z" fill="#101010"/>
<path d="M48.0424 2.27881C44.4938 2.27881 41.9408 4.73531 41.9408 7.96551C41.9408 11.3069 44.7186 13.6764 48.0424 13.6764C51.5044 13.6764 54.1939 11.1748 54.1939 7.96551C54.1939 4.75626 51.5044 2.27881 48.0424 2.27881ZM48.0424 11.02C46.0369 11.02 44.6705 9.7144 44.6705 7.96551C44.6705 6.1731 46.0385 4.90295 48.0424 4.90295C50.0464 4.90295 51.4594 6.23113 51.4594 7.96551C51.4594 9.69989 50.0271 11.02 48.0424 11.02Z" fill="#101010"/>
<path d="M39.1581 2.45428H29.898L29.8097 4.66739C29.678 7.85569 28.8463 10.8876 27.2743 10.9312L26.5469 10.9537V16L29.1931 15.9947V13.5005H38.3858V15.9947H41.0545V10.9312H39.1581V2.45428ZM36.5344 10.9312H30.9353C31.8826 9.49335 32.39 7.41242 32.4784 4.97849H36.5344V10.9312Z" fill="#101010"/>
</svg>
