<svg width="27" height="16" viewBox="0 0 27 16" fill="none" xmlns="http://www.w3.org/2000/svg">
<path d="M17.4776 14.2907H10.4258V1.71167H17.4776V14.2907Z" fill="#FF5F00"/>
<path d="M10.8757 8.00004C10.8757 5.44829 12.0794 3.17525 13.9539 1.71047C12.5831 0.639333 10.8532 0 8.97302 0C4.52211 0 0.914062 3.5817 0.914062 8.00004C0.914062 12.4183 4.52211 16 8.97302 16C10.8532 16 12.5831 15.3607 13.9539 14.2895C12.0794 12.8248 10.8757 10.5517 10.8757 8.00004Z" fill="#EB001B"/>
<path d="M26.9856 8.00004C26.9856 12.4183 23.3776 16 18.9267 16C17.0465 16 15.3166 15.3607 13.9453 14.2895C15.8203 12.8248 17.0239 10.5517 17.0239 8.00004C17.0239 5.44829 15.8203 3.17525 13.9453 1.71047C15.3166 0.639333 17.0465 0 18.9267 0C23.3776 0 26.9856 3.5817 26.9856 8.00004Z" fill="#F79E1B"/>
</svg>
