<svg width="79" height="32" viewBox="0 0 79 32" fill="none" xmlns="http://www.w3.org/2000/svg">
<path d="M0 6.96582L3.87516 13.8924V18.1175L0.00453329 25.0304L0 6.96582Z" fill="#5B57A2"/>
<path d="M14.8789 11.3712L18.5101 9.14558L25.9415 9.13867L14.8789 15.9157V11.3712Z" fill="#D90751"/>
<path d="M14.8598 6.92448L14.8803 16.095L10.9961 13.7084V0L14.8598 6.92448Z" fill="#FAB718"/>
<path d="M25.9428 9.13885L18.5112 9.14577L14.8598 6.92448L10.9961 0L25.9428 9.13885Z" fill="#ED6F26"/>
<path d="M14.8803 25.0684V20.6191L10.9961 18.2778L10.9982 31.9998L14.8803 25.0684Z" fill="#63B22F"/>
<path d="M18.5011 22.8635L3.87489 13.8924L0 6.96582L25.9258 22.8544L18.5011 22.8635Z" fill="#1487C9"/>
<path d="M10.9961 32.0003L14.8777 25.0689L18.4998 22.8635L25.9245 22.8545L10.9961 32.0003Z" fill="#017F36"/>
<path d="M0 25.0299L11.022 18.278L7.31646 16.0044L3.87062 18.1169L0 25.0299Z" fill="#984995"/>
<path fill-rule="evenodd" clip-rule="evenodd" d="M49.1779 17.2654C52.5962 17.2654 55.1347 15.0797 55.1347 11.7663C55.1347 8.5591 53.2619 6.47699 50.1318 6.47699C48.6872 6.47699 47.4952 7.00703 46.5974 7.92205C46.8118 6.03116 48.3453 4.65024 50.0337 4.65024C50.4234 4.65024 53.357 4.64394 53.357 4.64394L55.0159 1.3335C55.0159 1.3335 51.3329 1.4211 49.6208 1.4211C45.7088 1.49201 43.0664 5.19998 43.0664 9.70346C43.0664 14.9505 45.6435 17.2654 49.1779 17.2654ZM49.1987 9.40916C50.4679 9.40916 51.3477 10.2788 51.3477 11.766C51.3477 13.1042 50.566 14.207 49.1987 14.21C47.8907 14.21 47.0108 13.188 47.0108 11.7886C47.0108 10.3012 47.8907 9.40916 49.1987 9.40916ZM68.3344 5.71487V16.8667H64.5157V9.04388H60.8389V16.8667H57.0203V5.71414L68.3344 5.71487ZM37.7094 13.7779C39.0565 13.6755 39.9581 13.1331 39.9581 13.1331L41.3713 15.8596C40.4663 16.4658 38.9813 16.86 37.9048 16.9016C34.0538 16.9754 31.375 14.5318 31.375 10.9715C31.375 7.45624 34.225 4.9543 37.9048 4.9543C39.3629 4.9543 40.6165 5.36218 41.5576 6.10615C41.3595 6.47216 41.0903 6.9792 40.8343 7.46436L40.4244 8.24317L40.0516 8.95439C40.0516 8.95439 38.6955 8.21343 37.6705 8.21343C35.9988 8.21343 34.7814 9.22652 34.7814 10.9938C34.7814 12.806 36.1609 13.8258 37.7094 13.7779ZM34.7825 24.3718C34.6659 24.527 34.5125 24.6443 34.3284 24.7234C34.1394 24.8035 33.9374 24.8443 33.7335 24.8433C33.5307 24.8462 33.329 24.811 33.1382 24.7393C32.9668 24.6743 32.8103 24.573 32.6782 24.4419C32.5479 24.3106 32.4455 24.152 32.3779 23.9765C32.3046 23.7845 32.2681 23.5793 32.2704 23.3725C32.2704 23.1672 32.3042 22.9772 32.3745 22.7972C32.4419 22.6167 32.54 22.4619 32.6628 22.332C32.7186 22.2719 32.7793 22.2181 32.8444 22.1698L32.8843 22.1416C32.9261 22.113 32.9697 22.0862 33.0149 22.0618L33.0635 22.0365L33.0986 22.0191C33.2673 21.943 33.4513 21.9018 33.6537 21.9018C33.8715 21.9018 34.0739 21.9303 34.2579 21.9872C34.3742 22.0228 34.4792 22.0737 34.5731 22.1397C34.6283 22.1787 34.6796 22.2229 34.7271 22.2723L34.5034 22.6675C34.395 22.5651 34.2675 22.4876 34.1289 22.4393C33.9972 22.3951 33.8594 22.3729 33.7211 22.3732C33.5986 22.3732 33.4819 22.3984 33.3686 22.446C33.2569 22.4928 33.1548 22.5614 33.068 22.6487C32.9789 22.7377 32.909 22.8458 32.8622 22.965C32.8103 23.0878 32.7857 23.224 32.7857 23.3758C32.7857 23.5307 32.813 23.6699 32.8652 23.7901C32.9178 23.9134 32.988 24.018 33.077 24.1064C33.1659 24.1951 33.2702 24.2612 33.3897 24.3057C33.4386 24.3251 33.4883 24.3402 33.5392 24.3513C33.6134 24.3677 33.6903 24.3755 33.7703 24.3755C33.9358 24.3755 34.0864 24.3402 34.2151 24.2738C34.2825 24.2397 34.3465 24.1988 34.4059 24.1516C34.4585 24.1098 34.5077 24.063 34.5525 24.0117L34.7825 24.3718ZM35.4144 24.7768V21.9619H35.899V24.0592L37.4756 21.9619H37.9604V24.7772H37.4756V22.6802L35.899 24.7772L35.4144 24.7768ZM41.1718 24.3718C41.0526 24.5284 40.8961 24.6495 40.7179 24.7234C40.6097 24.769 40.4971 24.802 40.3823 24.8217C40.2966 24.8362 40.2098 24.8436 40.1227 24.8433C40.0414 24.8443 39.9603 24.8395 39.8799 24.8284C39.76 24.812 39.642 24.7824 39.5277 24.7393C39.4885 24.7245 39.4501 24.7078 39.4126 24.6892C39.3672 24.6665 39.323 24.6413 39.2803 24.6138C39.2041 24.5645 39.1327 24.5069 39.0675 24.4419C38.937 24.3106 38.8347 24.152 38.767 23.9765C38.6938 23.7845 38.6572 23.5793 38.6596 23.3725C38.6596 23.1672 38.6933 22.9772 38.7638 22.7972C38.8316 22.6167 38.9295 22.4619 39.0522 22.332C39.175 22.1991 39.3222 22.0982 39.4877 22.0191C39.6625 21.9389 39.8519 21.8989 40.0428 21.9018C40.1695 21.9018 40.2908 21.9114 40.4062 21.9307L40.474 21.943C40.4997 21.9482 40.5251 21.9541 40.5502 21.9604L40.5949 21.9719L40.6473 21.9872C40.8313 22.0439 40.9876 22.139 41.1166 22.2723L40.8926 22.6675C40.7845 22.5651 40.6571 22.4876 40.5186 22.4393C40.4853 22.4282 40.4516 22.4181 40.4176 22.4096C40.3943 22.404 40.3708 22.3992 40.3472 22.3948C40.3249 22.3907 40.3025 22.3869 40.2801 22.384L40.2306 22.3784C40.1907 22.3747 40.1507 22.3729 40.1106 22.3732C39.867 22.374 39.6329 22.4727 39.457 22.6487C39.4343 22.672 39.4128 22.6962 39.3925 22.7218C39.3684 22.7518 39.3462 22.7838 39.3259 22.8168C39.297 22.864 39.2721 22.9133 39.2515 22.965C39.2401 22.9917 39.2301 23.0191 39.2215 23.0473C39.2113 23.0796 39.2029 23.1126 39.1962 23.1464C39.1819 23.2188 39.175 23.2949 39.175 23.3758C39.175 23.449 39.181 23.5184 39.1929 23.5841C39.2 23.6231 39.2091 23.6602 39.2201 23.6962C39.2301 23.7289 39.2418 23.7601 39.2547 23.7901C39.2876 23.8681 39.3278 23.9386 39.3753 24.0021C39.4032 24.0392 39.4334 24.0737 39.4661 24.1064C39.5551 24.1951 39.6598 24.2612 39.7793 24.3057C39.8988 24.3499 40.0246 24.3755 40.1594 24.3755C40.216 24.3755 40.2705 24.3714 40.323 24.3633C40.4241 24.3481 40.5175 24.3176 40.6042 24.2738C40.7316 24.2096 40.8463 24.1205 40.9416 24.0117L41.1718 24.3718ZM41.4232 21.9619H43.9078V22.4619H42.9078V24.7768H42.4232V22.4619H41.4232V21.9619ZM46.6469 24.4702C46.512 24.5964 46.3558 24.6884 46.1716 24.7486C45.9941 24.8083 45.809 24.8391 45.6226 24.8402C45.5479 24.8414 45.4734 24.8373 45.3993 24.8284C45.2695 24.8124 45.1417 24.7816 45.0184 24.736C44.8372 24.6665 44.6842 24.5682 44.5583 24.4387C44.4298 24.3072 44.3294 24.1487 44.2637 23.9738C44.1963 23.7935 44.1594 23.5911 44.1594 23.3695C44.1576 23.1731 44.1899 22.9783 44.2546 22.7942C44.3136 22.6208 44.4065 22.4626 44.5273 22.329C44.585 22.2671 44.648 22.2106 44.7155 22.1609C44.7936 22.1034 44.8776 22.0547 44.9662 22.0157C45.0673 21.9719 45.1768 21.9396 45.2952 21.9204C45.3812 21.9062 45.4717 21.8989 45.5673 21.8989C45.6236 21.8984 45.6796 21.9018 45.7349 21.9088C45.7851 21.9152 45.835 21.9244 45.8841 21.9363C45.9441 21.9511 46.0033 21.9705 46.0612 21.9938C46.2116 22.0521 46.3493 22.1413 46.4661 22.2563C46.496 22.2864 46.5241 22.3175 46.5506 22.3505C46.5726 22.3777 46.5934 22.4055 46.6129 22.4345C46.643 22.4786 46.6705 22.5254 46.6946 22.5733C46.7096 22.603 46.7233 22.6334 46.7359 22.6643C46.7637 22.7296 46.7858 22.7975 46.8021 22.8684C46.8255 22.969 46.8372 23.0759 46.8372 23.1895C46.8372 23.3191 46.8281 23.4297 46.8066 23.5276H44.7085C44.73 23.7938 44.8251 24.0021 44.9997 24.1509C45.1747 24.2998 45.3955 24.3721 45.6623 24.3721C45.7533 24.3721 45.8404 24.3648 45.9228 24.3499C46.0016 24.3358 46.0765 24.315 46.1472 24.2871C46.2912 24.23 46.4107 24.1606 46.4998 24.0782L46.6469 24.4702ZM45.5458 22.3702C45.2943 22.3702 45.0949 22.4397 44.9447 22.5818C44.7961 22.7218 44.7014 22.913 44.6779 23.1197H46.3342C46.3218 22.8859 46.2486 22.7025 46.1103 22.5696C46.0874 22.5473 46.063 22.5272 46.0374 22.5091C46.0131 22.4917 45.9877 22.4761 45.961 22.4619C45.9409 22.4512 45.9199 22.4415 45.8982 22.4326C45.7958 22.391 45.678 22.3702 45.5458 22.3702ZM47.4967 21.9619H47.9384L48.9875 23.357L49.9811 21.9619H50.4106V24.7772H49.9262V22.7244L48.9813 24.0307H48.9627L47.9815 22.724V24.7768H47.4967V21.9619ZM51.5175 22.0469C51.5863 22.0164 51.657 21.9913 51.7293 21.9716C51.8858 21.9274 52.0482 21.9021 52.2203 21.9021C52.3879 21.9021 52.534 21.9211 52.6584 21.959C52.7416 21.9842 52.815 22.018 52.8785 22.0599C52.9393 22.0996 52.9909 22.1472 53.0332 22.2025C53.1015 22.2897 53.1546 22.3932 53.1927 22.5128C53.2418 22.6668 53.266 22.8473 53.266 23.0536V24.7805H52.8123V24.4168C52.7325 24.5244 52.6221 24.619 52.4838 24.7015C52.346 24.7835 52.1649 24.8246 51.9379 24.8246C51.7735 24.8246 51.6302 24.7923 51.5079 24.7278C51.4812 24.7137 51.4555 24.6981 51.4308 24.681C51.4141 24.6692 51.3977 24.6565 51.3819 24.6436C51.3643 24.629 51.3472 24.6134 51.3306 24.5971C51.1774 24.4453 51.1005 24.23 51.1005 23.955C51.0991 23.8224 51.1263 23.6918 51.1804 23.5719C51.231 23.4627 51.3043 23.3665 51.395 23.2908C51.4841 23.2147 51.5944 23.1576 51.7231 23.1197C51.7485 23.1123 51.7743 23.1053 51.8003 23.099L51.8395 23.09L51.8834 23.0818C51.9632 23.0674 52.0456 23.0596 52.1314 23.0596C52.2488 23.0611 52.3658 23.0737 52.4809 23.0978C52.6 23.1193 52.713 23.1679 52.8123 23.2404C52.8123 23.1843 52.8111 23.1301 52.8087 23.0778L52.8038 23.0009C52.8006 22.9594 52.7963 22.9189 52.7908 22.8796C52.7755 22.7689 52.7478 22.6743 52.7048 22.5982C52.6845 22.5625 52.6604 22.5295 52.6318 22.5005C52.6185 22.4868 52.6043 22.4738 52.589 22.4619C52.5787 22.4542 52.5678 22.4463 52.5564 22.4393C52.5441 22.4315 52.5313 22.4244 52.5178 22.4178C52.435 22.3736 52.3275 22.351 52.1926 22.351C52.0238 22.351 51.8827 22.3702 51.7724 22.4115L51.7136 22.4341L51.664 22.4538L51.6058 22.4786C51.5508 22.5028 51.496 22.5288 51.4409 22.557L51.3123 22.1579C51.378 22.1156 51.4466 22.0785 51.5175 22.0469ZM52.107 24.3721C52.2848 24.3721 52.4291 24.3347 52.5396 24.2523C52.6392 24.1832 52.7299 24.1012 52.8094 24.0084V23.6509C52.7557 23.6108 52.6986 23.5775 52.6379 23.5504C52.6039 23.5351 52.5689 23.5221 52.5327 23.5113C52.5076 23.5039 52.482 23.4973 52.4558 23.4913C52.4259 23.4846 52.3953 23.4794 52.364 23.4754C52.3101 23.4683 52.254 23.4646 52.196 23.4646C52.1223 23.4646 52.052 23.4738 51.9811 23.4928C51.9461 23.5016 51.9119 23.514 51.8791 23.5296C51.8498 23.5432 51.8213 23.5596 51.7943 23.5786C51.7421 23.6164 51.6962 23.6639 51.6622 23.7241L51.6553 23.737C51.6501 23.747 51.6455 23.7571 51.6414 23.7675C51.6367 23.779 51.6329 23.7908 51.6295 23.8032C51.6262 23.8143 51.6236 23.8258 51.6212 23.8376C51.6157 23.8662 51.6131 23.8967 51.6131 23.9293C51.6131 24.0622 51.656 24.1699 51.7421 24.2519C51.7916 24.2975 51.8533 24.3306 51.9269 24.3503C51.9806 24.3648 52.0408 24.3721 52.107 24.3721ZM57.8214 20.7288C57.7354 20.8457 57.6436 20.9247 57.5455 20.9719C57.4471 21.0194 57.3399 21.0513 57.2233 21.0766C57.1357 21.0955 57.0443 21.1129 56.9484 21.1312L56.8522 21.1497C56.7068 21.1775 56.5655 21.2254 56.4319 21.2919C56.3811 21.3145 56.3326 21.342 56.2868 21.3736C56.254 21.3962 56.2227 21.4207 56.193 21.4475L56.1572 21.4812L56.1355 21.5038L56.1129 21.5287C56.0964 21.5492 56.0803 21.5699 56.065 21.5911C56.0344 21.633 56.0063 21.6764 55.9806 21.7218C55.9548 21.7674 55.9315 21.8149 55.9107 21.8643C55.8582 21.9872 55.8185 22.1174 55.7908 22.2533C55.7633 22.3896 55.748 22.522 55.7386 22.6516H55.7511C55.7939 22.5507 55.8552 22.4619 55.9288 22.3825C56.0042 22.3024 56.0898 22.2333 56.1834 22.1772C56.2039 22.165 56.2245 22.1531 56.2455 22.1416C56.2691 22.1289 56.2932 22.1171 56.3176 22.1059C56.3735 22.0803 56.4312 22.0588 56.4902 22.0414C56.6008 22.0098 56.7142 21.9938 56.8307 21.9938C56.9446 21.9924 57.058 22.0053 57.1684 22.0324C57.2328 22.0484 57.2961 22.0692 57.358 22.0948C57.5106 22.1579 57.6479 22.2556 57.7601 22.3799C57.8723 22.5069 57.9581 22.6564 58.0116 22.8194C58.07 22.9905 58.1006 23.1832 58.1006 23.3948C58.1006 23.5911 58.0668 23.7775 57.9963 23.9516C57.9674 24.0266 57.9325 24.0982 57.8922 24.1658C57.8394 24.2548 57.7776 24.3366 57.708 24.4104C57.582 24.544 57.4318 24.6502 57.2663 24.7234C57.0946 24.7995 56.9044 24.8406 56.6989 24.8406C56.4749 24.8406 56.2756 24.7995 56.0976 24.7174C55.9198 24.6353 55.7692 24.521 55.6435 24.3692C55.5177 24.2203 55.423 24.0373 55.3552 23.8187C55.2877 23.6004 55.2542 23.3573 55.2542 23.0882C55.2542 22.8796 55.2662 22.6616 55.291 22.4337C55.315 22.2102 55.3634 21.9909 55.435 21.7789C55.5056 21.5699 55.61 21.3802 55.742 21.2128C55.8739 21.0451 56.0485 20.9125 56.2665 20.8142L56.314 20.7926C56.3374 20.7826 56.3608 20.7729 56.3845 20.7641C56.4276 20.7477 56.471 20.7329 56.515 20.7195C56.5413 20.7117 56.5678 20.7042 56.5945 20.6976C56.628 20.6891 56.6618 20.6816 56.6958 20.6753L56.8637 20.6452L56.9535 20.6289L57.0454 20.6118C57.0993 20.6021 57.1527 20.5892 57.2052 20.5729C57.2465 20.5603 57.2873 20.5458 57.3275 20.5294C57.3497 20.5205 57.3714 20.509 57.3924 20.496L57.4198 20.4774C57.4693 20.4415 57.5152 20.3932 57.5576 20.3335L57.8214 20.7288ZM55.7726 23.1832C55.7698 23.3502 55.7925 23.5169 55.8399 23.6765C55.8804 23.8116 55.9438 23.9379 56.0269 24.0499C56.1063 24.1502 56.2058 24.2311 56.3185 24.2871C56.4319 24.344 56.5549 24.3725 56.6896 24.3725C56.7916 24.3725 56.8852 24.3581 56.9724 24.3287L57.0041 24.3176C57.0211 24.3113 57.038 24.3043 57.0548 24.2964C57.1609 24.2497 57.2568 24.1807 57.3369 24.0945C57.417 24.0081 57.4796 23.9056 57.5211 23.7935C57.5636 23.6799 57.5886 23.5563 57.5886 23.4204C57.5886 23.1453 57.5149 22.9174 57.3643 22.7344C57.3139 22.6736 57.2563 22.623 57.191 22.5826C57.1374 22.5491 57.0786 22.5229 57.0148 22.5032C56.9248 22.4757 56.8248 22.4619 56.7142 22.4619C56.4852 22.4601 56.2624 22.5392 56.0823 22.6865C56.0026 22.7533 55.9351 22.829 55.8829 22.9144C55.8648 22.9427 55.8484 22.972 55.834 23.0024C55.8224 23.0269 55.812 23.0518 55.8029 23.0771C55.7904 23.1116 55.7803 23.1472 55.7726 23.1832ZM61.3335 21.9623H61.8184V24.7776H61.3335V21.9623ZM59.2846 21.9623H58.7998H58.7969V24.7805H59.6772C59.7214 24.7805 59.7637 24.779 59.8047 24.7764C59.8305 24.7749 59.8556 24.7727 59.8801 24.7701C59.9022 24.7679 59.9239 24.7652 59.9451 24.762C60.0456 24.7471 60.1359 24.7234 60.2171 24.6922C60.2512 24.6788 60.2838 24.6647 60.3148 24.6495L60.3544 24.6287L60.3858 24.6113C60.4079 24.5978 60.4291 24.5838 60.4492 24.5689C60.4621 24.5596 60.4746 24.5499 60.4867 24.5404C60.5015 24.5281 60.5158 24.5155 60.5294 24.5025C60.5424 24.4902 60.5549 24.4772 60.5666 24.4642C60.6526 24.3692 60.7172 24.2649 60.7541 24.145C60.7775 24.0737 60.7937 24.0025 60.8028 23.9301C60.8092 23.88 60.8122 23.8291 60.8122 23.7775C60.8122 23.7504 60.8114 23.7237 60.8096 23.697C60.8081 23.6735 60.806 23.6505 60.8033 23.6275C60.7948 23.5547 60.7802 23.4839 60.7601 23.4137C60.7262 23.2971 60.6679 23.1928 60.5851 23.1042C60.5024 23.0154 60.392 22.9431 60.2539 22.8889C60.1156 22.8354 59.944 22.8068 59.7326 22.8068H59.2846V21.9623ZM59.6373 24.3091H59.2846V23.2779V23.2712H59.6436C59.6888 23.2712 59.7315 23.2727 59.7719 23.276C59.8338 23.2811 59.8899 23.2905 59.9403 23.3035C59.9782 23.3131 60.0127 23.3254 60.044 23.3394C60.0838 23.3577 60.1179 23.3792 60.1467 23.4044C60.1793 23.4341 60.2068 23.4679 60.2288 23.5065C60.2532 23.5488 60.2713 23.5967 60.2825 23.6498C60.292 23.694 60.2968 23.7419 60.2968 23.7935C60.2968 23.9613 60.248 24.0874 60.1496 24.1762C60.1067 24.2148 60.0499 24.2452 59.9793 24.2671C59.8881 24.295 59.7739 24.3091 59.6373 24.3091ZM65.0238 24.3718C64.9073 24.527 64.7539 24.6443 64.5698 24.7234C64.3808 24.8031 64.1788 24.844 63.9748 24.8433C63.7721 24.8462 63.5705 24.811 63.3797 24.7393C63.2083 24.6743 63.0516 24.573 62.9196 24.4419C62.8696 24.3915 62.8236 24.3369 62.7822 24.279L62.7485 24.2296C62.7364 24.211 62.7249 24.1922 62.7137 24.1728L62.6982 24.1457C62.688 24.1276 62.6784 24.109 62.6691 24.0901C62.6567 24.0652 62.6449 24.04 62.6339 24.014L62.6189 23.9765C62.546 23.7845 62.5095 23.5793 62.5119 23.3725C62.5119 23.1672 62.5453 22.9772 62.616 22.7972C62.6834 22.6167 62.7815 22.4619 62.9043 22.332C63.027 22.1991 63.1741 22.0982 63.34 22.0191C63.5148 21.9389 63.7042 21.8989 63.8951 21.9018C64.1126 21.9018 64.3153 21.9303 64.4994 21.9872C64.6836 22.0439 64.8399 22.139 64.9686 22.2723L64.7448 22.6675C64.6995 22.6245 64.6506 22.5859 64.599 22.5521C64.5736 22.5354 64.5474 22.5198 64.5206 22.5053C64.4996 22.4942 64.4782 22.4838 64.4563 22.4738L64.4154 22.4564L64.3703 22.4393C64.2386 22.3951 64.1009 22.3729 63.9626 22.3732C63.9132 22.3732 63.8649 22.3773 63.8172 22.3851C63.7465 22.397 63.6777 22.4178 63.6096 22.446C63.4981 22.4928 63.396 22.5618 63.3093 22.6487C63.2809 22.6776 63.2543 22.7084 63.23 22.7407L63.2087 22.77C63.1666 22.8306 63.1314 22.8959 63.1036 22.965C63.0516 23.0878 63.027 23.224 63.027 23.3758C63.027 23.5307 63.0545 23.6699 63.1067 23.7901C63.1588 23.9134 63.2295 24.018 63.3184 24.1064C63.4072 24.1951 63.5115 24.2612 63.6312 24.3057C63.7511 24.3499 63.8768 24.3755 64.0117 24.3755C64.1114 24.3755 64.2043 24.3629 64.2913 24.338C64.3132 24.3317 64.3347 24.3246 64.3559 24.3169C64.3905 24.3046 64.4239 24.2901 64.4564 24.2738C64.5839 24.2096 64.6985 24.1205 64.7939 24.0117L65.0238 24.3718ZM65.2754 21.9619H67.7601V22.4619H66.7598V24.7768H66.2753V22.4619H65.2754V21.9619ZM68.2874 21.9626H68.7722V22.2945C68.8641 22.1802 68.996 22.0893 69.1649 22.0132C69.3336 21.9371 69.5114 21.8992 69.7013 21.8992C69.7321 21.8984 69.7627 21.8992 69.7933 21.901C69.8551 21.9048 69.9163 21.9129 69.9767 21.9255C70.0619 21.9434 70.1454 21.9705 70.2259 22.0065C70.3773 22.0726 70.5128 22.1732 70.6217 22.3008C70.7329 22.4319 70.8184 22.5844 70.8733 22.7497C70.9017 22.8342 70.9234 22.923 70.9383 23.0161C70.9542 23.1149 70.9622 23.2181 70.9622 23.3258C70.9622 23.5373 70.9284 23.737 70.8609 23.923C70.7935 24.1098 70.6982 24.2679 70.5726 24.4044C70.4447 24.5404 70.2928 24.6488 70.1249 24.7237C69.9499 24.7995 69.7567 24.8402 69.542 24.8402C69.3977 24.8402 69.2567 24.8246 69.1218 24.7932C68.9869 24.7616 68.8703 24.7141 68.7722 24.6477V26.0296H68.2874V21.9626ZM69.5607 22.3702C69.398 22.3702 69.2478 22.4085 69.1098 22.4845C68.972 22.5603 68.8582 22.652 68.7726 22.7592V24.1543C68.8824 24.2311 69.0036 24.289 69.1313 24.3254C69.2478 24.3569 69.3708 24.3725 69.5024 24.3725C69.6381 24.3752 69.7729 24.3481 69.8982 24.2935C70.0105 24.2456 70.112 24.1732 70.1956 24.0815C70.2789 23.9887 70.3428 23.8789 70.383 23.7589C70.4258 23.6324 70.4504 23.4965 70.4504 23.3446C70.4504 23.3127 70.4496 23.2811 70.4476 23.2504L70.4435 23.2002L70.4396 23.1646L70.4342 23.1279L70.428 23.0926L70.4195 23.0514C70.4119 23.0176 70.4028 22.9846 70.3921 22.9523C70.3552 22.8324 70.2971 22.731 70.2205 22.6424C70.1435 22.554 70.0516 22.4876 69.9413 22.44C69.8276 22.3925 69.7017 22.3702 69.5607 22.3702ZM74.1951 21.9623H74.6799V24.7772H74.1951V21.9623ZM72.1433 21.9623H71.6585H71.6556V24.7801H72.5358C72.7505 24.7801 72.9284 24.7486 73.0757 24.6922C73.2229 24.635 73.3396 24.5593 73.4253 24.4642C73.5113 24.3692 73.5757 24.2649 73.6125 24.1446C73.6522 24.0247 73.6706 23.9041 73.6706 23.7775C73.6706 23.6509 73.6522 23.531 73.6185 23.4137C73.585 23.2971 73.5266 23.1925 73.4438 23.1042C73.3611 23.0154 73.2507 22.9427 73.1124 22.8889C72.9743 22.8354 72.8027 22.8068 72.5909 22.8068H72.1433V21.9623ZM72.4995 24.3091H72.1465V23.2779V23.2712H72.5055C72.7385 23.2712 72.9072 23.3157 73.0086 23.4044C73.1067 23.4932 73.1586 23.6223 73.1586 23.7935C73.1586 23.9613 73.1096 24.0874 73.0115 24.1758C72.9134 24.2649 72.7415 24.3091 72.4995 24.3091ZM77.0051 23.3191L78.0417 24.7772H77.4469L76.6462 23.6383L75.8333 24.7772H75.2689L76.2994 23.3439L75.3301 21.9619H75.9255L76.6646 23.0247L77.4159 21.9619H77.9805L77.0051 23.3191ZM34.4239 28.2561H32.9362V30.6033H32.4514V27.7884H34.9083V30.6033H34.4239V28.2561ZM37.6596 28.2877H36.7027L36.6718 28.7621C36.6506 29.0148 36.6246 29.2361 36.5922 29.4269C36.573 29.5394 36.5516 29.6415 36.5278 29.7332C36.4632 29.98 36.3834 30.1697 36.2916 30.3026C36.1998 30.4354 36.0921 30.5271 35.9693 30.5717C35.8426 30.6196 35.7086 30.643 35.5738 30.6412L35.5369 30.1537C35.5891 30.1567 35.6503 30.1444 35.7178 30.1129C35.7856 30.0814 35.8531 30.0116 35.9171 29.9076C35.9818 29.7996 36.0401 29.6478 36.0921 29.4518C36.1442 29.2525 36.1783 28.9933 36.1964 28.6671L36.2457 27.791H38.1445V30.6062H37.6596V28.2877ZM39.0336 27.981C39.1532 27.902 39.2944 27.8389 39.451 27.7948C39.6108 27.7487 39.7758 27.7253 39.9417 27.7253C40.3281 27.7253 40.6012 27.8259 40.7546 28.0256C40.9108 28.225 40.9879 28.5096 40.9879 28.8765V30.6033H40.5337V30.2395C40.4537 30.3471 40.3434 30.4422 40.2056 30.5242C40.0674 30.6066 39.8868 30.6478 39.6597 30.6478C39.4081 30.6478 39.2054 30.5717 39.0524 30.4199C38.9681 30.3371 38.9073 30.235 38.8692 30.1144C38.8378 30.0145 38.8222 29.9024 38.8222 29.7781C38.822 29.7581 38.8224 29.738 38.8234 29.7179C38.8258 29.6738 38.8313 29.6304 38.84 29.5877C38.8533 29.5212 38.874 29.4566 38.9018 29.395C38.9523 29.2859 39.0257 29.1897 39.1164 29.114C39.1649 29.0724 39.2194 29.0367 39.28 29.0067C39.3309 28.9815 39.3858 28.9603 39.4448 28.9429C39.5735 28.9046 39.7087 28.8827 39.8527 28.8827C39.9702 28.8842 40.0871 28.8968 40.2023 28.9206C40.2464 28.9287 40.2897 28.9407 40.3317 28.9558C40.4033 28.9818 40.4712 29.0179 40.5337 29.0627C40.5337 28.9332 40.5275 28.8133 40.5122 28.7023C40.504 28.6436 40.4924 28.5894 40.4769 28.5401C40.4689 28.5148 40.46 28.4907 40.4501 28.4681C40.4427 28.4518 40.4349 28.4358 40.4265 28.4209C40.3835 28.3449 40.3223 28.2817 40.2392 28.2405C40.1852 28.2119 40.1211 28.1922 40.0455 28.1823L40.0085 28.1782C39.9785 28.1755 39.947 28.1741 39.914 28.1741C39.7456 28.1741 39.6041 28.1934 39.4937 28.2342C39.4617 28.2461 39.4297 28.2587 39.3976 28.2717C39.3195 28.3036 39.2411 28.3393 39.1627 28.3797L39.0336 27.981ZM39.8316 30.1953C39.9428 30.1953 40.0408 30.1805 40.1256 30.1493C40.1765 30.1304 40.2226 30.1058 40.2639 30.0746C40.3635 30.006 40.4544 29.9239 40.5341 29.8312V29.4737C40.3653 29.3475 40.1595 29.2877 39.9205 29.2877C39.8926 29.2877 39.8646 29.2888 39.8369 29.2914C39.7927 29.2959 39.749 29.304 39.7059 29.3155C39.6351 29.3349 39.571 29.3631 39.5188 29.4013C39.4667 29.4391 39.4204 29.4867 39.387 29.5468C39.3529 29.6069 39.3376 29.6734 39.3376 29.7524C39.3376 29.885 39.3807 29.9926 39.4667 30.0746C39.5525 30.1541 39.6719 30.1953 39.8316 30.1953ZM41.4662 27.7884H43.9508V28.288H42.9505V30.6033H42.4661V28.2884H41.4662V27.7884ZM46.4336 30.4812C46.3652 30.5183 46.2924 30.5495 46.2146 30.5747C46.0306 30.6349 45.8466 30.6667 45.6654 30.6667C45.4596 30.6694 45.2551 30.6341 45.0613 30.5621C44.8803 30.4926 44.7267 30.3943 44.601 30.2648C44.4752 30.1352 44.3742 29.98 44.3064 29.8C44.239 29.6192 44.2021 29.4173 44.2021 29.1957C44.2006 28.9992 44.2328 28.8044 44.2974 28.6199C44.325 28.5394 44.3599 28.4622 44.4015 28.389C44.4492 28.3051 44.5058 28.2265 44.5704 28.1552C44.6948 28.0208 44.8442 27.9143 45.0093 27.8418C45.1839 27.7657 45.3832 27.725 45.6104 27.725C45.7793 27.7238 45.9467 27.7561 46.1043 27.8199C46.2547 27.8782 46.3923 27.9677 46.5088 28.0824C46.6244 28.1983 46.7161 28.337 46.779 28.4904C46.8465 28.6485 46.8803 28.8226 46.8803 29.0152C46.8803 29.1452 46.8708 29.2561 46.8496 29.3538H44.7516C44.7731 29.6196 44.8678 29.8286 45.0428 29.977C45.2177 30.1255 45.4386 30.1983 45.7055 30.1983C45.8834 30.1983 46.0459 30.1701 46.1898 30.1133C46.3342 30.0561 46.4539 29.9867 46.5428 29.904L46.69 30.2963C46.612 30.369 46.527 30.4307 46.4336 30.4812ZM45.5859 28.1931C45.3343 28.1931 45.135 28.2629 44.9848 28.405C44.8363 28.5446 44.7415 28.7357 44.7179 28.9429H46.3743C46.362 28.7086 46.2884 28.5252 46.1506 28.3924C46.0124 28.2628 45.8254 28.1931 45.5859 28.1931ZM47.73 27.7884H47.1165L48.1192 29.1452L47.0705 30.6033H47.6653L48.6653 29.1456L47.73 27.7884ZM49.2697 27.7884H48.7849V30.6033H49.2697V27.7884ZM49.9352 29.1452L51.0026 30.6033H50.4016L49.3892 29.1452L50.3307 27.788H50.9323L49.9352 29.1452ZM53.6927 30.2963C53.5578 30.4225 53.4014 30.5145 53.2173 30.5747C53.0398 30.6341 52.8547 30.6653 52.6683 30.6667C52.4626 30.6694 52.2579 30.6341 52.0641 30.5621C51.8829 30.4926 51.7298 30.3943 51.604 30.2648C51.4782 30.1352 51.3769 29.98 51.3095 29.8C51.242 29.6192 51.2053 29.4173 51.2053 29.1957C51.2033 28.9992 51.2356 28.8044 51.3004 28.6199C51.3593 28.4469 51.4524 28.2884 51.5734 28.1552C51.6976 28.0208 51.847 27.9143 52.0119 27.8418C52.1869 27.7657 52.3863 27.725 52.613 27.725C52.7819 27.7238 52.9494 27.7561 53.1069 27.8199C53.2575 27.8782 53.395 27.9677 53.5118 28.0824C53.6271 28.1983 53.7188 28.337 53.7816 28.4904C53.8494 28.6485 53.8829 28.8226 53.8829 29.0152C53.8829 29.1452 53.8738 29.2561 53.8523 29.3538H51.7542C51.7757 29.6196 51.8708 29.8286 52.0455 29.977C52.2203 30.1255 52.4412 30.1983 52.708 30.1983C52.8861 30.1983 53.0485 30.1701 53.1929 30.1133C53.3369 30.0561 53.4565 29.9867 53.5454 29.904L53.6927 30.2963ZM52.589 28.1931C52.3375 28.1931 52.138 28.2629 51.9875 28.405C51.839 28.5446 51.7441 28.7357 51.7206 28.9429H53.3771C53.365 28.7086 53.2913 28.5252 53.1532 28.3924C53.0151 28.2628 52.8252 28.1931 52.589 28.1931ZM55.5133 26.7134C55.5912 26.7995 55.7036 26.8426 55.8495 26.8426C56.1193 26.8426 56.2697 26.6781 56.2913 26.3492H56.7451C56.7451 26.4754 56.7235 26.5894 56.6807 26.697C56.638 26.8047 56.5764 26.8964 56.4998 26.9722C56.4655 27.0048 56.4288 27.0352 56.3895 27.0627C56.3376 27.0991 56.2806 27.1303 56.2177 27.1555C56.1552 27.1823 56.0888 27.2008 56.0179 27.2123C55.9634 27.2208 55.9063 27.2249 55.8462 27.2249C55.7884 27.2249 55.7332 27.2216 55.6809 27.2149C55.5973 27.2041 55.5205 27.1848 55.4508 27.1555C55.3374 27.1084 55.239 27.0482 55.1625 26.9722C55.1162 26.9264 55.0765 26.8744 55.0436 26.817C55.0221 26.7795 55.0033 26.7393 54.9875 26.697C54.9653 26.6373 54.9488 26.5753 54.9387 26.5104C54.9306 26.4587 54.9263 26.4053 54.9263 26.3492H55.3834C55.3953 26.51 55.4387 26.6313 55.5133 26.7134ZM55.0242 30.6033H54.5395V27.788H55.0242V29.885L56.6008 27.788H57.0856V30.6033H56.6008V28.506L55.0242 30.6033Z" fill="black"/>
</svg>
