<svg width="42" height="16" viewBox="0 0 42 16" fill="none" xmlns="http://www.w3.org/2000/svg">
<g clip-path="url(#clip0_2249_3086)">
<path fill-rule="evenodd" clip-rule="evenodd" d="M4.94305 1.0984C6.35592 0.258872 8.03578 -0.112641 9.6714 0.0296921C11.5233 0.180067 13.3109 1.00914 14.6209 2.32552C15.8569 3.53414 16.6723 5.16092 16.9071 6.87293C17.1258 8.40724 16.895 10.0091 16.2235 11.4083C15.4017 13.1686 13.9108 14.6088 12.1192 15.3623C10.6122 16.0104 8.90103 16.1672 7.29918 15.8206C5.77775 15.4949 4.35522 14.7125 3.27365 13.5931C1.87525 12.1907 1.05502 10.2447 0.988281 8.26812V7.65054C1.02929 7.09327 1.09925 6.536 1.24239 5.99562C1.76026 3.95792 3.1273 2.15584 4.94305 1.0984ZM7.20108 3.66602C6.51917 4.00617 5.97878 4.63581 5.78418 5.37723C5.56706 6.18459 5.61531 7.07638 5.97155 7.8371C6.32858 8.57289 6.98396 9.09236 7.62164 9.57485C6.88425 10.6476 6.16454 11.7332 5.42232 12.8019C6.04311 12.8019 6.66471 12.8147 7.28551 12.7962C8.04864 11.6021 8.82303 10.4168 9.58616 9.22344C9.16479 8.91385 8.73055 8.62275 8.3124 8.30913C7.82268 7.93601 7.40855 7.41332 7.3217 6.7877C7.20671 6.14438 7.27265 5.37482 7.82187 4.93978C8.46921 4.38733 9.37708 4.48785 10.1667 4.48222C10.1635 7.25651 10.1667 10.0316 10.1651 12.8059C10.7047 12.8035 11.2435 12.8059 11.7831 12.8043C11.7839 9.60541 11.7855 6.40653 11.7831 3.20766C10.9998 3.20283 10.2174 3.20685 9.43418 3.20525C8.67105 3.20525 7.88621 3.30898 7.20188 3.66602H7.20108Z" fill="#FC3F1D"/>
<path fill-rule="evenodd" clip-rule="evenodd" d="M7.20144 3.66615C7.88576 3.30912 8.67061 3.20619 9.43374 3.20538C10.217 3.20699 10.9994 3.20297 11.7826 3.20779C11.7858 6.40667 11.7842 9.60554 11.7826 12.8044C11.2431 12.806 10.7043 12.8044 10.1647 12.806C10.1663 10.0317 10.1631 7.25665 10.1663 4.48236C9.37664 4.48799 8.46877 4.38747 7.82143 4.93991C7.2722 5.37495 7.20626 6.14452 7.32126 6.78783C7.4081 7.41345 7.82224 7.93614 8.31196 8.30927C8.73011 8.62288 9.16435 8.91398 9.58572 9.22357C8.82259 10.4169 8.0482 11.6022 7.28507 12.7964C6.66427 12.8149 6.04267 12.8028 5.42188 12.802C6.1641 11.7333 6.8838 10.6477 7.6212 9.57498C6.98352 9.0925 6.32814 8.57302 5.9711 7.83723C5.61487 7.07652 5.56662 6.18473 5.78374 5.37737C5.97834 4.63595 6.51872 4.00631 7.20064 3.66615H7.20144Z" fill="white"/>
<path fill-rule="evenodd" clip-rule="evenodd" d="M21.2734 3.19575C22.1556 3.19977 23.0369 3.18771 23.9183 3.20218C24.8092 3.21746 25.7517 3.42011 26.4392 4.0208C27.0279 4.52741 27.3174 5.30903 27.3383 6.07216C27.364 6.81519 27.2249 7.60486 26.7561 8.20233C26.3363 8.76845 25.6681 9.09252 24.995 9.24933C24.326 9.40372 23.6344 9.37477 22.9533 9.37879C22.9493 10.5175 22.9557 11.6561 22.9501 12.7948C22.392 12.7948 21.8331 12.7964 21.275 12.7932C21.2718 9.5943 21.275 6.39543 21.2734 3.19575ZM22.9525 4.50328C22.9525 5.69583 22.9525 6.88756 22.9525 8.08011C23.6256 8.06804 24.3678 8.16534 24.9612 7.77453C25.5209 7.4191 25.6793 6.69377 25.6383 6.07297C25.623 5.55269 25.4067 4.98657 24.921 4.73568C24.3203 4.40035 23.6095 4.5266 22.9525 4.50328ZM29.8158 3.19495C28.9715 6.39543 28.1191 9.5935 27.278 12.7948C27.7556 12.7948 28.2333 12.7956 28.7101 12.7948C28.8927 12.0992 29.0672 11.4012 29.2473 10.7056C30.2292 10.7048 31.211 10.704 32.1929 10.7056C32.365 11.4028 32.5419 12.0984 32.714 12.7956C33.2937 12.7956 33.8735 12.7964 34.4541 12.7956C33.6122 9.59672 32.7711 6.39623 31.9267 3.19816C31.2231 3.19656 30.5195 3.19897 29.8158 3.19656V3.19495ZM30.7245 4.95923C31.1073 6.43724 31.4828 7.91767 31.8551 9.39809C31.0968 9.39568 30.3385 9.40051 29.5802 9.39568C29.9654 7.91767 30.3442 6.43885 30.7245 4.95923ZM33.9097 3.19736C34.5056 3.19414 35.1023 3.19656 35.6989 3.19656C36.3519 4.53304 37.0008 5.87193 37.6626 7.20439C38.314 5.8655 38.983 4.53545 39.636 3.19656C40.1555 3.19414 40.6758 3.19736 41.196 3.19495C40.2705 5.03643 39.3135 6.86344 38.396 8.70894C38.384 10.0704 38.3976 11.4326 38.3896 12.794C37.8339 12.794 37.2791 12.7956 36.7234 12.794C36.717 11.4318 36.7322 10.0704 36.717 8.70894C35.7994 6.86344 34.8297 5.04286 33.9097 3.19736Z" fill="black"/>
</g>
<defs>
<clipPath id="clip0_2249_3086">
<rect width="40.2071" height="16" fill="white" transform="translate(0.988281)"/>
</clipPath>
</defs>
</svg>
