<svg width="1709" height="170" viewBox="0 0 1709 170" fill="none" xmlns="http://www.w3.org/2000/svg">
<path d="M1601.08 164H1576.44V6.69995H1603.28L1692.6 139.14H1684.02V6.69995H1708.66V164H1681.82L1592.28 31.5599H1601.08V164Z" fill="white"/>
<path d="M1549.97 164H1441.73V6.69995H1549.97V28.2599H1467.03V142.44H1549.97V164ZM1545.79 94.92H1464.83V73.36H1545.79V94.92Z" fill="white"/>
<path d="M1279.95 138.26L1297.55 121.1C1301.51 126.087 1306.21 130.413 1311.63 134.08C1317.21 137.747 1323.15 140.533 1329.45 142.44C1335.91 144.347 1342.65 145.3 1349.69 145.3C1357.32 145.3 1363.92 144.273 1369.49 142.22C1375.21 140.167 1379.69 137.233 1382.91 133.42C1386.14 129.607 1387.75 125.207 1387.75 120.22C1387.75 113.473 1384.67 108.12 1378.51 104.16C1372.5 100.2 1361.87 97.0466 1346.61 94.6999C1332.39 92.6466 1320.87 89.7133 1312.07 85.8999C1303.27 82.0866 1296.82 77.2466 1292.71 71.3799C1288.75 65.5133 1286.77 58.6199 1286.77 50.6999C1286.77 41.3133 1289.34 33.0999 1294.47 26.0599C1299.75 18.8733 1306.94 13.2999 1316.03 9.33993C1325.27 5.23326 1335.83 3.17993 1347.71 3.17993C1361.5 3.17993 1373.67 5.81993 1384.23 11.0999C1394.94 16.3799 1404.11 23.4199 1411.73 32.2199L1394.57 49.3799C1388.85 41.8999 1382.11 36.0333 1374.33 31.7799C1366.71 27.3799 1357.91 25.1799 1347.93 25.1799C1337.52 25.1799 1329.01 27.3799 1322.41 31.7799C1315.81 36.1799 1312.51 42.0466 1312.51 49.3799C1312.51 53.3399 1313.76 56.7133 1316.25 59.4999C1318.75 62.1399 1322.85 64.4133 1328.57 66.3199C1334.44 68.2266 1342.21 69.9133 1351.89 71.3799C1366.41 73.5799 1378.15 76.7333 1387.09 80.8399C1396.19 84.9466 1402.86 90.1533 1407.11 96.4599C1411.37 102.767 1413.49 110.32 1413.49 119.12C1413.49 128.8 1410.78 137.307 1405.35 144.64C1399.93 151.827 1392.37 157.473 1382.69 161.58C1373.01 165.54 1361.87 167.52 1349.25 167.52C1334.44 167.52 1321.24 164.88 1309.65 159.6C1298.07 154.32 1288.17 147.207 1279.95 138.26Z" fill="white"/>
<path d="M1163.89 164H1138.59V6.69995H1201.51C1212.37 6.69995 1221.9 8.67995 1230.11 12.64C1238.33 16.4533 1244.71 21.88 1249.25 28.92C1253.95 35.8133 1256.29 43.9533 1256.29 53.34C1256.29 62.58 1253.95 70.7199 1249.25 77.7599C1244.71 84.7999 1238.33 90.2999 1230.11 94.2599C1221.9 98.0733 1212.37 99.9799 1201.51 99.9799H1161.69V78.42H1201.51C1210.46 78.42 1217.5 76.2199 1222.63 71.8199C1227.91 67.2733 1230.55 61.1133 1230.55 53.34C1230.55 45.5666 1227.91 39.4799 1222.63 35.08C1217.5 30.5333 1210.46 28.2599 1201.51 28.2599H1163.89V164ZM1272.13 164H1240.67L1183.47 90.74H1212.51L1272.13 164Z" fill="white"/>
<path d="M1083.62 126.16H992.977V104.6H1083.62V126.16ZM1114.86 164H1088.02L1034.12 23.86H1042.48L988.577 164H962.617L1024.88 6.69995H1052.6L1114.86 164Z" fill="white"/>
<path d="M948.046 164H846.406V6.69995H871.706V142H948.046V164Z" fill="white"/>
<path d="M662.64 164H638V6.69995H664.84L754.16 139.14H745.58V6.69995H770.22V164H743.38L653.84 31.5599H662.64V164Z" fill="white"/>
<path d="M509.261 164H483.961V6.69995H546.881C557.734 6.69995 567.268 8.67995 575.481 12.64C583.694 16.4533 590.074 21.88 594.621 28.92C599.314 35.8133 601.661 43.9533 601.661 53.34C601.661 62.58 599.314 70.7199 594.621 77.7599C590.074 84.7999 583.694 90.2999 575.481 94.2599C567.268 98.0733 557.734 99.9799 546.881 99.9799H507.061V78.42H546.881C555.828 78.42 562.868 76.2199 568.001 71.8199C573.281 67.2733 575.921 61.1133 575.921 53.34C575.921 45.5666 573.281 39.4799 568.001 35.08C562.868 30.5333 555.828 28.2599 546.881 28.2599H509.261V164ZM617.501 164H586.041L528.841 90.74H557.881L617.501 164Z" fill="white"/>
<path d="M372.563 167.52C360.536 167.52 349.463 165.467 339.343 161.36C329.223 157.253 320.423 151.533 312.943 144.2C305.463 136.72 299.67 127.993 295.563 118.02C291.456 107.9 289.403 96.9733 289.403 85.24C289.403 73.5067 291.456 62.6533 295.563 52.68C299.67 42.7067 305.463 34.0533 312.943 26.72C320.423 19.24 329.223 13.4467 339.343 9.33999C349.463 5.23332 360.536 3.17999 372.563 3.17999C384.59 3.17999 395.663 5.23332 405.783 9.33999C415.903 13.4467 424.703 19.24 432.183 26.72C439.663 34.0533 445.457 42.7067 449.563 52.68C453.67 62.6533 455.723 73.5067 455.723 85.24C455.723 96.9733 453.67 107.9 449.563 118.02C445.457 127.993 439.663 136.72 432.183 144.2C424.703 151.533 415.903 157.253 405.783 161.36C395.663 165.467 384.59 167.52 372.563 167.52ZM372.563 145.08C383.71 145.08 393.536 142.513 402.043 137.38C410.55 132.247 417.223 125.207 422.063 116.26C426.903 107.167 429.323 96.8267 429.323 85.24C429.323 73.6533 426.903 63.3867 422.063 54.44C417.223 45.4933 410.55 38.4533 402.043 33.32C393.536 28.1867 383.71 25.62 372.563 25.62C361.563 25.62 351.736 28.1867 343.083 33.32C334.576 38.4533 327.903 45.4933 323.063 54.44C318.223 63.3867 315.803 73.6533 315.803 85.24C315.803 96.8267 318.223 107.167 323.063 116.26C327.903 125.207 334.576 132.247 343.083 137.38C351.736 142.513 361.563 145.08 372.563 145.08ZM301.943 169.72L287.203 154.76L442.963 0.97998L457.923 15.94L301.943 169.72Z" fill="white"/>
<path d="M262.997 6.69995V103.28C262.997 123.813 257.644 139.653 246.937 150.8C236.23 161.947 220.977 167.52 201.177 167.52C189.297 167.52 178.957 165.32 170.157 160.92C161.357 156.52 154.317 150.213 149.037 142C143.904 133.64 140.824 123.667 139.797 112.08L165.097 109C166.27 120.733 169.937 129.68 176.097 135.84C182.257 142 190.617 145.08 201.177 145.08C213.057 145.08 222.077 141.487 228.237 134.3C234.544 127.113 237.697 116.773 237.697 103.28V6.69995H262.997Z" fill="white"/>
<path d="M0.5625 164V6.69995H63.7025C73.9692 6.69995 82.9158 8.45995 90.5425 11.9799C98.3158 15.3533 104.256 20.1199 108.363 26.2799C112.616 32.4399 114.743 39.6266 114.743 47.84C114.743 55.6133 112.616 62.5066 108.363 68.52C104.256 74.3866 98.3158 79.0066 90.5425 82.38C82.9158 85.6066 73.9692 87.22 63.7025 87.22H28.0625V76.22H66.7825C77.7825 76.22 87.3892 77.98 95.6025 81.5C103.816 85.02 110.196 90.0066 114.743 96.4599C119.289 102.767 121.563 110.247 121.563 118.9C121.563 127.847 119.289 135.767 114.743 142.66C110.196 149.407 103.816 154.687 95.6025 158.5C87.3892 162.167 77.7825 164 66.7825 164H0.5625ZM25.8625 142.66H66.7825C75.8758 142.66 82.9892 140.533 88.1225 136.28C93.2558 131.88 95.8225 125.793 95.8225 118.02C95.8225 110.393 93.2558 104.453 88.1225 100.2C82.9892 95.9466 75.8758 93.8199 66.7825 93.8199H23.6625V72.7H62.6025C70.8158 72.7 77.2692 70.72 81.9625 66.76C86.8025 62.6533 89.2225 57.08 89.2225 50.04C89.2225 43.1466 86.8025 37.7933 81.9625 33.98C77.2692 30.02 70.8158 28.04 62.6025 28.04H25.8625V142.66Z" fill="white"/>
</svg>
