<svg width="57" height="56" viewBox="0 0 57 56" fill="none" xmlns="http://www.w3.org/2000/svg">
<path d="M17 7.49999C14.6667 8.66666 9.6 13.1 8 21.5C6.62682 28.7092 4.9099 36.434 3.92391 40.6918C3.68734 41.7134 4.27436 42.7445 5.27432 43.0603L13 45.5M17 7.49999L18.5 2.99999M17 7.49999C20.0583 8.99212 22.2895 9.71456 25 9.78344C26.2013 9.81396 27.4967 9.71611 29 9.5M13 45.5V53C13 54.1046 13.8954 55 15 55H29M13 45.5C13.5 37.5 13.3245 32.2594 15.5 23M45 45.5V53C45 54.1046 44.1046 55 43 55H29M45 45.5L52.3787 43.0404C53.3124 42.7292 53.8806 41.7889 53.7114 40.8194C53.1632 37.6772 51.8577 30.4168 50 21.5C47.5 9.49999 41.5 7.49999 41.5 7.49999M45 45.5C44.5 36.5 44.7242 31.8122 42.5 23M41.5 7.49999L40 2.99999M41.5 7.49999C36.8631 9.94994 34.1468 10.2718 29 9.5M40 2.99999C38 0.5 20.5 0.499998 18.5 2.99999M40 2.99999C39.5 7 29 5 29 9.5M18.5 2.99999C19.5 6.5 29 5.5 29 9.5M29 55V9.5" stroke="#C38648" stroke-width="2" stroke-linecap="round"/>
</svg>
