<svg width="57" height="57" viewBox="0 0 57 57" fill="none" xmlns="http://www.w3.org/2000/svg">
<g clip-path="url(#clip0_2226_1266)">
<path d="M21 26C21 26 22 35 29 35C36 35 37 26 37 26" stroke="#C38648" stroke-width="2" stroke-linecap="round"/>
<path d="M8 19L6 55H52L50 19M8 19L11 14H12.5M8 19H13.5M50 19L47 14H44.5M50 19H43M43 19L45.5 10.5L36.1796 8.08361M43 19H36M30.5 12L32 7L36.1796 8.08361M13.5 19L11.5 7L23 5.5625M13.5 19H20M28.5 12L27.5 5L23 5.5625M36 19L34 11L19 15L20 19M36 19H20M23 5.5625C23 5.5625 26.5 0.50002 31.5 2.00002C36.5 3.50002 36.1796 8.08361 36.1796 8.08361" stroke="#C38648" stroke-width="2"/>
</g>
<defs>
<clipPath id="clip0_2226_1266">
<rect width="56" height="56" fill="white" transform="translate(0.5 0.5)"/>
</clipPath>
</defs>
</svg>
