<svg width="56" height="56" viewBox="0 0 56 56" fill="none" xmlns="http://www.w3.org/2000/svg">
<path d="M16.5012 42.5C2.84191 27.1331 8.66756 8.66667 12.5009 1.5C14.8343 7.33333 14.001 11 22.001 21.5C26.4301 27.3132 32.0012 29.6667 36.001 31.5C51.001 35.5 48.8338 45 47.0004 49C45.0004 55 32.501 60.5 16.5012 42.5Z" stroke="#C38648" stroke-width="2"/>
<path d="M17.8896 27.5432C17.6373 27.0519 17.0345 26.8581 16.5432 27.1104C16.0519 27.3627 15.8581 27.9655 16.1104 28.4568L17.8896 27.5432ZM54.3634 51.4906C54.9105 51.5661 55.4152 51.1837 55.4906 50.6366C55.5661 50.0895 55.1837 49.5848 54.6366 49.5094L54.3634 51.4906ZM31 36C31 36.5523 31.4477 37 32 37C32.5523 37 33 36.5523 33 36H31ZM40 39C40 39.5523 40.4477 40 41 40C41.5523 40 42 39.5523 42 39H40ZM28.4961 47.8682C28.9757 47.5942 29.1423 46.9834 28.8682 46.5039C28.5942 46.0243 27.9834 45.8577 27.5039 46.1318L28.4961 47.8682ZM16 34C16.5523 34 17 33.5523 17 33C17 32.4477 16.5523 32 16 32V34ZM16.1104 28.4568C19.4152 34.8923 30.8175 48.2429 54.3634 51.4906L54.6366 49.5094C31.7825 46.3571 20.9182 33.441 17.8896 27.5432L16.1104 28.4568ZM30 28.5C29.2908 29.205 29.2904 29.2046 29.2899 29.2041C29.2898 29.204 29.2893 29.2035 29.289 29.2032C29.2885 29.2027 29.2879 29.2021 29.2874 29.2016C29.2864 29.2006 29.2855 29.1997 29.2848 29.1989C29.2832 29.1973 29.2822 29.1962 29.2816 29.1956C29.2803 29.1943 29.281 29.1949 29.2833 29.1975C29.288 29.2027 29.2997 29.2156 29.3172 29.2368C29.3524 29.279 29.4114 29.3539 29.4869 29.4643C29.6376 29.6849 29.855 30.0489 30.0782 30.5795C30.5233 31.6381 31 33.3804 31 36H33C33 33.1313 32.4767 31.1236 31.9218 29.8042C31.645 29.146 31.3624 28.664 31.1381 28.3358C31.0261 28.1719 30.9289 28.0468 30.8547 27.9576C30.8175 27.913 30.7862 27.8773 30.7616 27.8504C30.7493 27.8369 30.7387 27.8255 30.7299 27.8163C30.7255 27.8117 30.7216 27.8076 30.7181 27.8041C30.7164 27.8023 30.7148 27.8006 30.7133 27.7991C30.7125 27.7984 30.7118 27.7976 30.7111 27.797C30.7108 27.7966 30.7103 27.7961 30.7101 27.7959C30.7096 27.7954 30.7092 27.795 30 28.5ZM38.1318 32.9961C38.8017 34.1686 40 36.0932 40 39H42C42 35.5068 40.5316 33.1647 39.8682 32.0039L38.1318 32.9961ZM20.5039 47.8682C21.8444 48.6343 25.2752 49.7088 28.4961 47.8682L27.5039 46.1318C25.1248 47.4912 22.4889 46.699 21.4961 46.1318L20.5039 47.8682ZM8.29289 29.7071C9.00084 30.415 10.2045 31.4615 11.5554 32.3387C12.8663 33.1899 14.4922 34 16 34V32C15.1078 32 13.9004 31.4768 12.6446 30.6613C11.4288 29.8718 10.3325 28.9183 9.70711 28.2929L8.29289 29.7071Z" fill="#C38648"/>
</svg>
