<svg width="57" height="16" viewBox="0 0 57 16" fill="none" xmlns="http://www.w3.org/2000/svg">
<path d="M40.7422 7.23291V16H45.6128V10.8047H51.1329C53.4545 10.7885 55.4271 9.30293 56.174 7.23291H40.7422Z" fill="#37A72E"/>
<path d="M40.0938 0.00805664C40.3779 3.58797 43.7711 6.42105 47.9111 6.42105C47.9273 6.42105 56.3779 6.42105 56.3779 6.42105C56.4428 6.09634 56.4753 5.75539 56.4753 5.40633C56.4753 2.43525 54.0806 0.0324098 51.1176 0.00805664H40.0938Z" fill="url(#paint0_linear_2249_3070)"/>
<path d="M32.8871 6.33175C32.9439 6.23434 33.0332 6.17751 33.1468 6.17751C33.3092 6.17751 33.431 6.3074 33.4391 6.46163V15.9188H38.3097V0.00805664H33.4391C32.8221 0.0324098 32.124 0.478883 31.8642 1.03901L27.9921 9.35154C27.984 9.38401 27.9677 9.41648 27.9515 9.44895C27.8947 9.53013 27.7973 9.58695 27.6836 9.58695C27.505 9.58695 27.3589 9.44083 27.3589 9.26224V0.00805664H22.4883V15.9188H27.3589C27.9677 15.8863 28.6496 15.4398 28.9094 14.8878L32.8871 6.3561C32.8789 6.34799 32.8871 6.33987 32.8871 6.33175Z" fill="#37A72E"/>
<path d="M14.7012 6.60781L11.8519 15.9188H8.345L5.50381 6.5997C5.47945 6.45358 5.34957 6.33993 5.18722 6.33993C5.00863 6.33993 4.87062 6.48605 4.87062 6.65652V15.9107H0V0H4.18062H5.42263C6.31558 0 7.25723 0.698123 7.517 1.55048L9.88737 9.30289C10.0091 9.69254 10.1958 9.68443 10.3176 9.30289L12.688 1.55048C12.9477 0.690006 13.8894 0 14.7823 0H16.0244H20.205V15.9107H15.3344V6.65652C15.3344 6.65652 15.3344 6.65652 15.3344 6.6484C15.3344 6.46981 15.1882 6.33181 15.0178 6.33181C14.8554 6.33993 14.7255 6.45358 14.7012 6.60781Z" fill="#37A72E"/>
<defs>
<linearGradient id="paint0_linear_2249_3070" x1="40.0957" y1="3.21456" x2="56.4743" y2="3.21456" gradientUnits="userSpaceOnUse">
<stop stop-color="#00A0E5"/>
<stop offset="1" stop-color="#0077C3"/>
</linearGradient>
</defs>
</svg>
