<svg width="50" height="16" viewBox="0 0 50 16" fill="none" xmlns="http://www.w3.org/2000/svg">
<g clip-path="url(#clip0_2249_3075)">
<path d="M21.8993 15.7692H17.8945L20.3994 0.280762H24.404L21.8993 15.7692Z" fill="#00579F"/>
<path d="M36.4157 0.659404C35.6258 0.346017 34.3729 0 32.8237 0C28.8688 0 26.0838 2.10895 26.0667 5.12412C26.0339 7.3487 28.0607 8.58429 29.5766 9.32604C31.126 10.084 31.6527 10.5787 31.6527 11.2543C31.6369 12.2919 30.4007 12.7702 29.2477 12.7702C27.6488 12.7702 26.7921 12.5236 25.4901 11.9464L24.9628 11.6989L24.4023 15.1757C25.3416 15.6036 27.0721 15.9834 28.8688 16C33.0709 16 35.8067 13.9237 35.8391 10.7105C35.8551 8.94739 34.7848 7.59639 32.4775 6.49242C31.0767 5.78374 30.2189 5.30589 30.2189 4.58078C30.2354 3.9216 30.9445 3.24643 32.5256 3.24643C33.8276 3.21336 34.7842 3.52631 35.5088 3.83948L35.8711 4.00394L36.4157 0.659404Z" fill="#00579F"/>
<path d="M41.7391 10.2822C42.0689 9.3924 43.338 5.94865 43.338 5.94865C43.3213 5.98172 43.6671 5.04244 43.8649 4.46582L44.1448 5.80039C44.1448 5.80039 44.9032 9.50781 45.0679 10.2822C44.442 10.2822 42.5301 10.2822 41.7391 10.2822ZM46.6825 0.280762H43.5848C42.6295 0.280762 41.9038 0.560641 41.4916 1.56584L35.543 15.769H39.7451C39.7451 15.769 40.4369 13.8573 40.5856 13.4456C41.0466 13.4456 45.1344 13.4456 45.7275 13.4456C45.8424 13.9894 46.2053 15.769 46.2053 15.769H49.9134L46.6825 0.280762Z" fill="#00579F"/>
<path d="M14.5516 0.280762L10.6296 10.8424L10.201 8.70036C9.47589 6.22875 7.20181 3.5434 4.66406 2.20816L8.25651 15.7528H12.4915L18.7864 0.280762H14.5516Z" fill="#00579F"/>
<path d="M6.98584 0.280762H0.542481L0.476562 0.59371C5.50279 1.87901 8.83156 4.97718 10.1992 8.70102L8.79849 1.58271C8.56789 0.593491 7.85921 0.313392 6.98584 0.280762Z" fill="#FAA61A"/>
</g>
<defs>
<clipPath id="clip0_2249_3075">
<rect width="49.4379" height="16" fill="white" transform="translate(0.476562)"/>
</clipPath>
</defs>
</svg>
