<svg width="24" height="24" viewBox="0 0 24 24" fill="none" xmlns="http://www.w3.org/2000/svg">
<path d="M20.668 3.18396H3.33202C1.49189 3.18396 0 4.67585 0 6.51598V17.484C0 19.3241 1.49189 20.816 3.33202 20.816H20.668C22.5081 20.816 24 19.3241 24 17.484V6.51598C24 4.67585 22.5081 3.18396 20.668 3.18396ZM8.35153 15.0806L3.68559 19.0612C3.35648 19.3421 2.86172 19.3031 2.58089 18.9736C2.30002 18.6445 2.33906 18.1497 2.66855 17.8689L7.33448 13.8883C7.66355 13.6074 8.15827 13.6465 8.43914 13.9759C8.72002 14.305 8.68097 14.7998 8.35153 15.0806ZM12 13.5673C11.3759 13.5657 10.7709 13.3584 10.298 12.9493L10.2983 12.9497L10.2968 12.9486C10.2972 12.949 10.2976 12.949 10.298 12.9493L3.13884 6.73563C2.81166 6.45166 2.77683 5.95694 3.06038 5.63018C3.3443 5.30299 3.83906 5.26816 4.16578 5.55171L11.3269 11.767C11.48 11.9032 11.7322 12.0015 12 12C12.2675 12.0008 12.5154 11.9051 12.6769 11.7643L12.6803 11.7612L19.8342 5.55176C20.1609 5.26821 20.6557 5.30304 20.9396 5.63023C21.2231 5.95694 21.1883 6.45171 20.8612 6.73568L13.7001 12.9513C13.2286 13.356 12.6245 13.5665 12 13.5673ZM21.4194 18.9736C21.1386 19.3031 20.6438 19.3421 20.3148 19.0612L15.6488 15.0806C15.3194 14.7997 15.2804 14.305 15.5612 13.9759C15.8421 13.6465 16.3368 13.6075 16.6659 13.8883L21.3318 17.8689C21.6613 18.1497 21.7003 18.6445 21.4194 18.9736Z"/>
</svg>
