<svg width="24" height="24" viewBox="0 0 24 24" fill="none" xmlns="http://www.w3.org/2000/svg">
<path d="M15.9513 14.1893L15.4452 14.6954C15.4452 14.6954 14.2423 15.8985 10.959 12.6145C7.67568 9.33067 8.87855 8.12759 8.87855 8.12759L9.19721 7.80885C9.98232 7.02365 10.0563 5.76302 9.37132 4.84272L7.97028 2.96015C7.12253 1.82108 5.48439 1.67061 4.51272 2.64246L2.76872 4.38676C2.28692 4.86865 1.96405 5.49331 2.00321 6.18628C2.10338 7.95911 2.90079 11.7735 7.35039 16.2239C12.069 20.9433 16.4964 21.1308 18.307 20.961C18.8796 20.9074 19.3776 20.614 19.779 20.2126L21.3574 18.634C22.4229 17.5683 22.1224 15.7414 20.7592 14.996L18.6364 13.8352C17.7413 13.3458 16.6509 13.4896 15.9513 14.1893Z"/>
</svg>
