<svg xmlns="http://www.w3.org/2000/svg" viewBox="0 0 18 18">
<path d="M8.9,7.2C8.2,7.5,7.7,8,7.1,8.8C7,8.9,7,9,7.1,9.1c0.1,0,0.1,0,0.2-0.1c0,0,0,0,0,0c0.1-0.1,0.1-0.1,0.3-0.3C8,8.2,8.2,8,8.5,7.8C8.8,7.6,9,7.9,9,8.2c0,0.1,0,0.1-0.1,0.3c0,0.1,0,0.1,0,0.1c-0.1,0.3-0.2,0.5-0.4,1l0,0C8.4,9.7,8.4,9.7,8.3,9.8c-0.2,0.6-0.4,1-0.6,1.4l0,0c0,0.1-0.1,0.2-0.1,0.2c-0.2,0.5-0.3,0.8-0.4,1.1c0,0.1,0,0.1,0,0.1c0,0.2-0.1,0.3-0.1,0.4c0,0.2,0,0.4,0.1,0.5c0.1,0.2,0.2,0.3,0.4,0.3c0.3,0,0.6,0,0.9,0c0.1,0,0.3-0.1,0.4-0.1c0.4-0.2,0.8-0.4,1.2-0.7c0.3-0.3,0.6-0.6,1-1c0,0,0,0,0.1-0.1c0.1-0.1,0.1-0.2,0.2-0.3c0-0.1-0.1-0.2-0.1-0.2c0,0-0.1,0-0.1,0.1c0,0-0.1,0.1-0.1,0.1c-0.1,0.1-0.2,0.2-0.3,0.3c-0.1,0.2-0.3,0.3-0.5,0.5c-0.1,0.1-0.3,0.2-0.4,0.3c-0.2,0.1-0.5,0-0.4-0.3c0-0.2,0.1-0.4,0.1-0.5c0.1-0.4,0.3-0.7,0.5-1.4c0.1-0.3,0.2-0.4,0.2-0.6c0.2-0.5,0.3-0.8,0.4-1.2c0.2-0.4,0.3-0.8,0.3-1.1c0-0.3,0-0.5-0.2-0.7c-0.2-0.2-0.5-0.3-0.8-0.3C9.7,6.9,9.3,7,8.9,7.2z M11.4,4.1C10.8,3.8,10,4.3,9.8,4.9C9.8,5.4,9.9,5.9,10.3,6C11.1,6.4,12,5.8,12,5C12,4.5,11.8,4.2,11.4,4.1z"/>
</svg>
