<svg xmlns="http://www.w3.org/2000/svg" viewBox="0 0 24 24">
<path d="M12,22l-0.5-0.4c-0.2-0.2-0.5-0.4-0.8-0.7C9.8,20,8.8,19,8,18.1c-1.2-1.3-2.1-2.6-2.8-3.9C4.4,12.7,4,11.3,4,10c0-2.4,0.8-4.4,2.3-5.9C7.7,2.8,9.8,2,12,2c4.5,0,8,3.5,8,8c0,1.3-0.4,2.7-1.3,4.2c-0.7,1.2-1.6,2.5-2.8,3.9c-1,1.2-2.1,2.2-2.8,2.8c-0.3,0.3-0.6,0.5-0.8,0.7L12,22z M12,3.5c-1.8,0-3.5,0.6-4.7,1.7C6.1,6.4,5.5,8,5.5,10c0,1,0.4,2.2,1.1,3.5c0.6,1.1,1.5,2.3,2.6,3.6c0.8,0.9,1.7,1.8,2.6,2.7c0.1,0.1,0.2,0.1,0.2,0.2c0.1-0.1,0.2-0.1,0.2-0.2c0.7-0.6,1.6-1.6,2.6-2.7c1.1-1.3,2-2.5,2.6-3.6c0.7-1.3,1.1-2.5,1.1-3.5C18.5,6.4,15.6,3.5,12,3.5z"/>
<path d="M12,12c-1.7,0-3-1.3-3-3s1.3-3,3-3s3,1.3,3,3S13.7,12,12,12z M12,7.5c-0.8,0-1.5,0.7-1.5,1.5s0.7,1.5,1.5,1.5s1.5-0.7,1.5-1.5S12.8,7.5,12,7.5z"/>
</svg>
