<svg width="24" height="24" viewBox="0 0 24 24" fill="none" xmlns="http://www.w3.org/2000/svg">
<path d="M17.6995 22H6.29948C5.09948 22 3.99948 21.5 3.09948 20.6C2.29948 19.7 1.89948 18.5 1.99948 17.3L3.39948 5.9C3.59948 3.7 5.39948 2 7.59948 2H16.3995C18.5995 2 20.4995 3.7 20.6995 5.9L21.9995 17.3C22.0995 18.5 21.6995 19.7 20.8995 20.6C20.0995 21.5 18.8995 22 17.6995 22ZM7.59948 4C6.39948 4 5.49948 4.9 5.39948 6.1L3.99948 17.5C3.89948 18.1 4.19948 18.7 4.59948 19.2C4.99948 19.7 5.59948 19.9 6.29948 19.9H17.7995C18.3995 19.9 18.9995 19.6 19.4995 19.2C19.8995 18.7 20.0995 18.1 20.0995 17.5L18.5995 6.1C18.4995 4.9 17.5995 4 16.3995 4H7.59948Z"/>
<path d="M11.9984 11.4C9.19844 11.4 6.89844 9.10005 6.89844 6.30005C6.89844 5.70005 7.29844 5.30005 7.89844 5.30005C8.49844 5.30005 8.89844 5.70005 8.89844 6.30005C8.89844 8.00005 10.2984 9.40005 11.9984 9.40005C13.6984 9.40005 15.0984 8.00005 15.0984 6.30005C15.0984 5.70005 15.4984 5.30005 16.0984 5.30005C16.6984 5.30005 17.0984 5.70005 17.0984 6.30005C17.0984 9.10005 14.7984 11.4 11.9984 11.4Z"/>
</svg>
