<svg width="24" height="24" viewBox="0 0 24 24" fill="none" xmlns="http://www.w3.org/2000/svg">
<path d="M12.4 9.9C16.5 9.9 19.8 7.9 19.8 5.4C19.8 2.9 16.5 1 12.4 1C8.2 1 5 3 5 5.5C5 8 8.2 9.9 12.4 9.9ZM12.4 3C15.5 3 17.8 4.3 17.8 5.5C17.8 6.7 15.5 8 12.4 8C9.3 7.9 7 6.6 7 5.5C7 4.4 9.3 3 12.4 3Z"/>
<path d="M18.9008 9.69999C18.4008 9.39999 17.8008 9.59999 17.5008 9.99999C17.0008 11 15.0008 11.9 12.4008 11.9C9.70078 11.9 7.80078 11 7.20078 9.99999C6.90078 9.59999 6.30078 9.39999 5.80078 9.69999C5.30078 9.99999 5.20078 10.6 5.50078 11.1C6.60078 12.8 9.30078 13.9 12.4008 13.9C15.5008 13.9 18.2008 12.8 19.3008 11.1C19.5008 10.6 19.4008 9.99999 18.9008 9.69999Z"/>
<path d="M18.8992 14.2C18.3992 13.9 17.7992 14.1 17.4992 14.5C16.8992 15.4 14.9992 16.4 12.2992 16.4C9.69922 16.4 7.69922 15.5 7.09922 14.5C6.79922 14 6.19922 13.9 5.69922 14.2C5.19922 14.5 5.09922 15.1 5.39922 15.6C6.49922 17.3 9.19922 18.4 12.2992 18.4C15.3992 18.4 18.0992 17.3 19.1992 15.6C19.4992 15.1 19.3992 14.5 18.8992 14.2Z"/>
<path d="M18.9008 18.8C18.4008 18.5 17.8008 18.7 17.5008 19.1C17.0008 20.1 15.0008 21 12.4008 21C9.80078 21 7.80078 20.1 7.20078 19.1C6.90078 18.6 6.30078 18.5 5.80078 18.8C5.30078 19.1 5.20078 19.7 5.50078 20.2C6.50078 21.9 9.20078 23 12.4008 23C15.5008 23 18.2008 21.9 19.3008 20.2C19.5008 19.7 19.4008 19.1 18.9008 18.8Z"/>
</svg>
