<svg xmlns="http://www.w3.org/2000/svg" viewBox="0 0 24 24">
<path d="M15.3,21.8H8.8c-0.7,0-1.3-0.3-1.8-0.8c-0.4-0.5-0.7-1.1-0.7-1.8L5.5,7.6H5c-0.5,0-0.8-0.4-0.8-0.8S4.5,5.9,5,5.9h1.3c0,0,0,0,0,0h1.6V4.8c0-0.7,0.2-1.3,0.7-1.8c0.5-0.5,1.1-0.8,1.8-0.8h3.3c0.7,0,1.3,0.3,1.8,0.8c0.4,0.5,0.7,1.1,0.7,1.8v1.1h1.6c0,0,0,0,0,0H19c0.5,0,0.8,0.4,0.8,0.8S19.5,7.6,19,7.6h-0.5l-0.8,11.7c0,0.6-0.2,1.3-0.7,1.8C16.6,21.5,15.9,21.8,15.3,21.8z M7.2,7.6L8,19.1c0,0.3,0.1,0.6,0.3,0.8c0.1,0.2,0.3,0.3,0.5,0.3h6.5c0.2,0,0.4-0.1,0.5-0.3c0.2-0.2,0.3-0.4,0.3-0.7l0.8-11.6H7.2z M9.6,5.9h4.9V4.8c0-0.3-0.1-0.5-0.3-0.7c-0.1-0.2-0.3-0.3-0.5-0.3h-3.3c-0.2,0-0.4,0.1-0.5,0.3C9.7,4.3,9.6,4.5,9.6,4.8V5.9z"/>
</svg>
