<svg aria-hidden="true" style="width: 0px; height: 0px; overflow: hidden; position: absolute;" xmlns="http://www.w3.org/2000/svg">
    <symbol id="burger_icon" viewBox="0 0 24 24">
      <rect x="2.3" y="4.3" width="19.5" height="1.5"/>
      <rect x="2.3" y="18.3" width="19.5" height="1.5"/>
      <rect x="2.3" y="11.3" width="19.5" height="1.5"/>
    </symbol>
    <symbol id="cart_icon" viewBox="0 0 24 24">
      <path d="M19,22.8H5c-1.5,0-2.8-1.2-2.8-2.8V6H3L2.4,5.5l3.2-4.3h12.8l3.2,4.3L21,6h0.8v14C21.8,21.5,20.5,22.8,19,22.8z M3.8,6.8V20c0,0.7,0.6,1.3,1.3,1.3h14c0.7,0,1.3-0.6,1.3-1.3V6.8H3.8z M4.5,5.3h15l-1.9-2.5H6.4L4.5,5.3z"/>
      <path d="M12,14.8c-3.3,0-4.5-3-4.7-4.7C7.2,9.7,7.5,9.3,7.9,9.3c0.4,0,0.8,0.2,0.8,0.6c0,0.1,0.5,3.3,3.3,3.3c2.8,0,3.2-3.2,3.3-3.3c0.1-0.4,0.4-0.7,0.8-0.7c0.4,0.1,0.7,0.4,0.7,0.8C16.5,11.7,15.3,14.8,12,14.8z"/>
    </symbol>
    <symbol id="fav_icon" viewBox="0 0 24 24">
      <path d="M19.8,22.6L12,16.2l-7.8,6.4V5c0-1.5,1.2-2.8,2.8-2.8h10c1.5,0,2.8,1.2,2.8,2.8V22.6z M12,14.2l6.3,5.2V5c0-0.7-0.6-1.3-1.3-1.3H7C6.3,3.8,5.8,4.3,5.8,5v14.4L12,14.2z"/>
    </symbol>
    <symbol id="fav_filled_icon" viewBox="0 0 24 24">
      <path d="M17,3H7C5.9,3,5,3.9,5,5v16l7-5.8l7,5.8V5C19,3.9,18.1,3,17,3z"/>
    	<path d="M19.8,22.6L12,16.2l-7.8,6.4V5c0-1.5,1.2-2.8,2.8-2.8h10c1.5,0,2.8,1.2,2.8,2.8V22.6z M12,14.2l6.3,5.2V5c0-0.7-0.6-1.3-1.3-1.3H7C6.3,3.8,5.8,4.3,5.8,5v14.4L12,14.2z"/>
    </symbol>
    <symbol id="personal_icon" viewBox="0 0 24 24">
      <path d="M12.3,12c-2.8,0-5-2.2-5-5s2.2-5,5-5s5,2.2,5,5S15.1,12,12.3,12z M12.3,3.5c-1.9,0-3.5,1.6-3.5,3.5s1.6,3.5,3.5,3.5s3.5-1.6,3.5-3.5S14.3,3.5,12.3,3.5z"/>
      <path d="M21.1,22h-1.5v-3c0-1.8-1.5-3.3-3.3-3.3h-8c-1.8,0-3.3,1.5-3.3,3.3v3H3.6v-3c0-2.6,2.1-4.8,4.8-4.8h8c2.6,0,4.8,2.1,4.8,4.8V22z"/>
    </symbol>
    <symbol id="search_icon" viewBox="0 0 24 24">
      <path d="M11,20c-5,0-9-4-9-9c0-5,4-9,9-9c5,0,9,4,9,9C20,16,16,20,11,20z M11,3.5c-4.1,0-7.5,3.4-7.5,7.5s3.4,7.5,7.5,7.5s7.5-3.4,7.5-7.5S15.1,3.5,11,3.5z"/>
      <rect x="18.5" y="16.1" transform="matrix(0.7071 -0.7071 0.7071 0.7071 -7.9736 19.25)" width="1.5" height="6.4"/>
    </symbol>
    <symbol id="close_icon" viewBox="0 0 24 24">
      <polygon points="18.5,19.5 12,13.1 5.5,19.5 4.5,18.5 10.9,12 4.5,5.5 5.5,4.5 12,10.9 18.5,4.5 19.5,5.5 13.1,12 19.5,18.5 "/>
    </symbol>
    <symbol id="logo_icon" viewBox="0 0 64 64">
      <path d="M23.8154 18.6078L32 26.793L40.1847 18.6078L32 10.4226L23.8154 18.6078ZM18.6066 23.8169L5.2131 37.2113L0 32.0021L32 0L64 32.0021L58.7912 37.2113L45.3977 23.8169L32.0043 37.2113L18.6108 23.8169H18.6066ZM14.1535 46.1566L19.3623 40.9475L31.9957 53.5817L44.6291 40.9475L49.8379 46.1566L31.9957 64L14.1535 46.1566Z"/>
    </symbol>
    <symbol id="logo_text" viewBox="0 0 188 20">
      <path d="M8.2076 8.62878C9.32303 8.62878 10.1825 8.42764 10.7585 8.0345C11.2887 7.66878 11.5356 7.16592 11.5356 6.44821C11.5356 5.7305 11.2887 5.22307 10.7585 4.86192C10.1825 4.46878 9.3276 4.26764 8.2076 4.26764H3.80988V8.62878H8.2076ZM8.80188 16.1168C10.0499 16.1168 10.987 15.9202 11.5859 15.5271C12.1345 15.1705 12.3905 14.6356 12.3905 13.8402C12.3905 12.8528 12.0202 11.5408 8.80188 11.5408H3.80531V16.1168H8.80188ZM0.445312 19.0242V1.35107H8.42246C10.4293 1.35107 12.0156 1.76707 13.1356 2.58992C14.3059 3.44478 14.8956 4.64707 14.8956 6.15564C14.8956 7.12021 14.667 7.9705 14.2099 8.68364C13.9447 9.09964 13.6202 9.46078 13.2453 9.7625C13.8807 10.0734 14.4156 10.5031 14.8362 11.0379C15.4579 11.8288 15.7779 12.8345 15.7779 14.0231C15.7779 15.6322 15.1607 16.8894 13.9402 17.7579C12.7699 18.5945 11.0739 19.0196 8.89788 19.0196H0.445312V19.0242ZM58.2099 10.9419C59.5996 10.9419 60.6556 10.6494 61.355 10.0734C62.0362 9.51564 62.3699 8.72478 62.3699 7.65964C62.3699 6.5945 62.0407 5.81278 61.3596 5.25964C60.6556 4.69278 59.5996 4.40478 58.2099 4.40478H54.6442V10.9374H58.2099V10.9419ZM62.6807 19.0242L59.0922 13.9134C58.7676 13.9316 58.4979 13.9454 58.2876 13.9454H54.6533V19.0242H51.2887V1.35107H58.2876C60.5596 1.35107 62.379 1.90878 63.7047 3.01507C65.0579 4.13964 65.739 5.70307 65.739 7.65964C65.739 9.04478 65.387 10.2471 64.6967 11.2299C64.1162 12.0574 63.3207 12.7019 62.3333 13.1499L66.4796 19.0196H62.6807V19.0242ZM81.0259 19.0242L71.7322 7.47221V19.0242H68.3676V1.35107H71.0465L80.3402 12.8985V1.35107H83.7047V19.0242H81.0259ZM22.1185 19.2162C21.0442 19.2162 20.0339 18.9876 19.115 18.5351C18.1825 18.0779 17.4236 17.4288 16.8522 16.5968L16.6419 16.2859L18.6807 13.8951L19.0419 14.4162C19.8739 15.6094 20.8842 16.1854 22.123 16.1854C22.9185 16.1854 23.4945 15.9614 23.883 15.4996C24.2899 15.0196 24.4956 14.2745 24.4956 13.2871V4.40478H18.4613V1.35107H27.8373V13.1682C27.8373 15.1339 27.3482 16.6471 26.379 17.6665C25.4053 18.6951 23.9745 19.2162 22.123 19.2162M39.819 4.26307C38.6853 4.26307 37.6476 4.52364 36.7287 5.03564C35.819 5.54764 35.0922 6.26078 34.5756 7.15678C34.059 8.05278 33.7939 9.07678 33.7939 10.1922C33.7939 11.3076 34.059 12.3316 34.5756 13.2276C34.795 13.6071 35.051 13.9499 35.3619 14.2699L42.2053 4.72021C41.4693 4.4185 40.6693 4.26764 39.819 4.26764M37.4282 15.6642C38.1687 15.9614 38.9733 16.1168 39.819 16.1168C40.9527 16.1168 41.9813 15.8562 42.8773 15.3488C43.7733 14.8368 44.491 14.1236 45.0076 13.2276C45.5242 12.3316 45.7893 11.3076 45.7893 10.1922C45.7893 9.07678 45.5287 8.05735 45.0076 7.15678C44.7927 6.7865 44.5459 6.45278 44.2533 6.13735L37.4236 15.6642H37.4282ZM31.595 19.5271L33.4465 16.9396C32.7333 16.3225 32.1299 15.6048 31.6545 14.8048C30.8407 13.4288 30.4293 11.8791 30.4293 10.1922C30.4293 8.50535 30.8407 6.95107 31.6545 5.57964C32.4682 4.20364 33.6019 3.11107 35.0236 2.33392C36.4407 1.55678 38.0545 1.16364 39.8145 1.16364C41.355 1.16364 42.795 1.4745 44.0887 2.08707L44.971 0.857353H48.0339L46.1733 3.44935C46.8727 4.05735 47.4625 4.7705 47.9333 5.56592C48.7379 6.93278 49.1447 8.48707 49.1447 10.1922C49.1447 11.8974 48.7379 13.4516 47.9333 14.8185C47.1287 16.1854 45.9996 17.2734 44.5733 18.0505C43.1562 18.8276 41.5516 19.2208 39.8053 19.2208C38.2556 19.2208 36.8156 18.9145 35.5219 18.3065L34.6442 19.5316H31.5767L31.595 19.5271Z"/>
      <path d="M91.1875 19.1842V1.51107H94.5521V16.1305H103.59V19.1842H91.1875ZM117.112 12.1214L114.26 5.64364L111.407 12.1214H117.108H117.112ZM120.216 19.1842L118.378 15.0105H110.145L108.308 19.1842H104.774L112.778 1.51107H115.768L123.796 19.1842H120.212H120.216ZM131.91 11.0974C133.299 11.0974 134.355 10.8048 135.06 10.2288C135.741 9.67107 136.074 8.88021 136.074 7.81507C136.074 6.74992 135.745 5.96821 135.064 5.41507C134.36 4.84821 133.299 4.55564 131.914 4.55564H128.349V11.0882H131.914L131.91 11.0974ZM136.381 19.1842L132.792 14.0733C132.468 14.0916 132.198 14.1054 131.987 14.1054H128.349V19.1842H124.984V1.51107H131.983C134.255 1.51107 136.074 2.07335 137.4 3.17507C138.753 4.29964 139.439 5.86307 139.439 7.81964C139.439 9.20478 139.087 10.4071 138.397 11.3899C137.816 12.2174 137.021 12.8619 136.033 13.3145L140.18 19.1842H136.381ZM156.824 19.1842V1.51107H169.583V4.56478H160.184V8.71564H168.554V11.7236H160.184V16.1351H169.917V19.1888H156.824V19.1842ZM185.172 19.1842L175.878 7.63678V19.1842H172.513V1.51107H175.192L184.486 13.0585V1.51107H187.85V19.1842H185.172ZM147.983 19.3716C146.68 19.3716 145.405 19.1659 144.193 18.7636C142.963 18.3522 141.976 17.8082 141.263 17.1454L140.998 16.9031L142.314 14.1236L142.804 14.5625C143.389 15.0882 144.157 15.5271 145.085 15.8608C146.017 16.1991 146.995 16.3682 147.983 16.3682C149.258 16.3682 150.209 16.1579 150.808 15.7511C151.361 15.3716 151.622 14.9054 151.622 14.2836C151.622 13.8402 151.489 13.5111 151.21 13.2414C150.89 12.9351 150.484 12.6928 150.004 12.5282C149.473 12.3454 148.705 12.1305 147.727 11.8974C146.456 11.5911 145.409 11.2802 144.623 10.9694C143.782 10.6402 143.05 10.1236 142.451 9.43792C141.825 8.72021 141.51 7.76021 141.51 6.57621C141.51 5.59335 141.775 4.69278 142.292 3.89735C142.808 3.1065 143.599 2.47107 144.632 2.00021C145.647 1.54307 146.909 1.3145 148.385 1.3145C149.409 1.3145 150.429 1.44707 151.421 1.71221C152.426 1.98192 153.304 2.37507 154.031 2.8825L154.351 3.10649L153.19 5.91792L152.696 5.60249C152.038 5.18192 151.325 4.86192 150.579 4.64707C149.83 4.43221 149.089 4.32249 148.376 4.32249C147.137 4.32249 146.209 4.54192 145.624 4.96707C145.071 5.36935 144.81 5.84935 144.81 6.48021C144.81 6.92364 144.943 7.25278 145.226 7.51792C145.556 7.82878 145.976 8.07107 146.474 8.24935C147.018 8.44135 147.773 8.64706 148.723 8.86649C150.004 9.17278 151.046 9.48821 151.823 9.7945C152.655 10.1236 153.382 10.6356 153.976 11.3076C154.602 12.0162 154.922 12.9671 154.922 14.1374C154.922 15.1065 154.653 16.0025 154.127 16.8025C153.601 17.6025 152.797 18.2425 151.745 18.6996C150.717 19.1476 149.45 19.3716 147.974 19.3716"/>
    </symbol>
    <symbol id="chevron_left" viewBox="0 0 24 24">
      <polygon points="13.5,17.5 7.9,12 13.5,6.5 14.5,7.5 10.1,12 14.5,16.5"/>
    </symbol>
    <symbol id="chevron_right" viewBox="0 0 24 24">
      <polygon points="10.5,17.5 9.5,16.5 13.9,12 9.5,7.5 10.5,6.5 16.1,12"/>
    </symbol>
    <symbol id="chevron_down" viewBox="0 0 24 24">
      <polygon points="12,15.1 6.5,9.5 7.5,8.5 12,12.9 16.5,8.5 17.5,9.5"/>
    </symbol>
    <symbol id="tg_icon" viewBox="0 0 24 24">
      <path d="M20.6646 3.717L2.93461 10.554C1.72461 11.04 1.73161 11.715 2.71261 12.016L7.26461 13.436L17.7966 6.791C18.2946 6.488 18.7496 6.651 18.3756 6.983L9.84261 14.684H9.84061L9.84261 14.685L9.52861 19.377C9.98861 19.377 10.1916 19.166 10.4496 18.917L12.6606 16.767L17.2596 20.164C18.1076 20.631 18.7166 20.391 18.9276 19.379L21.9466 5.151C22.2556 3.912 21.4736 3.351 20.6646 3.717Z"/>
    </symbol>
    <symbol id="whatsapp_icon" viewBox="0 0 24 24">
      <path fill-rule="evenodd" clip-rule="evenodd" d="M17.821 16.1211C17.58 16.8033 16.622 17.3677 15.858 17.5327C15.335 17.6437 14.653 17.7316 12.355 16.7793C9.774 15.71 6.19 11.901 6.19 9.36621C6.19 8.07582 6.934 6.57324 8.235 6.57324C8.861 6.57324 8.999 6.58545 9.205 7.07959C9.446 7.66177 10.034 9.09612 10.104 9.24316C10.393 9.84634 9.80999 10.1994 9.38699 10.7246C9.25199 10.8826 9.099 11.0536 9.27 11.3477C9.44 11.6357 10.028 12.5941 10.892 13.3633C12.008 14.3576 12.913 14.675 13.237 14.8101C13.478 14.9101 13.766 14.8868 13.942 14.6987C14.165 14.4577 14.442 14.0577 14.724 13.6636C14.923 13.3815 15.176 13.3463 15.441 13.4463C15.62 13.5083 17.895 14.5648 17.991 14.7339C18.062 14.8569 18.062 15.4389 17.821 16.1211ZM12.002 2H11.997C6.48399 2 2 6.48535 2 12C2 14.1867 2.70501 16.2153 3.90401 17.8608L2.658 21.5767L6.50101 20.3486C8.08201 21.395 9.969 22 12.002 22C17.515 22 22 17.5147 22 12C22 6.48535 17.515 2 12.002 2Z"/>
    </symbol>
    <symbol id="envelope_icon" viewBox="0 0 24 24">
      <path d="M20.668 3.18396H3.33202C1.49189 3.18396 0 4.67585 0 6.51598V17.484C0 19.3241 1.49189 20.816 3.33202 20.816H20.668C22.5081 20.816 24 19.3241 24 17.484V6.51598C24 4.67585 22.5081 3.18396 20.668 3.18396ZM8.35153 15.0806L3.68559 19.0612C3.35648 19.3421 2.86172 19.3031 2.58089 18.9736C2.30002 18.6445 2.33906 18.1497 2.66855 17.8689L7.33448 13.8883C7.66355 13.6074 8.15827 13.6465 8.43914 13.9759C8.72002 14.305 8.68097 14.7998 8.35153 15.0806ZM12 13.5673C11.3759 13.5657 10.7709 13.3584 10.298 12.9493L10.2983 12.9497L10.2968 12.9486C10.2972 12.949 10.2976 12.949 10.298 12.9493L3.13884 6.73563C2.81166 6.45166 2.77683 5.95694 3.06038 5.63018C3.3443 5.30299 3.83906 5.26816 4.16578 5.55171L11.3269 11.767C11.48 11.9032 11.7322 12.0015 12 12C12.2675 12.0008 12.5154 11.9051 12.6769 11.7643L12.6803 11.7612L19.8342 5.55176C20.1609 5.26821 20.6557 5.30304 20.9396 5.63023C21.2231 5.95694 21.1883 6.45171 20.8612 6.73568L13.7001 12.9513C13.2286 13.356 12.6245 13.5665 12 13.5673ZM21.4194 18.9736C21.1386 19.3031 20.6438 19.3421 20.3148 19.0612L15.6488 15.0806C15.3194 14.7997 15.2804 14.305 15.5612 13.9759C15.8421 13.6465 16.3368 13.6075 16.6659 13.8883L21.3318 17.8689C21.6613 18.1497 21.7003 18.6445 21.4194 18.9736Z"/>
    </symbol>
    <symbol id="phone_icon" viewBox="0 0 24 24">
      <path d="M15.9513 14.1893L15.4452 14.6954C15.4452 14.6954 14.2423 15.8985 10.959 12.6145C7.67568 9.33067 8.87855 8.12759 8.87855 8.12759L9.19721 7.80885C9.98232 7.02365 10.0563 5.76302 9.37132 4.84272L7.97028 2.96015C7.12253 1.82108 5.48439 1.67061 4.51272 2.64246L2.76872 4.38676C2.28692 4.86865 1.96405 5.49331 2.00321 6.18628C2.10338 7.95911 2.90079 11.7735 7.35039 16.2239C12.069 20.9433 16.4964 21.1308 18.307 20.961C18.8796 20.9074 19.3776 20.614 19.779 20.2126L21.3574 18.634C22.4229 17.5683 22.1224 15.7414 20.7592 14.996L18.6364 13.8352C17.7413 13.3458 16.6509 13.4896 15.9513 14.1893Z"/>
    </symbol>
    <symbol id="trash_icon" viewBox="0 0 24 24">
      <path d="M15.3,21.8H8.8c-0.7,0-1.3-0.3-1.8-0.8c-0.4-0.5-0.7-1.1-0.7-1.8L5.5,7.6H5c-0.5,0-0.8-0.4-0.8-0.8S4.5,5.9,5,5.9h1.3c0,0,0,0,0,0h1.6V4.8c0-0.7,0.2-1.3,0.7-1.8c0.5-0.5,1.1-0.8,1.8-0.8h3.3c0.7,0,1.3,0.3,1.8,0.8c0.4,0.5,0.7,1.1,0.7,1.8v1.1h1.6c0,0,0,0,0,0H19c0.5,0,0.8,0.4,0.8,0.8S19.5,7.6,19,7.6h-0.5l-0.8,11.7c0,0.6-0.2,1.3-0.7,1.8C16.6,21.5,15.9,21.8,15.3,21.8z M7.2,7.6L8,19.1c0,0.3,0.1,0.6,0.3,0.8c0.1,0.2,0.3,0.3,0.5,0.3h6.5c0.2,0,0.4-0.1,0.5-0.3c0.2-0.2,0.3-0.4,0.3-0.7l0.8-11.6H7.2z M9.6,5.9h4.9V4.8c0-0.3-0.1-0.5-0.3-0.7c-0.1-0.2-0.3-0.3-0.5-0.3h-3.3c-0.2,0-0.4,0.1-0.5,0.3C9.7,4.3,9.6,4.5,9.6,4.8V5.9z"/>
    </symbol>
    <symbol id="minus_icon" viewBox="0 0 24 24">
      <rect x="6" y="11.3" class="st0" width="12" height="1.5"/>
    </symbol>
    <symbol id="plus_icon" viewBox="0 0 24 24">
      <rect x="11.3" y="6" class="st0" width="1.5" height="12"/>
      <rect x="6" y="11.3" class="st0" width="12" height="1.5"/>
    </symbol>
    <symbol id="filter_icon" viewBox="0 0 24 24">
      <rect x="2.3" y="6.3" width="19.5" height="1.5"/>
    	<rect x="2.3" y="16.3" width="19.5" height="1.5"/>
    	<circle fill="#fff" cx="8" cy="7" r="2.3"/>
    	<path d="M8,10c-1.7,0-3-1.3-3-3s1.3-3,3-3s3,1.3,3,3S9.7,10,8,10z M8,5.5C7.2,5.5,6.5,6.2,6.5,7S7.2,8.5,8,8.5S9.5,7.8,9.5,7S8.8,5.5,8,5.5z"/>
    	<circle fill="#fff" cx="16" cy="17" r="2.3"/>
    	<path d="M16,20c-1.7,0-3-1.3-3-3s1.3-3,3-3s3,1.3,3,3S17.7,20,16,20z M16,15.5c-0.8,0-1.5,0.7-1.5,1.5s0.7,1.5,1.5,1.5s1.5-0.7,1.5-1.5S16.8,15.5,16,15.5z"/>
    </symbol>
    <symbol id="play_icon" viewBox="0 0 24 24">
      <path d="M17 12L8 18L8 6L17 12Z"/>
    </symbol>
    <symbol id="check_icon" viewBox="0 0 24 24">
      <polygon points="10.4,18.4 3.6,12 5,10.6 10.2,15.6 18.9,5.6 20.4,6.9 "/>
    </symbol>
    <symbol id="arrow_left" viewBox="0 0 24 24">
      <polygon points="10.2,20 3.2,12.5 3.8,12 3.2,11.5 10.2,4 11.3,5 5.5,11.3 20.8,11.3 20.8,12.8 5.5,12.8 11.3,19"/>
    </symbol>
    <symbol id="vk_icon" viewBox="0 0 24 24">
      <path d="M14.3,11.8c-0.4-0.2-0.4-0.7-0.4-1.1c-0.1-1.4,0.4-3.6-0.2-4.6c-0.4-0.6-2.5-0.5-3.7-0.4C9.6,5.7,9.2,5.8,8.9,5.9S8.3,6.3,8.3,6.6c0,0.3,0.8,0.3,1,0.7c0.3,0.5,0.3,1.4,0.3,2.2c0,0.9-0.2,2.2-0.5,2.2c-0.6,0-0.9-0.6-1.2-1C7.3,9.9,6.7,8.9,6.2,7.9C6,7.3,5.8,6.8,5.5,6.5C5,6.2,4.1,6.2,3.2,6.2c-0.8,0-2-0.1-2.2,0.4C0.9,7.1,1.2,7.6,1.4,8c1,2.2,2.1,4.2,3.5,6.1c1.3,1.7,2.4,3.1,4.8,3.8c0.7,0.2,3.5,0.8,4.1,0c0.2-0.3,0.2-1,0.3-1.5c0.1-0.5,0.2-1,0.7-1c0.4,0,0.6,0.3,0.9,0.6c0.3,0.3,0.5,0.5,0.7,0.8c0.5,0.5,1,1.1,1.6,1.4c0.8,0.4,2.1,0.3,3.3,0.2c1,0,1.7-0.2,1.8-0.8c0.1-0.5-0.5-1.1-0.8-1.5c-0.8-0.9-1.1-1.2-2-2.1c-0.4-0.4-0.9-0.8-0.9-1.2c0-0.3,0.2-0.5,0.4-0.8c0.9-1.3,1.8-2.2,2.6-3.6C22.6,8,23.1,7,22.9,6.6c-0.2-0.5-1.5-0.4-2.3-0.4c-1,0-2.3-0.1-2.6,0.1c-0.5,0.3-0.7,0.9-0.9,1.4c-0.5,1.2-1.2,2.3-1.9,3.2C15.1,11.2,14.6,11.9,14.3,11.8L14.3,11.8z"/>
    </symbol>
    <symbol id="yt_icon" viewBox="0 0 24 24">
      <path d="M9.8,14.8V8.7c2.2,1,3.9,2,5.9,3.1C14,12.7,12,13.7,9.8,14.8z M22,5.6c-0.4-0.5-1-0.9-1.7-1c-2-0.4-14.6-0.4-16.6,0c-0.6,0.1-1,0.4-1.5,0.7C0.4,7,1,15.8,1.4,17.2c0.2,0.6,0.4,1.1,0.7,1.4C2.5,19,3,19.2,3.6,19.4c1.7,0.3,10.2,0.5,16.6,0.1c0.6-0.1,1.1-0.4,1.5-0.8C23.4,17,23.3,7.7,22,5.6z"/>
    </symbol>
</svg>
