<svg width="1000" height="70" viewBox="0 0 1000 70" fill="none" xmlns="http://www.w3.org/2000/svg">
<path d="M12.6428 11.5511V23.1024H11.6554C7.66829 23.1024 3.15955 26.0275 1.31507 29.8096C0.178571 32.1199 -0.100896 33.3868 0.0295224 35.8647C0.178572 38.9389 1.12876 41.2678 3.15955 43.4849C5.19035 45.6833 7.72418 46.9689 10.8728 47.3601L12.6428 47.5651V58.4457C12.6428 69.1772 12.6428 69.3076 13.0154 69.3076C13.388 69.3076 13.388 69.1772 13.388 58.3339V47.3601L14.2823 47.2297C15.512 47.0434 17.5987 46.205 18.8097 45.4039C19.7599 44.7704 20.9709 43.5966 22.4428 41.8639C23.0203 41.1932 23.0576 41.1746 24.3618 41.1746H25.6846V41.9198C25.6846 42.5347 25.7405 42.6651 26.0572 42.6651C26.374 42.6651 26.4298 42.5347 26.4298 41.9198V41.1746H29.4108H32.3918V41.9198C32.3918 42.5347 32.4477 42.6651 32.7644 42.6651C33.0812 42.6651 33.1371 42.5347 33.1371 41.9198V41.1746H36.118H39.099V41.9385C39.099 42.5533 39.1549 42.6837 39.4344 42.6278C39.658 42.5906 39.7697 42.367 39.807 41.8639L39.8629 41.1746H42.7507H45.6199V49.7449V58.3152H46.0857H46.5515V49.7449V41.1746H49.4207H52.3085L52.3644 41.8639C52.4016 42.4229 52.4948 42.5719 52.7929 42.5719C53.091 42.5719 53.1842 42.4229 53.2214 41.8639L53.2773 41.1746H56.1465H59.0157L59.0716 41.8639C59.1089 42.367 59.2206 42.5906 59.4628 42.6278C59.7237 42.6837 59.7796 42.5533 59.7796 41.9385V41.1746H62.7606H65.7415V41.9198C65.7415 42.5347 65.7974 42.6651 66.1142 42.6651C66.4309 42.6651 66.4868 42.5347 66.4868 41.9198V41.1746H69.4678H72.4488V41.9385C72.4488 42.5533 72.5046 42.6837 72.7841 42.6278C73.0077 42.5906 73.1195 42.367 73.1567 41.8639L73.2126 41.1746H75.6347H78.0381V43.4103C78.0381 45.5157 78.0567 45.6461 78.4107 45.6461C78.7647 45.6461 78.7833 45.5157 78.7833 43.4103V41.1746H81.5594H84.354L84.4099 41.8639C84.4472 42.367 84.559 42.5906 84.8012 42.6278C85.062 42.6837 85.1179 42.5533 85.1179 41.9385V41.1746H88.0989H91.0799V41.9198C91.0799 42.5347 91.1358 42.6651 91.4525 42.6651C91.7692 42.6651 91.8251 42.5347 91.8251 41.9198V41.1746H94.8061H97.7871V41.9198C97.7871 42.5347 97.843 42.6651 98.1597 42.6651C98.4765 42.6651 98.5323 42.5347 98.5323 41.9198V41.1746H101.513H104.494V41.9385C104.494 42.5533 104.55 42.6837 104.83 42.6278C105.053 42.5906 105.165 42.367 105.202 41.8639L105.258 41.1746H108.146H111.015V49.7449V58.3152H111.481H111.947V49.7449V41.1746H114.816H117.704L117.76 41.8639C117.797 42.4229 117.89 42.5719 118.188 42.5719C118.486 42.5719 118.579 42.4229 118.617 41.8639L118.673 41.1746H121.542H124.411L124.467 41.8639C124.504 42.367 124.616 42.5906 124.858 42.6278C125.119 42.6837 125.175 42.5533 125.175 41.9385V41.1746H128.156H131.137V41.9198C131.137 42.5347 131.193 42.6651 131.509 42.6651C131.826 42.6651 131.882 42.5347 131.882 41.9198V41.1746H134.863H137.844V41.9198C137.844 42.5347 137.9 42.6651 138.217 42.6651C138.533 42.6651 138.589 42.5347 138.589 41.9198V41.1746H141.011H143.433V43.4103C143.433 45.5157 143.452 45.6461 143.806 45.6461C144.16 45.6461 144.179 45.5157 144.179 43.4103V41.1746H146.955H149.749L149.805 41.8639C149.842 42.367 149.954 42.5906 150.196 42.6278C150.457 42.6837 150.513 42.5533 150.513 41.9385V41.1746H153.476H156.457L156.512 41.8639C156.55 42.367 156.661 42.5906 156.904 42.6278C157.165 42.6837 157.22 42.5533 157.22 41.9385V41.1746H160.201H163.182V41.9198C163.182 42.5347 163.238 42.6651 163.555 42.6651C163.872 42.6651 163.928 42.5347 163.928 41.9198V41.1746H166.909H169.89V41.9385C169.89 42.5533 169.946 42.6837 170.225 42.6278C170.449 42.5906 170.56 42.367 170.598 41.8639L170.653 41.1746H173.541H176.411V49.7449V58.3152H176.876H177.342V49.7449V41.1746H180.211H183.099L183.155 41.8639C183.192 42.4229 183.285 42.5719 183.583 42.5719C183.882 42.5719 183.975 42.4229 184.012 41.8639L184.068 41.1746H186.937H189.806L189.862 41.8639C189.899 42.367 190.011 42.5906 190.253 42.6278C190.514 42.6837 190.57 42.5533 190.57 41.9385V41.1746H193.551H196.532V41.9198C196.532 42.5347 196.588 42.6651 196.905 42.6651C197.221 42.6651 197.277 42.5347 197.277 41.9198V41.1746H200.258H203.239V41.9198C203.239 42.5347 203.295 42.6651 203.612 42.6651C203.929 42.6651 203.985 42.5347 203.985 41.9198V41.1746H206.407H208.829V43.4103C208.829 45.5157 208.847 45.6461 209.201 45.6461C209.555 45.6461 209.574 45.5157 209.574 43.4103V41.1746H212.35H215.145L215.201 41.8639C215.238 42.4229 215.331 42.5719 215.629 42.5719C215.927 42.5719 216.02 42.4229 216.058 41.8639L216.113 41.1746H218.983H221.852L221.908 41.8639C221.945 42.367 222.057 42.5906 222.299 42.6278C222.56 42.6837 222.616 42.5533 222.616 41.9385V41.1746H225.597H228.578V41.9198C228.578 42.5347 228.634 42.6651 228.95 42.6651C229.267 42.6651 229.323 42.5347 229.323 41.9198V41.1746H232.304H235.285V41.9385C235.285 42.5533 235.341 42.6837 235.62 42.6278C235.844 42.5906 235.956 42.367 235.993 41.8639L236.049 41.1746H239.03H241.992V49.7449C241.992 58.1848 241.992 58.3152 242.365 58.3152C242.737 58.3152 242.737 58.1848 242.737 49.7449V41.1746H245.607H248.494L248.55 41.8639C248.588 42.4229 248.681 42.5719 248.979 42.5719C249.277 42.5719 249.37 42.4229 249.407 41.8639L249.463 41.1746H252.332H255.202L255.257 41.8639C255.295 42.367 255.407 42.5906 255.649 42.6278C255.91 42.6837 255.965 42.5533 255.965 41.9385V41.1746H258.946H261.927V41.9198C261.927 42.5347 261.983 42.6651 262.3 42.6651C262.617 42.6651 262.673 42.5347 262.673 41.9198V41.1746H265.654H268.635V41.9198C268.635 42.5347 268.691 42.6651 269.007 42.6651C269.324 42.6651 269.38 42.5347 269.38 41.9198V41.1746H271.802H274.224V43.4103C274.224 45.5157 274.243 45.6461 274.597 45.6461C274.951 45.6461 274.969 45.5157 274.969 43.4103V41.1746H277.745H280.54L280.596 41.8639C280.633 42.4229 280.726 42.5719 281.024 42.5719C281.322 42.5719 281.416 42.4229 281.453 41.8639L281.509 41.1746H284.378H287.247L287.303 41.8639C287.34 42.367 287.452 42.5906 287.694 42.6278C287.955 42.6837 288.011 42.5533 288.011 41.9385V41.1746H290.992H293.973V41.9198C293.973 42.5347 294.029 42.6651 294.346 42.6651C294.662 42.6651 294.718 42.5347 294.718 41.9198V41.1746H297.699H300.68V41.9198C300.68 42.5347 300.736 42.6651 301.053 42.6651C301.37 42.6651 301.425 42.5347 301.425 41.9198V41.1746H304.406H307.387V49.7449C307.387 58.1848 307.387 58.3152 307.76 58.3152C308.133 58.3152 308.133 58.1848 308.133 49.7449V41.1746H311.002H313.89L313.946 41.8639C313.983 42.4229 314.076 42.5719 314.374 42.5719C314.672 42.5719 314.765 42.4229 314.803 41.8639L314.858 41.1746H317.728H320.597L320.653 41.8639C320.69 42.367 320.802 42.5906 321.044 42.6278C321.305 42.6837 321.361 42.5533 321.361 41.9385V41.1746H324.323H327.304L327.36 41.8639C327.397 42.367 327.509 42.5906 327.751 42.6278C328.012 42.6837 328.068 42.5533 328.068 41.9385V41.1746H331.049H334.03V41.9198C334.03 42.5347 334.086 42.6651 334.403 42.6651C334.719 42.6651 334.775 42.5347 334.775 41.9198V41.1746H337.197H339.619V43.4103C339.619 45.5157 339.638 45.6461 339.992 45.6461C340.346 45.6461 340.365 45.5157 340.365 43.4103V41.1746H343.141H345.935L345.991 41.8639C346.028 42.4229 346.122 42.5719 346.42 42.5719C346.718 42.5719 346.811 42.4229 346.848 41.8639L346.904 41.1746H349.773H352.642L352.698 41.8639C352.736 42.367 352.847 42.5906 353.09 42.6278C353.35 42.6837 353.406 42.5533 353.406 41.9385V41.1746H356.387H359.368V41.9198C359.368 42.5347 359.424 42.6651 359.741 42.6651C360.058 42.6651 360.114 42.5347 360.114 41.9198V41.1746H363.094H366.075V41.9198C366.075 42.5347 366.131 42.6651 366.448 42.6651C366.765 42.6651 366.821 42.5347 366.821 41.9198V41.1746H369.802H372.783V49.7449C372.783 58.1848 372.783 58.3152 373.155 58.3152C373.528 58.3152 373.528 58.1848 373.528 49.7449V41.1746H376.397H379.285L379.341 41.8639C379.378 42.4229 379.471 42.5719 379.769 42.5719C380.067 42.5719 380.161 42.4229 380.198 41.8639L380.254 41.1746H383.123H385.992L386.048 41.8639C386.085 42.4229 386.178 42.5719 386.477 42.5719C386.775 42.5719 386.868 42.4229 386.905 41.8639L386.961 41.1746H389.83H392.699L392.755 41.8639C392.793 42.367 392.904 42.5906 393.147 42.6278C393.407 42.6837 393.463 42.5533 393.463 41.9385V41.1746H396.444H399.425V41.9198C399.425 42.5347 399.481 42.6651 399.798 42.6651C400.115 42.6651 400.17 42.5347 400.17 41.9198V41.1746H402.592H405.015V43.4103C405.015 45.5157 405.033 45.6461 405.387 45.6461C405.741 45.6461 405.76 45.5157 405.76 43.4103V41.1746H408.536H411.331L411.386 41.8639C411.424 42.4229 411.517 42.5719 411.815 42.5719C412.113 42.5719 412.206 42.4229 412.243 41.8639L412.299 41.1746H415.169H418.038L418.094 41.8639C418.131 42.367 418.243 42.5906 418.485 42.6278C418.746 42.6837 418.802 42.5533 418.802 41.9385V41.1746H421.783H424.764V41.9198C424.764 42.5347 424.819 42.6651 425.136 42.6651C425.453 42.6651 425.509 42.5347 425.509 41.9198V41.1746H428.49H431.471V41.9198C431.471 42.5347 431.527 42.6651 431.843 42.6651C432.16 42.6651 432.216 42.5347 432.216 41.9198V41.1746H435.197H438.178V49.7449C438.178 58.1848 438.178 58.3152 438.551 58.3152C438.923 58.3152 438.923 58.1848 438.923 49.7449V41.1746H441.792H444.68L444.736 41.8639C444.773 42.4229 444.867 42.5719 445.165 42.5719C445.463 42.5719 445.556 42.4229 445.593 41.8639L445.649 41.1746H448.518H451.387L451.443 41.8639C451.481 42.4229 451.574 42.5719 451.872 42.5719C452.17 42.5719 452.263 42.4229 452.3 41.8639L452.356 41.1746H455.225H458.095L458.151 41.8639C458.188 42.367 458.3 42.5906 458.542 42.6278C458.803 42.6837 458.859 42.5533 458.859 41.9385V41.1746H461.84H464.82V41.9198C464.82 42.5347 464.876 42.6651 465.193 42.6651C465.51 42.6651 465.566 42.5347 465.566 41.9198V41.1746H467.988H470.41V43.4103C470.41 45.5157 470.428 45.6461 470.782 45.6461C471.136 45.6461 471.155 45.5157 471.155 43.4103V41.1746H473.931H476.726L476.782 41.8639C476.819 42.4229 476.912 42.5719 477.21 42.5719C477.508 42.5719 477.601 42.4229 477.639 41.8639L477.695 41.1746H480.564H483.433L483.489 41.8639C483.526 42.367 483.638 42.5906 483.88 42.6278C484.141 42.6837 484.197 42.5533 484.197 41.9385V41.1746H487.159H490.14L490.196 41.8639C490.233 42.367 490.345 42.5906 490.587 42.6278C490.848 42.6837 490.904 42.5533 490.904 41.9385V41.1746H493.885H496.866V41.9198C496.866 42.5347 496.922 42.6651 497.239 42.6651C497.555 42.6651 497.611 42.5347 497.611 41.9198V41.1746H500.592H503.573V55.2411C503.573 69.1772 503.573 69.3076 503.946 69.3076C504.319 69.3076 504.319 69.1772 504.319 55.2411V41.1746H507.188H510.076L510.131 41.8639C510.169 42.4229 510.262 42.5719 510.56 42.5719C510.858 42.5719 510.951 42.4229 510.988 41.8639L511.044 41.1746H513.914H516.783L516.839 41.8639C516.876 42.4229 516.969 42.5719 517.267 42.5719C517.565 42.5719 517.658 42.4229 517.696 41.8639L517.752 41.1746H520.621H523.49L523.546 41.8639C523.583 42.367 523.695 42.5906 523.937 42.6278C524.198 42.6837 524.254 42.5533 524.254 41.9385V41.1746H527.235H530.216V41.9198C530.216 42.5347 530.272 42.6651 530.588 42.6651C530.905 42.6651 530.961 42.5347 530.961 41.9198V41.1746H533.383H535.786L535.842 43.3544C535.898 45.2734 535.936 45.5529 536.234 45.6088C536.513 45.6647 536.55 45.4598 536.55 43.429V41.1746H539.326H542.121L542.177 41.8639C542.214 42.4229 542.307 42.5719 542.606 42.5719C542.904 42.5719 542.997 42.4229 543.034 41.8639L543.09 41.1746H545.959H548.828L548.884 41.8639C548.921 42.4229 549.015 42.5719 549.313 42.5719C549.611 42.5719 549.704 42.4229 549.741 41.8639L549.797 41.1746H552.666H555.536L555.591 41.8639C555.629 42.367 555.74 42.5906 555.983 42.6278C556.244 42.6837 556.299 42.5533 556.299 41.9385V41.1746H559.28H562.261V41.9198C562.261 42.5347 562.317 42.6651 562.634 42.6651C562.951 42.6651 563.007 42.5347 563.007 41.9198V41.1746H565.988H568.969V49.7449C568.969 58.1848 568.969 58.3152 569.341 58.3152C569.714 58.3152 569.714 58.1848 569.714 49.7449V41.1746H572.695H575.676V41.9385C575.676 42.5533 575.732 42.6837 576.011 42.6278C576.235 42.5906 576.346 42.367 576.384 41.8639L576.44 41.1746H579.309H582.178L582.234 41.8639C582.271 42.4229 582.364 42.5719 582.662 42.5719C582.961 42.5719 583.054 42.4229 583.091 41.8639L583.147 41.1746H586.016H588.885L588.941 41.8639C588.978 42.367 589.09 42.5906 589.332 42.6278C589.593 42.6837 589.649 42.5533 589.649 41.9385V41.1746H592.63H595.611V41.9198C595.611 42.5347 595.667 42.6651 595.984 42.6651C596.3 42.6651 596.356 42.5347 596.356 41.9198V41.1746H598.778H601.182L601.238 43.3544C601.294 45.2734 601.331 45.5529 601.629 45.6088C601.908 45.6647 601.946 45.4598 601.946 43.429V41.1746H604.722H607.516L607.572 41.8639C607.61 42.4229 607.703 42.5719 608.001 42.5719C608.299 42.5719 608.392 42.4229 608.429 41.8639L608.485 41.1746H611.354H614.224L614.28 41.8639C614.317 42.4229 614.41 42.5719 614.708 42.5719C615.006 42.5719 615.099 42.4229 615.137 41.8639L615.192 41.1746H618.062H620.931L620.987 41.8639C621.024 42.367 621.136 42.5906 621.378 42.6278C621.639 42.6837 621.695 42.5533 621.695 41.9385V41.1746H624.676H627.657V41.9198C627.657 42.5347 627.713 42.6651 628.029 42.6651C628.346 42.6651 628.402 42.5347 628.402 41.9198V41.1746H631.383H634.364V49.7449C634.364 58.1848 634.364 58.3152 634.737 58.3152C635.109 58.3152 635.109 58.1848 635.109 49.7449V41.1746H638.09H641.071V41.9385C641.071 42.5533 641.127 42.6837 641.406 42.6278C641.63 42.5906 641.742 42.367 641.779 41.8639L641.835 41.1746H644.704H647.573L647.629 41.8639C647.667 42.4229 647.76 42.5719 648.058 42.5719C648.356 42.5719 648.449 42.4229 648.486 41.8639L648.542 41.1746H651.411H654.281L654.336 41.8639C654.374 42.367 654.486 42.5906 654.728 42.6278C654.989 42.6837 655.044 42.5533 655.044 41.9385V41.1746H658.007H660.988L661.044 41.8639C661.081 42.367 661.193 42.5906 661.435 42.6278C661.696 42.6837 661.752 42.5533 661.752 41.9385V41.1746H664.174H666.577L666.633 43.3544C666.689 45.2734 666.726 45.5529 667.024 45.6088C667.304 45.6647 667.341 45.4598 667.341 43.429V41.1746H670.117H672.912L672.968 41.8639C673.005 42.4229 673.098 42.5719 673.396 42.5719C673.694 42.5719 673.787 42.4229 673.825 41.8639L673.881 41.1746H676.75H679.619L679.675 41.8639C679.712 42.4229 679.805 42.5719 680.103 42.5719C680.401 42.5719 680.495 42.4229 680.532 41.8639L680.588 41.1746H683.457H686.326L686.382 41.8639C686.419 42.367 686.531 42.5906 686.773 42.6278C687.034 42.6837 687.09 42.5533 687.09 41.9385V41.1746H690.071H693.052V41.9198C693.052 42.5347 693.108 42.6651 693.425 42.6651C693.741 42.6651 693.797 42.5347 693.797 41.9198V41.1746H696.778H699.759V49.7449C699.759 58.1848 699.759 58.3152 700.132 58.3152C700.504 58.3152 700.504 58.1848 700.504 49.7449V41.1746H703.485H706.466V41.9385C706.466 42.5533 706.522 42.6837 706.802 42.6278C707.025 42.5906 707.137 42.367 707.174 41.8639L707.23 41.1746H710.099H712.969L713.025 41.8639C713.062 42.4229 713.155 42.5719 713.453 42.5719C713.751 42.5719 713.844 42.4229 713.882 41.8639L713.938 41.1746H716.807H719.676L719.732 41.8639C719.769 42.4229 719.862 42.5719 720.16 42.5719C720.458 42.5719 720.552 42.4229 720.589 41.8639L720.645 41.1746H723.514H726.383L726.439 41.8639C726.476 42.367 726.588 42.5906 726.83 42.6278C727.091 42.6837 727.147 42.5533 727.147 41.9385V41.1746H729.569H731.972L732.028 43.3544C732.084 45.2734 732.121 45.5529 732.42 45.6088C732.699 45.6647 732.736 45.4598 732.736 43.429V41.1746H735.624H738.512V41.9385C738.512 42.5533 738.568 42.6837 738.847 42.6278C739.071 42.5906 739.183 42.367 739.22 41.8639L739.276 41.1746H742.145H745.014L745.07 41.8639C745.107 42.4229 745.201 42.5719 745.499 42.5719C745.797 42.5719 745.89 42.4229 745.927 41.8639L745.983 41.1746H748.852H751.721L751.777 41.8639C751.815 42.367 751.926 42.5906 752.169 42.6278C752.429 42.6837 752.485 42.5533 752.485 41.9385V41.1746H755.466H758.447V41.9198C758.447 42.5347 758.503 42.6651 758.82 42.6651C759.137 42.6651 759.193 42.5347 759.193 41.9198V41.1746H762.174H765.154V49.7449C765.154 58.1848 765.154 58.3152 765.527 58.3152C765.9 58.3152 765.9 58.1848 765.9 49.7449V41.1746H768.881H771.862V41.9385C771.862 42.5533 771.918 42.6837 772.197 42.6278C772.421 42.5906 772.532 42.367 772.57 41.8639L772.626 41.1746H775.495H778.364L778.42 41.8639C778.457 42.4229 778.55 42.5719 778.848 42.5719C779.146 42.5719 779.24 42.4229 779.277 41.8639L779.333 41.1746H782.202H785.071L785.127 41.8639C785.164 42.4229 785.258 42.5719 785.556 42.5719C785.854 42.5719 785.947 42.4229 785.984 41.8639L786.04 41.1746H788.909H791.778L791.834 41.8639C791.872 42.367 791.983 42.5906 792.226 42.6278C792.486 42.6837 792.542 42.5533 792.542 41.9385V41.1746H794.964H797.368L797.424 43.3544C797.479 45.2734 797.517 45.5529 797.815 45.6088C798.094 45.6647 798.132 45.4598 798.132 43.429V41.1746H801.019H803.907V41.9385C803.907 42.5533 803.963 42.6837 804.243 42.6278C804.466 42.5906 804.578 42.367 804.615 41.8639L804.671 41.1746H807.54H810.41L810.465 41.8639C810.503 42.4229 810.596 42.5719 810.894 42.5719C811.192 42.5719 811.285 42.4229 811.322 41.8639L811.378 41.1746H814.248H817.117L817.173 41.8639C817.21 42.4229 817.303 42.5719 817.601 42.5719C817.899 42.5719 817.992 42.4229 818.03 41.8639L818.086 41.1746H820.955H823.824L823.88 41.8639C823.917 42.367 824.029 42.5906 824.271 42.6278C824.532 42.6837 824.588 42.5533 824.588 41.9385V41.1746H827.569H830.55V49.7449C830.55 58.1848 830.55 58.3152 830.922 58.3152C831.295 58.3152 831.295 58.1848 831.295 49.7449V41.1746H834.276H837.257V41.9385C837.257 42.5533 837.313 42.6837 837.592 42.6278C837.816 42.5906 837.928 42.367 837.965 41.8639L838.021 41.1746H840.89H843.759L843.815 41.8639C843.852 42.4229 843.946 42.5719 844.244 42.5719C844.542 42.5719 844.635 42.4229 844.672 41.8639L844.728 41.1746H847.597H850.466L850.522 41.8639C850.56 42.4229 850.653 42.5719 850.951 42.5719C851.249 42.5719 851.342 42.4229 851.379 41.8639L851.435 41.1746H854.305H857.174L857.23 41.8639C857.267 42.367 857.379 42.5906 857.621 42.6278C857.882 42.6837 857.938 42.5533 857.938 41.9385V41.1746H860.36H862.763L862.819 43.3544C862.875 45.4039 862.893 45.5529 863.247 45.5529C863.601 45.5529 863.62 45.4039 863.676 43.3544L863.732 41.1746H866.508H869.303V41.9385C869.303 42.5533 869.358 42.6837 869.638 42.6278C869.862 42.5906 869.973 42.367 870.011 41.8639L870.066 41.1746H872.936H875.805L875.861 41.8639C875.898 42.4229 875.991 42.5719 876.289 42.5719C876.587 42.5719 876.68 42.4229 876.718 41.8639L876.774 41.1746H879.643H882.512L882.568 41.8639C882.605 42.4229 882.698 42.5719 882.996 42.5719C883.295 42.5719 883.388 42.4229 883.425 41.8639L883.481 41.1746H886.35H889.219L889.275 41.8639C889.312 42.367 889.424 42.5906 889.666 42.6278C889.927 42.6837 889.983 42.5533 889.983 41.9385V41.1746H892.964H895.945V49.7449C895.945 58.1848 895.945 58.3152 896.318 58.3152C896.69 58.3152 896.69 58.1848 896.69 49.7449V41.1746H899.671H902.652V41.9198C902.652 42.5347 902.708 42.6651 903.025 42.6651C903.342 42.6651 903.398 42.5347 903.398 41.9198V41.1746H906.379H909.359V41.9385C909.359 42.5533 909.415 42.6837 909.695 42.6278C909.918 42.5906 910.03 42.367 910.068 41.8639L910.123 41.1746H912.993H915.862L915.918 41.8639C915.955 42.4229 916.048 42.5719 916.346 42.5719C916.644 42.5719 916.737 42.4229 916.775 41.8639L916.831 41.1746H919.7H922.569L922.625 41.8639C922.662 42.367 922.774 42.5906 923.016 42.6278C923.277 42.6837 923.333 42.5533 923.333 41.9385V41.1746H925.755H928.158L928.214 43.3544C928.27 45.4039 928.289 45.5529 928.643 45.5529C928.997 45.5529 929.015 45.4039 929.071 43.3544L929.127 41.1746H931.903H934.698V41.9385C934.698 42.5533 934.754 42.6837 935.033 42.6278C935.257 42.5906 935.369 42.367 935.406 41.8639L935.462 41.1746H938.331H941.2L941.256 41.8639C941.293 42.4229 941.386 42.5719 941.685 42.5719C941.983 42.5719 942.076 42.4229 942.113 41.8826L942.169 41.1746H945.038H947.907L947.963 41.8639C948 42.4229 948.094 42.5719 948.392 42.5719C948.69 42.5719 948.783 42.4229 948.82 41.8826L948.876 41.1746H951.745H954.615L954.67 41.8639C954.708 42.367 954.819 42.5906 955.062 42.6278C955.323 42.6837 955.378 42.5533 955.378 41.9385V41.1746H958.359H961.34V49.7449C961.34 58.1848 961.34 58.3152 961.713 58.3152C962.086 58.3152 962.086 58.1848 962.086 49.7449V41.1746H965.067H968.048V41.9198C968.048 42.5347 968.103 42.6651 968.42 42.6651C968.737 42.6651 968.793 42.5347 968.793 41.9198V41.1746H971.774H974.755V41.9385C974.755 42.5533 974.811 42.6837 975.09 42.6278C975.314 42.5906 975.426 42.367 975.463 41.8639L975.519 41.1746H978.388H981.257L981.313 41.8639C981.35 42.4229 981.443 42.5719 981.741 42.5719C982.04 42.5719 982.133 42.4229 982.17 41.8639L982.226 41.1746H985.095H987.964L988.02 41.8639C988.057 42.4229 988.151 42.5719 988.449 42.5719C988.747 42.5719 988.84 42.4229 988.877 41.8639L988.933 41.1746H991.262H993.572V55.2411V69.3076H994.038H994.504V55.2784V41.2305L995.473 41.0069C997.261 40.597 998.659 39.4978 999.571 37.7651C999.925 37.113 1000 36.6845 1000 35.3058C1000 33.8526 999.925 33.4986 999.497 32.6974C998.621 31.0393 996.944 29.7723 995.268 29.5115L994.504 29.3811V14.6997V-0.000221252H994.038H993.572V14.7184V29.437H991.243H988.933L988.877 28.2632C988.821 27.2199 988.784 27.1081 988.411 27.0522C988.002 26.9963 987.983 27.0522 987.983 28.2073V29.437H985.095H982.207V28.2073C982.207 27.0522 982.189 26.9963 981.797 27.0522C981.406 27.1081 981.369 27.2199 981.313 28.2632L981.257 29.437H978.388H975.5V28.226C975.5 27.1453 975.463 27.0149 975.127 27.0149C974.829 27.0149 974.773 27.164 974.718 28.1701L974.662 29.3438L971.737 29.3997L968.793 29.4556V28.226C968.793 27.1453 968.756 27.0149 968.42 27.0149C968.122 27.0149 968.066 27.164 968.01 28.1701L967.954 29.3438H965.067H962.179L962.123 23.8849C962.086 18.5937 962.067 18.4446 961.713 18.4446C961.34 18.4446 961.34 18.575 961.34 23.9408V29.4556L958.415 29.3997L955.472 29.3438L955.416 28.1701C955.36 27.164 955.304 27.0149 955.006 27.0149C954.67 27.0149 954.633 27.1453 954.633 28.226V29.437H951.745H948.876L948.82 28.2632C948.764 27.2199 948.727 27.1081 948.354 27.0522C947.945 26.9963 947.926 27.0522 947.926 28.2073V29.437H945.038H942.15V28.2073C942.15 27.0522 942.132 26.9963 941.74 27.0522C941.349 27.1081 941.312 27.2199 941.256 28.2632L941.2 29.437H938.331H935.443V28.226C935.443 27.1453 935.406 27.0149 935.07 27.0149C934.772 27.0149 934.716 27.164 934.661 28.1701L934.605 29.3438L931.866 29.3997L929.109 29.4556V21.053V12.669H928.643H928.177V21.053V29.4556L925.811 29.3997L923.426 29.3438L923.37 28.1701C923.314 27.164 923.258 27.0149 922.96 27.0149C922.625 27.0149 922.588 27.1453 922.588 28.226V29.437H919.7H916.812V28.226C916.812 27.0522 916.793 27.0149 916.346 27.0149C915.899 27.0149 915.88 27.0522 915.88 28.226V29.437H912.993H910.105V28.226C910.105 27.1453 910.068 27.0149 909.732 27.0149C909.434 27.0149 909.378 27.164 909.322 28.1701L909.266 29.3438L906.341 29.3997L903.398 29.4556V28.226C903.398 27.1453 903.36 27.0149 903.025 27.0149C902.727 27.0149 902.671 27.164 902.615 28.1701L902.559 29.3438L899.634 29.3997L896.69 29.4556V23.9408C896.69 18.575 896.69 18.4446 896.318 18.4446C895.945 18.4446 895.945 18.575 895.945 23.9408V29.4556L893.02 29.3997L890.076 29.3438L890.02 28.1701C889.964 27.164 889.909 27.0149 889.61 27.0149C889.275 27.0149 889.238 27.1453 889.238 28.226V29.437H886.35H883.481L883.425 28.2632C883.369 27.2199 883.332 27.1081 882.959 27.0522C882.549 26.9963 882.531 27.0522 882.531 28.2073V29.437H879.643H876.755V28.2073C876.755 27.0522 876.736 26.9963 876.345 27.0522C875.954 27.1081 875.917 27.2199 875.861 28.2632L875.805 29.437H872.936H870.048V28.226C870.048 27.1453 870.011 27.0149 869.675 27.0149C869.377 27.0149 869.321 27.164 869.265 28.1701L869.209 29.3438L866.471 29.3997L863.713 29.4556V21.053V12.669H863.247H862.782V21.053V29.4556L860.415 29.3997L858.031 29.3438L857.975 28.1701C857.919 27.164 857.863 27.0149 857.565 27.0149C857.23 27.0149 857.192 27.1453 857.192 28.226V29.437H854.305H851.435L851.379 28.2632C851.323 27.2199 851.286 27.1081 850.914 27.0522C850.504 26.9963 850.485 27.0522 850.485 28.2073V29.437H847.597H844.709V28.2073C844.709 27.0522 844.691 26.9963 844.3 27.0522C843.908 27.1081 843.871 27.2199 843.815 28.2632L843.759 29.437H840.89H838.002V28.226C838.002 27.1453 837.965 27.0149 837.63 27.0149C837.332 27.0149 837.276 27.164 837.22 28.1701L837.164 29.3438L834.239 29.3997L831.295 29.4556V23.9408C831.295 18.575 831.295 18.4446 830.922 18.4446C830.55 18.4446 830.55 18.575 830.55 23.9408V29.4556L827.625 29.3997L824.681 29.3438L824.625 28.1701C824.569 27.164 824.513 27.0149 824.215 27.0149C823.88 27.0149 823.843 27.1453 823.843 28.226V29.437H820.955H818.086L818.03 28.2632C817.974 27.2199 817.937 27.1081 817.564 27.0522C817.154 26.9963 817.135 27.0522 817.135 28.2073V29.437H814.248H811.36V28.2073C811.36 27.0522 811.341 26.9963 810.95 27.0522C810.559 27.1081 810.521 27.2199 810.465 28.2632L810.41 29.437H807.54H804.653V28.226C804.653 27.1453 804.615 27.0149 804.28 27.0149C803.982 27.0149 803.926 27.164 803.87 28.1701L803.814 29.3438H801.019H798.225L798.169 20.9971C798.132 12.818 798.113 12.669 797.759 12.669C797.386 12.669 797.386 12.7994 797.386 21.053V29.4556L795.02 29.3997L792.635 29.3438L792.58 28.1701C792.524 27.164 792.468 27.0149 792.17 27.0149C791.834 27.0149 791.797 27.1453 791.797 28.226V29.437H788.909H786.04L785.984 28.2632C785.928 27.2199 785.891 27.1081 785.518 27.0522C785.108 26.9963 785.09 27.0522 785.09 28.2073V29.437H782.202H779.314V28.2073C779.314 27.0522 779.296 26.9963 778.904 27.0522C778.513 27.1081 778.476 27.2199 778.42 28.2632L778.364 29.437H775.495H772.607V28.226C772.607 27.1453 772.57 27.0149 772.234 27.0149C771.936 27.0149 771.88 27.164 771.824 28.1701L771.769 29.3438L768.843 29.3997L765.9 29.4556V23.9408C765.9 18.575 765.9 18.4446 765.527 18.4446C765.154 18.4446 765.154 18.575 765.154 23.9408V29.4556L762.229 29.3997L759.286 29.3438L759.23 28.1701C759.174 27.164 759.118 27.0149 758.82 27.0149C758.485 27.0149 758.447 27.1453 758.447 28.226V29.4556L755.522 29.3997L752.578 29.3438L752.523 28.1701C752.467 27.164 752.411 27.0149 752.113 27.0149C751.777 27.0149 751.74 27.1453 751.74 28.226V29.437H748.852H745.964V28.226C745.964 27.0522 745.946 27.0149 745.499 27.0149C745.052 27.0149 745.033 27.0522 745.033 28.226V29.437H742.145H739.257V28.226C739.257 27.1453 739.22 27.0149 738.885 27.0149C738.586 27.0149 738.531 27.164 738.475 28.1701L738.419 29.3438H735.624H732.829L732.774 20.9971C732.736 12.818 732.718 12.669 732.364 12.669C731.991 12.669 731.991 12.7994 731.991 21.053V29.4556L729.625 29.3997L727.24 29.3438L727.184 28.1701C727.128 27.164 727.072 27.0149 726.774 27.0149C726.439 27.0149 726.402 27.1453 726.402 28.226V29.437H723.514H720.645L720.589 28.2632C720.533 27.2199 720.496 27.1081 720.123 27.0522C719.713 26.9963 719.695 27.0522 719.695 28.2073V29.437H716.807H713.919V28.2073C713.919 27.0522 713.9 26.9963 713.509 27.0522C713.118 27.1081 713.08 27.2199 713.025 28.2632L712.969 29.437H710.099H707.212V28.226C707.212 27.1453 707.174 27.0149 706.839 27.0149C706.541 27.0149 706.485 27.164 706.429 28.1701L706.373 29.3438L703.448 29.3997L700.504 29.4556V23.9408C700.504 18.575 700.504 18.4446 700.132 18.4446C699.778 18.4446 699.759 18.5937 699.722 23.8849L699.666 29.3438H696.778H693.89L693.834 28.1701C693.779 27.164 693.723 27.0149 693.425 27.0149C693.089 27.0149 693.052 27.1453 693.052 28.226V29.4556L690.127 29.3997L687.183 29.3438L687.127 28.1701C687.071 27.164 687.016 27.0149 686.717 27.0149C686.382 27.0149 686.345 27.1453 686.345 28.226V29.437H683.457H680.588L680.532 28.2632C680.476 27.2199 680.439 27.1081 680.066 27.0522C679.656 26.9963 679.638 27.0522 679.638 28.2073V29.437H676.75H673.862V28.2073C673.862 27.0522 673.843 26.9963 673.452 27.0522C673.061 27.1081 673.023 27.2199 672.968 28.2818L672.912 29.4556L670.173 29.3997L667.434 29.3438L667.378 20.9971C667.341 12.818 667.322 12.669 666.968 12.669C666.596 12.669 666.596 12.7994 666.596 21.053V29.4556L664.23 29.3997L661.845 29.3438L661.789 28.1701C661.733 27.164 661.677 27.0149 661.379 27.0149C661.044 27.0149 661.006 27.1453 661.006 28.226V29.4556L658.081 29.3997L655.138 29.3438L655.082 28.1701C655.026 27.164 654.97 27.0149 654.672 27.0149C654.336 27.0149 654.299 27.1453 654.299 28.226V29.437H651.411H648.524V28.2073C648.524 27.0522 648.505 26.9963 648.114 27.0522C647.722 27.1081 647.685 27.2199 647.629 28.2632L647.573 29.437H644.704H641.816V28.226C641.816 27.1453 641.779 27.0149 641.444 27.0149C641.146 27.0149 641.09 27.164 641.034 28.1701L640.978 29.3438L638.053 29.3997L635.109 29.4556V23.9408C635.109 18.575 635.109 18.4446 634.737 18.4446C634.383 18.4446 634.364 18.5937 634.327 23.8849L634.271 29.3438H631.383H628.495L628.439 28.1701C628.383 27.164 628.327 27.0149 628.029 27.0149C627.694 27.0149 627.657 27.1453 627.657 28.226V29.4556L624.732 29.3997L621.788 29.3438L621.732 28.1701C621.676 27.164 621.62 27.0149 621.322 27.0149C620.987 27.0149 620.949 27.1453 620.949 28.226V29.437H618.062H615.192L615.137 28.2632C615.081 27.2199 615.043 27.1081 614.671 27.0522C614.261 26.9963 614.242 27.0522 614.242 28.2073V29.437H611.354H608.467V28.2073C608.467 27.0522 608.448 26.9963 608.057 27.0522C607.665 27.1081 607.628 27.2199 607.572 28.2818L607.516 29.4556L604.778 29.3997L602.039 29.3438L601.983 20.9971C601.946 12.818 601.927 12.669 601.573 12.669C601.2 12.669 601.2 12.7994 601.2 21.053V29.4556L598.834 29.3997L596.45 29.3438L596.394 28.1701C596.338 27.164 596.282 27.0149 595.984 27.0149C595.648 27.0149 595.611 27.1453 595.611 28.226V29.4556L592.686 29.3997L589.742 29.3438L589.686 28.1701C589.63 27.164 589.575 27.0149 589.276 27.0149C588.941 27.0149 588.904 27.1453 588.904 28.226V29.437H586.016H583.128V28.226C583.128 27.0522 583.11 27.0149 582.662 27.0149C582.215 27.0149 582.197 27.0522 582.197 28.226V29.437H579.309H576.421V28.226C576.421 27.1453 576.384 27.0149 576.048 27.0149C575.75 27.0149 575.694 27.164 575.638 28.1701L575.583 29.3438L572.658 29.3997L569.714 29.4556V23.9408C569.714 18.575 569.714 18.4446 569.341 18.4446C568.987 18.4446 568.969 18.5937 568.931 23.8849L568.875 29.3438L565.932 29.3997L563.007 29.4556V28.226C563.007 27.1453 562.969 27.0149 562.634 27.0149C562.299 27.0149 562.261 27.1453 562.261 28.226V29.4556L559.336 29.3997L556.393 29.3438L556.337 28.1701C556.281 27.164 556.225 27.0149 555.927 27.0149C555.591 27.0149 555.554 27.1453 555.554 28.226V29.437H552.666H549.797L549.741 28.2632C549.685 27.2199 549.648 27.1081 549.275 27.0522C548.866 26.9963 548.847 27.0522 548.847 28.2073V29.437H545.959H543.071V28.2073C543.071 27.0522 543.053 26.9963 542.661 27.0522C542.27 27.1081 542.233 27.2199 542.177 28.2818L542.121 29.4556L539.382 29.3997L536.644 29.3438L536.588 20.9971C536.55 12.818 536.532 12.669 536.178 12.669C535.805 12.669 535.805 12.7994 535.805 21.053V29.4556L533.439 29.3997L531.054 29.3438L530.998 28.1701C530.942 27.164 530.887 27.0149 530.588 27.0149C530.253 27.0149 530.216 27.1453 530.216 28.226V29.4556L527.291 29.3997L524.347 29.3438L524.291 28.1701C524.235 27.164 524.179 27.0149 523.881 27.0149C523.546 27.0149 523.509 27.1453 523.509 28.226V29.437H520.621H517.752L517.696 28.2632C517.64 27.2199 517.603 27.1081 517.23 27.0522C516.82 26.9963 516.801 27.0522 516.801 28.2073V29.437H513.914H511.026V28.2073C511.026 27.0522 511.007 26.9963 510.616 27.0522C510.225 27.1081 510.187 27.2199 510.131 28.2632L510.076 29.437H507.206H504.319V14.7184C504.319 0.130196 504.319 -0.000221252 503.946 -0.000221252C503.573 -0.000221252 503.573 0.148827 503.536 14.6625L503.48 29.3438L500.555 29.3997L497.611 29.4556V28.226C497.611 27.1453 497.574 27.0149 497.239 27.0149C496.903 27.0149 496.866 27.1453 496.866 28.226V29.4556L493.941 29.3997L490.997 29.3438L490.941 28.1701C490.885 27.164 490.83 27.0149 490.531 27.0149C490.196 27.0149 490.159 27.1453 490.159 28.226V29.4556L487.234 29.3997L484.29 29.3438L484.234 28.1701C484.178 27.164 484.122 27.0149 483.824 27.0149C483.489 27.0149 483.452 27.1453 483.452 28.226V29.437H480.564H477.676V28.2073C477.676 27.0522 477.657 26.9963 477.266 27.0522C476.875 27.1081 476.838 27.2199 476.782 28.2818L476.726 29.4556L473.987 29.3997L471.248 29.3438L471.192 20.9971C471.155 12.818 471.136 12.669 470.782 12.669C470.41 12.669 470.41 12.7994 470.41 21.053V29.4556L468.044 29.3997L465.659 29.3438L465.603 28.1701C465.547 27.164 465.491 27.0149 465.193 27.0149C464.858 27.0149 464.82 27.1453 464.82 28.226V29.4556L461.895 29.3997L458.952 29.3438L458.896 28.1701C458.84 27.164 458.784 27.0149 458.486 27.0149C458.151 27.0149 458.113 27.1453 458.113 28.226V29.437H455.225H452.356L452.3 28.2632C452.244 27.2199 452.207 27.1081 451.835 27.0522C451.425 26.9963 451.406 27.0522 451.406 28.2073V29.437H448.518H445.63V28.2073C445.63 27.0522 445.612 26.9963 445.221 27.0522C444.829 27.1081 444.792 27.2199 444.736 28.2632L444.68 29.437H441.811H438.923V23.9408C438.923 18.575 438.923 18.4446 438.551 18.4446C438.197 18.4446 438.178 18.5937 438.141 23.8849L438.085 29.3438L435.16 29.3997L432.216 29.4556V28.226C432.216 27.1453 432.179 27.0149 431.843 27.0149C431.545 27.0149 431.489 27.164 431.434 28.1701L431.378 29.3438H428.49H425.602L425.546 28.1701C425.49 27.164 425.434 27.0149 425.136 27.0149C424.801 27.0149 424.764 27.1453 424.764 28.226V29.4556L421.838 29.3997L418.895 29.3438L418.839 28.1701C418.783 27.164 418.727 27.0149 418.429 27.0149C418.094 27.0149 418.056 27.1453 418.056 28.226V29.437H415.169H412.281V28.226C412.281 27.0522 412.262 27.0149 411.815 27.0149C411.368 27.0149 411.349 27.0522 411.349 28.226V29.4556L408.61 29.3997L405.853 29.3438L405.797 20.9971C405.76 12.818 405.741 12.669 405.387 12.669C405.015 12.669 405.015 12.7994 405.015 21.053V29.437H402.592H400.17V28.226C400.17 27.1453 400.133 27.0149 399.798 27.0149C399.462 27.0149 399.425 27.1453 399.425 28.226V29.4556L396.5 29.3997L393.556 29.3438L393.501 28.1701C393.445 27.164 393.389 27.0149 393.091 27.0149C392.755 27.0149 392.718 27.1453 392.718 28.226V29.437H389.83H386.961L386.905 28.2632C386.849 27.2199 386.812 27.1081 386.439 27.0522C386.029 26.9963 386.011 27.0522 386.011 28.2073V29.437H383.123H380.235V28.2073C380.235 27.0522 380.217 26.9963 379.825 27.0522C379.434 27.1081 379.397 27.2199 379.341 28.2632L379.285 29.437H376.416H373.528V23.9408C373.528 18.575 373.528 18.4446 373.155 18.4446C372.801 18.4446 372.783 18.5937 372.745 23.8849L372.69 29.3438L369.764 29.3997L366.821 29.4556V28.226C366.821 27.1453 366.783 27.0149 366.448 27.0149C366.15 27.0149 366.094 27.164 366.038 28.1701L365.982 29.3438H363.094H360.207L360.151 28.1701C360.095 27.164 360.039 27.0149 359.741 27.0149C359.406 27.0149 359.368 27.1453 359.368 28.226V29.4556L356.443 29.3997L353.499 29.3438L353.444 28.1701C353.388 27.164 353.332 27.0149 353.034 27.0149C352.698 27.0149 352.661 27.1453 352.661 28.226V29.437H349.773H346.904L346.848 28.2632C346.792 27.2199 346.755 27.1081 346.382 27.0522C345.972 26.9963 345.954 27.0522 345.954 28.226V29.4556L343.215 29.3997L340.458 29.3438L340.402 20.9971C340.365 12.818 340.346 12.669 339.992 12.669C339.619 12.669 339.619 12.7994 339.619 21.053V29.437H337.197H334.775V28.226C334.775 27.1453 334.738 27.0149 334.403 27.0149C334.067 27.0149 334.03 27.1453 334.03 28.226V29.4556L331.105 29.3997L328.161 29.3438L328.105 28.1701C328.049 27.164 327.993 27.0149 327.695 27.0149C327.36 27.0149 327.323 27.1453 327.323 28.226V29.4556L324.398 29.3997L321.454 29.3438L321.398 28.1701C321.342 27.164 321.286 27.0149 320.988 27.0149C320.653 27.0149 320.616 27.1453 320.616 28.226V29.437H317.728H314.84V28.226C314.84 27.0522 314.821 27.0149 314.374 27.0149C313.927 27.0149 313.908 27.0522 313.908 28.226V29.437H311.02H308.133V23.9408C308.133 18.575 308.133 18.4446 307.76 18.4446C307.406 18.4446 307.387 18.5937 307.35 23.8849L307.294 29.3438L304.369 29.3997L301.425 29.4556V28.226C301.425 27.1453 301.388 27.0149 301.053 27.0149C300.755 27.0149 300.699 27.164 300.643 28.1701L300.587 29.3438H297.699H294.811L294.755 28.1701C294.7 27.164 294.644 27.0149 294.346 27.0149C294.01 27.0149 293.973 27.1453 293.973 28.226V29.4556L291.048 29.3997L288.104 29.3438L288.048 28.1701C287.992 27.164 287.936 27.0149 287.638 27.0149C287.303 27.0149 287.266 27.1453 287.266 28.226V29.437H284.378H281.509L281.453 28.2632C281.397 27.2199 281.36 27.1081 280.987 27.0522C280.577 26.9963 280.559 27.0522 280.559 28.2073V29.437H277.764H274.969V21.053C274.969 12.7994 274.969 12.669 274.597 12.669C274.224 12.669 274.224 12.7994 274.224 21.053V29.437H271.802H269.38V28.226C269.38 27.1453 269.343 27.0149 269.007 27.0149C268.709 27.0149 268.653 27.164 268.597 28.1701L268.542 29.3438H265.654H262.766L262.71 28.1701C262.654 27.164 262.598 27.0149 262.3 27.0149C261.965 27.0149 261.927 27.1453 261.927 28.226V29.4556L259.002 29.3997L256.059 29.3438L256.003 28.1701C255.947 27.164 255.891 27.0149 255.593 27.0149C255.257 27.0149 255.22 27.1453 255.22 28.226V29.437H252.332H249.463L249.407 28.2632C249.351 27.2199 249.314 27.1081 248.942 27.0522C248.532 26.9963 248.513 27.0522 248.513 28.2073V29.437H245.625H242.737V23.9408C242.737 18.575 242.737 18.4446 242.365 18.4446C242.011 18.4446 241.992 18.5937 241.955 23.8849L241.899 29.3438L238.974 29.3997L236.03 29.4556V28.226C236.03 27.1453 235.993 27.0149 235.658 27.0149C235.359 27.0149 235.304 27.164 235.248 28.1701L235.192 29.3438L232.267 29.3997L229.323 29.4556V28.226C229.323 27.1453 229.286 27.0149 228.95 27.0149C228.615 27.0149 228.578 27.1453 228.578 28.226V29.4556L225.653 29.3997L222.709 29.3438L222.653 28.1701C222.597 27.164 222.541 27.0149 222.243 27.0149C221.908 27.0149 221.87 27.1453 221.87 28.226V29.437H218.983H216.113L216.058 28.2632C216.002 27.2199 215.964 27.1081 215.592 27.0522C215.182 26.9963 215.163 27.0522 215.163 28.2073V29.437H212.369H209.574V21.053C209.574 12.7994 209.574 12.669 209.201 12.669C208.829 12.669 208.829 12.7994 208.829 21.053V29.437H206.407H203.985V28.226C203.985 27.1453 203.947 27.0149 203.612 27.0149C203.314 27.0149 203.258 27.164 203.202 28.1701L203.146 29.3438H200.258H197.371L197.315 28.1701C197.259 27.164 197.203 27.0149 196.905 27.0149C196.569 27.0149 196.532 27.1453 196.532 28.226V29.4556L193.607 29.3997L190.663 29.3438L190.607 28.1701C190.552 27.164 190.496 27.0149 190.198 27.0149C189.862 27.0149 189.825 27.1453 189.825 28.226V29.437H186.937H184.068L184.012 28.2632C183.956 27.2199 183.919 27.1081 183.546 27.0522C183.136 26.9963 183.118 27.0522 183.118 28.2073V29.437H180.23H177.342V23.9408V18.4446H176.876H176.411V23.9408V29.437H173.523H170.635V28.226C170.635 27.1453 170.598 27.0149 170.262 27.0149C169.964 27.0149 169.908 27.164 169.852 28.1701L169.796 29.3438L166.871 29.3997L163.928 29.4556V28.226C163.928 27.1453 163.89 27.0149 163.555 27.0149C163.22 27.0149 163.182 27.1453 163.182 28.226V29.4556L160.257 29.3997L157.314 29.3438L157.258 28.1701C157.202 27.164 157.146 27.0149 156.848 27.0149C156.512 27.0149 156.475 27.1453 156.475 28.226V29.4556L153.55 29.3997L150.606 29.3438L150.55 28.1701C150.495 27.164 150.439 27.0149 150.141 27.0149C149.805 27.0149 149.768 27.1453 149.768 28.226V29.437H146.973H144.179V21.053C144.179 12.7994 144.179 12.669 143.806 12.669C143.452 12.669 143.433 12.818 143.396 20.9971L143.34 29.3438L140.974 29.3997L138.589 29.4556V28.226C138.589 27.1453 138.552 27.0149 138.217 27.0149C137.919 27.0149 137.863 27.164 137.807 28.1701L137.751 29.3438L134.826 29.3997L131.882 29.4556V28.226C131.882 27.1453 131.845 27.0149 131.509 27.0149C131.174 27.0149 131.137 27.1453 131.137 28.226V29.4556L128.212 29.3997L125.268 29.3438L125.212 28.1701C125.156 27.164 125.1 27.0149 124.802 27.0149C124.467 27.0149 124.43 27.1453 124.43 28.226V29.437H121.542H118.673L118.617 28.2632C118.561 27.2199 118.524 27.1081 118.151 27.0522C117.741 26.9963 117.722 27.0522 117.722 28.2073V29.437H114.835H111.947V23.9408V18.4446H111.481H111.015V23.9408V29.437H108.127H105.24V28.226C105.24 27.1453 105.202 27.0149 104.867 27.0149C104.569 27.0149 104.513 27.164 104.457 28.1701L104.401 29.3438L101.476 29.3997L98.5323 29.4556V28.226C98.5323 27.1453 98.4951 27.0149 98.1597 27.0149C97.8616 27.0149 97.8057 27.164 97.7498 28.1701L97.6939 29.3438H94.8061H91.9183L91.8624 28.1701C91.8065 27.164 91.7506 27.0149 91.4525 27.0149C91.1172 27.0149 91.0799 27.1453 91.0799 28.226V29.4556L88.1548 29.3997L85.2111 29.3438L85.1552 28.1701C85.0993 27.164 85.0434 27.0149 84.7453 27.0149C84.4099 27.0149 84.3727 27.1453 84.3727 28.226V29.437H81.578H78.7833V21.053C78.7833 12.7994 78.7833 12.669 78.4107 12.669C78.0567 12.669 78.0381 12.818 78.0008 20.9971L77.9449 29.3438L75.5788 29.3997L73.194 29.4556V28.226C73.194 27.1453 73.1567 27.0149 72.8214 27.0149C72.5233 27.0149 72.4674 27.164 72.4115 28.1701L72.3556 29.3438L69.4305 29.3997L66.4868 29.4556V28.226C66.4868 27.1453 66.4495 27.0149 66.1142 27.0149C65.7788 27.0149 65.7415 27.1453 65.7415 28.226V29.4556L62.8165 29.3997L59.8727 29.3438L59.8168 28.1701C59.7609 27.164 59.7051 27.0149 59.407 27.0149C59.0716 27.0149 59.0343 27.1453 59.0343 28.226V29.437H56.1465H53.2773L53.2214 28.2632C53.1655 27.2199 53.1283 27.1081 52.7556 27.0522C52.3458 26.9963 52.3271 27.0522 52.3271 28.2073V29.437H49.4393H46.5515V23.9408V18.4446H46.0857H45.6199V23.9408V29.437H42.7321H39.8443V28.226C39.8443 27.1453 39.807 27.0149 39.4716 27.0149C39.1735 27.0149 39.1176 27.164 39.0618 28.1701L39.0059 29.3438L36.0808 29.3997L33.1371 29.4556V28.226C33.1371 27.1453 33.0998 27.0149 32.7644 27.0149C32.4663 27.0149 32.4104 27.164 32.3545 28.1701L32.2987 29.3438H29.4108H26.523L26.4671 28.1701C26.4112 27.164 26.3553 27.0149 26.0572 27.0149C25.7219 27.0149 25.6846 27.1453 25.6846 28.2446V29.4742L24.3432 29.3997L23.0017 29.3252L22.2565 28.4123C19.704 25.3195 17.5614 23.9781 13.9097 23.1955L13.388 23.1024V11.5511C13.388 0.130196 13.388 -0.000221252 13.0154 -0.000221252C12.6428 -0.000221252 12.6428 0.130196 12.6428 11.5511ZM14.6922 24.1457C17.3565 24.7606 19.6108 26.3256 21.7907 29.0644L22.4614 29.9028L508.809 29.9959L995.156 30.0891L996.199 30.5735C998.118 31.4864 999.18 32.9769 999.311 34.9891C999.46 37.1875 998.118 39.2742 996.069 40.0567L995.044 40.4293H509.163C207.655 40.4293 23.1135 40.5039 22.834 40.597C22.5732 40.7088 21.8466 41.3982 21.2318 42.1434C18.6234 45.2362 15.7356 46.6522 11.9907 46.6522C8.84205 46.6335 6.06601 45.4225 3.83027 43.0563C2.43294 41.5658 1.42686 39.74 0.998342 37.97C0.64435 36.4423 0.64435 33.9643 1.01697 32.5484C2.04169 28.5986 5.46981 25.1891 9.47551 24.1457C10.8356 23.7917 13.1831 23.7917 14.6922 24.1457Z" fill="#044190"/>
<circle cx="12" cy="35" r="8" fill="#AE1016"/>
</svg>
