<svg width="23" height="260" viewBox="0 0 23 260" fill="none" xmlns="http://www.w3.org/2000/svg">
<path d="M10.8547 0.0230408C9.5478 0.256744 8.50715 0.811005 7.6238 1.74588C6.93407 2.48044 6.41374 3.37524 6.14148 4.30345L6.03257 4.65736H3.16472C0.339227 4.65736 0.296875 4.65736 0.296875 4.79092C0.296875 4.92447 0.339227 4.92447 3.14657 4.92447H5.99627L5.95997 5.07138C5.93577 5.15819 5.90551 5.52547 5.88131 5.89941C5.76636 7.96951 6.5529 9.8927 8.04732 11.2149C8.34984 11.4753 8.6342 11.7758 8.68261 11.876C8.74916 12.0296 8.76731 12.4569 8.76731 14.0729V16.0763H7.43624C6.14753 16.0763 6.10517 16.0829 6.10517 16.2098C6.10517 16.3367 6.14753 16.3434 7.43624 16.3434H8.76731V19.1814V22.0194H7.43624H6.10517V22.1864V22.3533H7.43624H8.76731V24.9242V27.4951H7.43624C6.14753 27.4951 6.10517 27.5018 6.10517 27.6287C6.10517 27.7556 6.14753 27.7623 7.43624 27.7623H8.76731V30.6003V33.4383H7.43624H6.10517V33.6053V33.7722H7.43624H8.76731V36.3431V38.914H7.43624C6.14753 38.914 6.10517 38.9207 6.10517 39.0476C6.10517 39.1745 6.14753 39.1812 7.43624 39.1812H8.76731V42.0192V44.8572H7.43624C6.14753 44.8572 6.10517 44.8639 6.10517 44.9908C6.10517 45.1176 6.15358 45.1243 7.42414 45.1377L8.73706 45.1577V47.7286V50.2995L7.42414 50.3196C6.15358 50.3329 6.10517 50.3396 6.10517 50.4665C6.10517 50.5934 6.14753 50.6001 7.43624 50.6001H8.76731V53.4381V56.2761H7.43624C6.14753 56.2761 6.10517 56.2828 6.10517 56.4097C6.10517 56.5365 6.14753 56.5432 7.43624 56.5432H8.76731V59.1141V61.6851H7.43624H6.10517V61.852V62.019H7.43624H8.76731V64.857V67.695H7.43624C6.14753 67.695 6.10517 67.7017 6.10517 67.8286C6.10517 67.9554 6.14753 67.9621 7.43624 67.9621H8.76731V70.533V73.104H7.43624H6.10517V73.2709V73.4378H7.43624H8.76731V76.2759V79.1139H7.43624C6.14753 79.1139 6.10517 79.1206 6.10517 79.2475C6.10517 79.3743 6.14753 79.381 7.43624 79.381H8.76731V81.9519V84.5228H7.43624C6.14753 84.5228 6.10517 84.5295 6.10517 84.6564C6.10517 84.7833 6.15358 84.79 7.42414 84.8033L8.73706 84.8233V87.6614V90.4994L7.42414 90.5194C6.15358 90.5328 6.10517 90.5395 6.10517 90.6664C6.10517 90.7932 6.14753 90.7999 7.43624 90.7999H8.76731V93.3708V95.9417H7.43624C6.14753 95.9417 6.10517 95.9484 6.10517 96.0753C6.10517 96.2022 6.14753 96.2088 7.43624 96.2088H8.76731V99.0469V101.885H7.43624H6.10517V102.052V102.219H7.43624H8.76731V104.79V107.361H7.43624C6.14753 107.361 6.10517 107.367 6.10517 107.494C6.10517 107.621 6.14753 107.628 7.43624 107.628H8.76731V110.466V113.304H7.43624H6.10517V113.471V113.638H7.43624H8.76731V116.209V118.78H7.43624C6.14753 118.78 6.10517 118.786 6.10517 118.913C6.10517 119.04 6.14753 119.047 7.43624 119.047H8.76731V121.885V124.723H7.43624C6.14753 124.723 6.10517 124.729 6.10517 124.856C6.10517 124.983 6.15358 124.99 7.42414 125.003L8.73706 125.023L8.75521 127.607L8.76731 130.198H4.53209C0.339227 130.198 0.296875 130.198 0.296875 130.332C0.296875 130.466 0.345277 130.466 4.51999 130.479L8.73706 130.499L8.75521 133.317L8.76731 136.142H7.43624C6.14753 136.142 6.10517 136.148 6.10517 136.275C6.10517 136.402 6.14753 136.409 7.43624 136.409H8.76731V138.98V141.551H7.43624H6.10517V141.717V141.884H7.43624H8.76731V144.722V147.56H7.43624C6.14753 147.56 6.10517 147.567 6.10517 147.694C6.10517 147.821 6.14753 147.828 7.43624 147.828H8.76731V150.399V152.969H7.43624C6.14753 152.969 6.10517 152.976 6.10517 153.103C6.10517 153.23 6.15358 153.237 7.42414 153.25L8.73706 153.27L8.75521 156.121L8.76731 158.979H7.43624C6.14753 158.979 6.10517 158.986 6.10517 159.113C6.10517 159.24 6.14753 159.246 7.43624 159.246H8.76731V161.817V164.388H7.43624C6.14753 164.388 6.10517 164.395 6.10517 164.522C6.10517 164.649 6.14753 164.655 7.43624 164.655H8.76731V167.493V170.331H7.43624H6.10517V170.498V170.665H7.43624H8.76731V173.236V175.807H7.43624C6.14753 175.807 6.10517 175.814 6.10517 175.941C6.10517 176.068 6.14753 176.074 7.43624 176.074H8.76731V178.912V181.75H7.43624H6.10517V181.917V182.084H7.43624H8.76731V184.655V187.226H7.43624C6.14753 187.226 6.10517 187.233 6.10517 187.36C6.10517 187.487 6.14753 187.493 7.43624 187.493H8.76731V190.331V193.169H7.43624C6.14753 193.169 6.10517 193.176 6.10517 193.303C6.10517 193.43 6.15358 193.436 7.42414 193.45L8.73706 193.47V196.041V198.612L7.42414 198.632C6.15358 198.645 6.10517 198.652 6.10517 198.779C6.10517 198.905 6.14753 198.912 7.43624 198.912H8.76731V201.75V204.588H7.43624C6.14753 204.588 6.10517 204.595 6.10517 204.722C6.10517 204.849 6.14753 204.855 7.43624 204.855H8.76731V207.426V209.997H7.43624H6.10517V210.164V210.331H7.43624H8.76731V213.169V216.007H7.43624C6.14753 216.007 6.10517 216.014 6.10517 216.141C6.10517 216.268 6.14753 216.274 7.43624 216.274H8.76731V218.845V221.416H7.43624H6.10517V221.583V221.75H7.43624H8.76731V224.588V227.426H7.43624C6.14753 227.426 6.10517 227.433 6.10517 227.56C6.10517 227.686 6.14753 227.693 7.43624 227.693H8.76731V230.264V232.835H7.43624C6.14753 232.835 6.10517 232.842 6.10517 232.968C6.10517 233.095 6.15358 233.102 7.42414 233.115L8.73706 233.135V235.973V238.811L7.42414 238.832C6.15358 238.845 6.10517 238.852 6.10517 238.978C6.10517 239.105 6.14753 239.112 7.43624 239.112H8.76731V241.683V244.254H7.43624C6.14753 244.254 6.10517 244.26 6.10517 244.387C6.10517 244.514 6.14753 244.521 7.43624 244.521H8.76731V247.359V250.197H7.43624H6.10517V250.364V250.531H7.43624H8.76731V253.135V255.739H4.53209C0.339227 255.739 0.296875 255.739 0.296875 255.873C0.296875 256.007 0.339227 256.007 4.53209 256.007H8.76731V256.701C8.76731 257.496 8.89437 258.05 9.18478 258.557C9.78376 259.599 10.9091 260.16 11.98 259.96C12.573 259.846 13.0267 259.586 13.4624 259.112C14.0795 258.437 14.3336 257.729 14.3336 256.661V256.007H18.5688C22.7617 256.007 22.804 256.007 22.804 255.873C22.804 255.739 22.7617 255.739 18.5688 255.739H14.3336V253.135V250.531H15.6647H16.9957V250.364V250.197H15.6647H14.3336V247.359V244.521H15.6647C16.9534 244.521 16.9957 244.514 16.9957 244.387C16.9957 244.26 16.9534 244.254 15.6647 244.254H14.3336V241.683V239.112H15.6647C16.9534 239.112 16.9957 239.105 16.9957 238.978C16.9957 238.852 16.9473 238.845 15.6828 238.832L14.3639 238.811V235.973V233.135L15.6828 233.115C16.9473 233.102 16.9957 233.095 16.9957 232.968C16.9957 232.842 16.9534 232.835 15.6647 232.835H14.3336V230.264V227.693H15.6647C16.9534 227.693 16.9957 227.686 16.9957 227.56C16.9957 227.433 16.9534 227.426 15.6647 227.426H14.3336V224.588V221.75H15.6647H16.9957V221.583V221.416H15.6647H14.3336V218.845V216.274H15.6647C16.9534 216.274 16.9957 216.268 16.9957 216.141C16.9957 216.014 16.9534 216.007 15.6647 216.007H14.3336V213.169V210.331H15.6647H16.9957V210.164V209.997H15.6647H14.3336V207.426V204.855H15.6647C16.9534 204.855 16.9957 204.849 16.9957 204.722C16.9957 204.595 16.9534 204.588 15.6647 204.588H14.3336V201.75V198.912H15.6647C16.9534 198.912 16.9957 198.905 16.9957 198.779C16.9957 198.652 16.9473 198.645 15.6828 198.632L14.3639 198.612V196.041V193.47L15.6828 193.45C16.9473 193.436 16.9957 193.43 16.9957 193.303C16.9957 193.176 16.9534 193.169 15.6647 193.169H14.3336V190.331V187.493H15.6647C16.9534 187.493 16.9957 187.487 16.9957 187.36C16.9957 187.233 16.9534 187.226 15.6647 187.226H14.3336V184.655V182.084H15.6647H16.9957V181.917V181.75H15.6647H14.3336V178.912V176.074H15.6647C16.9534 176.074 16.9957 176.068 16.9957 175.941C16.9957 175.814 16.9534 175.807 15.6647 175.807H14.3336V173.236V170.665H15.6647H16.9957V170.498V170.331H15.6647H14.3336L14.3457 167.507L14.3639 164.689L15.6828 164.669C16.9473 164.655 16.9957 164.649 16.9957 164.522C16.9957 164.395 16.9534 164.388 15.6647 164.388H14.3336V161.817V159.246H15.6647C16.9534 159.246 16.9957 159.24 16.9957 159.113C16.9957 158.986 16.9473 158.979 15.6828 158.966L14.3639 158.946V156.108V153.27L15.6828 153.25C16.9473 153.237 16.9957 153.23 16.9957 153.103C16.9957 152.976 16.9534 152.969 15.6647 152.969H14.3336V150.399V147.828H15.6647C16.9534 147.828 16.9957 147.821 16.9957 147.694C16.9957 147.567 16.9534 147.56 15.6647 147.56H14.3336V144.722V141.884H15.6647H16.9957V141.717V141.551H15.6647H14.3336V138.98V136.409H15.6647C16.9534 136.409 16.9957 136.402 16.9957 136.275C16.9957 136.148 16.9534 136.142 15.6647 136.142H14.3336L14.3457 133.317L14.3639 130.499L18.587 130.479C22.7556 130.466 22.804 130.466 22.804 130.332C22.804 130.198 22.7617 130.198 18.5688 130.198H14.3336L14.3457 127.607L14.3639 125.023L15.6828 125.003C16.9473 124.99 16.9957 124.983 16.9957 124.856C16.9957 124.729 16.9534 124.723 15.6647 124.723H14.3336V121.885V119.047H15.6647C16.9534 119.047 16.9957 119.04 16.9957 118.913C16.9957 118.786 16.9473 118.78 15.6828 118.766L14.3639 118.746L14.3457 116.189L14.3336 113.638H15.6647H16.9957V113.471V113.304H15.6647H14.3336V110.466V107.628H15.6647C16.9534 107.628 16.9957 107.621 16.9957 107.494C16.9957 107.367 16.9534 107.361 15.6647 107.361H14.3336V104.79V102.219H15.6647H16.9957V102.052V101.885H15.6647H14.3336V99.0469V96.2088H15.6647C16.9534 96.2088 16.9957 96.2022 16.9957 96.0753C16.9957 95.9484 16.9534 95.9417 15.6647 95.9417H14.3336V93.3708V90.7999H15.6647C16.9534 90.7999 16.9957 90.7932 16.9957 90.6664C16.9957 90.5395 16.9473 90.5328 15.6828 90.5194L14.3639 90.4994V87.6614V84.8233L15.6828 84.8033C16.9473 84.79 16.9957 84.7833 16.9957 84.6564C16.9957 84.5295 16.9534 84.5228 15.6647 84.5228H14.3336V81.9519V79.381H15.6647C16.9534 79.381 16.9957 79.3743 16.9957 79.2475C16.9957 79.1206 16.9534 79.1139 15.6647 79.1139H14.3336V76.2759V73.4378H15.6647H16.9957V73.2709V73.104H15.6647H14.3336V70.533V67.9621H15.6647C16.9534 67.9621 16.9957 67.9554 16.9957 67.8286C16.9957 67.7017 16.9534 67.695 15.6647 67.695H14.3336V64.857V62.019H15.6647H16.9957V61.852V61.6851H15.6647H14.3336V59.1141V56.5432H15.6647C16.9534 56.5432 16.9957 56.5365 16.9957 56.4097C16.9957 56.2828 16.9534 56.2761 15.6647 56.2761H14.3336V53.4381V50.6001H15.6647C16.9534 50.6001 16.9957 50.5934 16.9957 50.4665C16.9957 50.3396 16.9473 50.3329 15.6828 50.3196L14.3639 50.2995V47.7286V45.1577L15.6828 45.1377C16.9473 45.1243 16.9957 45.1176 16.9957 44.9908C16.9957 44.8639 16.9534 44.8572 15.6647 44.8572H14.3336V42.0192V39.1812H15.6647C16.9534 39.1812 16.9957 39.1745 16.9957 39.0476C16.9957 38.9207 16.9534 38.914 15.6647 38.914H14.3336V36.3431V33.7722H15.6647H16.9957V33.6053V33.4383H15.6647H14.3336V30.6003V27.7623H15.6647C16.9534 27.7623 16.9957 27.7556 16.9957 27.6287C16.9957 27.5018 16.9534 27.4951 15.6647 27.4951H14.3336V24.9242V22.3533H15.6647H16.9957V22.1864V22.0194H15.6647H14.3336L14.3457 19.1947L14.3639 16.3768L15.6828 16.3567C16.9473 16.3434 16.9957 16.3367 16.9957 16.2098C16.9957 16.0829 16.9534 16.0763 15.6647 16.0763H14.3336V14.113C14.3336 12.8509 14.3578 12.083 14.4002 11.9427C14.4486 11.7958 14.6482 11.5688 15.0354 11.2282C16.0216 10.3668 16.669 9.29837 17.032 7.96283C17.1712 7.44197 17.1954 7.23495 17.2014 6.42696C17.2014 5.91278 17.1893 5.3652 17.1591 5.20494L17.1167 4.92447H19.9604C22.7617 4.92447 22.804 4.92447 22.804 4.79092C22.804 4.65736 22.7617 4.65736 19.9301 4.65736C17.2438 4.65736 17.0502 4.65068 17.0199 4.53717C16.3786 2.36691 14.8479 0.730865 12.9118 0.176605C12.4338 0.0430603 11.26 -0.0437622 10.8547 0.0230408ZM12.9057 0.750885C14.382 1.22501 15.5255 2.28677 16.2334 3.836C16.6085 4.66405 16.7174 5.22498 16.7174 6.26001C16.7174 7.30174 16.6267 7.78922 16.2697 8.64397C15.8643 9.60555 15.3864 10.2466 14.5696 10.9411C14.2791 11.1815 14.0674 11.4219 13.9948 11.5822C13.8798 11.8292 13.8798 14.2733 13.8496 134.672L13.8193 257.509L13.6257 257.95C12.8936 259.593 11.0846 259.966 9.94107 258.711C9.77771 258.531 9.5599 258.197 9.45705 257.977L9.28159 257.576L9.25134 134.672L9.22109 11.7691L9.07588 11.5154C8.99722 11.3752 8.77941 11.1414 8.59185 10.9878C7.87792 10.4136 7.28499 9.66565 6.92197 8.86432C5.89946 6.62729 6.28668 3.98959 7.89002 2.21332C8.5737 1.45206 9.6083 0.831024 10.4917 0.65741C10.6913 0.61734 10.9212 0.570587 11.0059 0.557251C11.381 0.483795 12.3914 0.583954 12.9057 0.750885Z" fill="#00487D"/>
</svg>
