<?xml version="1.0" encoding="utf-8"?>
<!-- Generator: Adobe Illustrator 19.2.1, SVG Export Plug-In . SVG Version: 6.00 Build 0)  -->
<svg version="1.1" id="Слой_1" xmlns="http://www.w3.org/2000/svg" xmlns:xlink="http://www.w3.org/1999/xlink" x="0px" y="0px"
	 viewBox="0 0 24 24" style="enable-background:new 0 0 24 24;" xml:space="preserve">
<path d="M19,22.8H5c-1.5,0-2.8-1.2-2.8-2.8V6H3L2.4,5.5l3.2-4.3h12.8l3.2,4.3L21,6h0.8v14C21.8,21.5,20.5,22.8,19,22.8z M3.8,6.8V20c0,0.7,0.6,1.3,1.3,1.3h14c0.7,0,1.3-0.6,1.3-1.3V6.8H3.8z M4.5,5.3h15l-1.9-2.5H6.4L4.5,5.3z"/>
<path d="M12,14.8c-3.3,0-4.5-3-4.7-4.7C7.2,9.7,7.5,9.3,7.9,9.3c0.4,0,0.8,0.2,0.8,0.6c0,0.1,0.5,3.3,3.3,3.3c2.8,0,3.2-3.2,3.3-3.3c0.1-0.4,0.4-0.7,0.8-0.7c0.4,0.1,0.7,0.4,0.7,0.8C16.5,11.7,15.3,14.8,12,14.8z"/>
</svg>
