<svg width="32" height="32" viewBox="0 0 32 32" fill="none" xmlns="http://www.w3.org/2000/svg">
<path d="M21.8163 23H11.0204M21.8163 23V11.2308M21.8163 23H22.6531M5.89796 23H3C1.89543 23 1 22.1046 1 21V8C1 6.89543 1.89543 6 3 6H19.8163C20.9209 6 21.8163 6.89543 21.8163 8V11.2308M21.8163 11.2308H24.3413C25.8043 11.2308 27.1505 12.0294 27.8518 13.3133L30.5105 18.1807C30.8317 18.7687 31 19.4281 31 20.0982V21C31 22.1046 30.1046 23 29 23H28.1633" stroke="black" stroke-width="1.5"/>
<circle cx="8.5" cy="23.5" r="2.75" stroke="black" stroke-width="1.5"/>
<circle cx="25.5" cy="23.5" r="2.75" stroke="black" stroke-width="1.5"/>
</svg>
