<svg xmlns="http://www.w3.org/2000/svg" viewBox="0 0 24 24">
	<rect x="2.3" y="6.3" width="19.5" height="1.5"/>
	<rect x="2.3" y="16.3" width="19.5" height="1.5"/>
	<circle fill="#fff" cx="8" cy="7" r="2.3"/>
	<path d="M8,10c-1.7,0-3-1.3-3-3s1.3-3,3-3s3,1.3,3,3S9.7,10,8,10z M8,5.5C7.2,5.5,6.5,6.2,6.5,7S7.2,8.5,8,8.5S9.5,7.8,9.5,7S8.8,5.5,8,5.5z"/>
	<circle fill="#fff" cx="16" cy="17" r="2.3"/>
	<path d="M16,20c-1.7,0-3-1.3-3-3s1.3-3,3-3s3,1.3,3,3S17.7,20,16,20z M16,15.5c-0.8,0-1.5,0.7-1.5,1.5s0.7,1.5,1.5,1.5s1.5-0.7,1.5-1.5S16.8,15.5,16,15.5z"/>
</svg>
