<?xml version="1.0" encoding="utf-8"?>
<!-- Generator: Adobe Illustrator 19.2.1, SVG Export Plug-In . SVG Version: 6.00 Build 0)  -->
<svg version="1.1" id="Слой_1" xmlns="http://www.w3.org/2000/svg" xmlns:xlink="http://www.w3.org/1999/xlink" x="0px" y="0px"
	 viewBox="0 0 25 24" style="enable-background:new 0 0 25 24;" xml:space="preserve">
<path d="M12.3,12c-2.8,0-5-2.2-5-5s2.2-5,5-5s5,2.2,5,5S15.1,12,12.3,12z M12.3,3.5c-1.9,0-3.5,1.6-3.5,3.5s1.6,3.5,3.5,3.5s3.5-1.6,3.5-3.5S14.3,3.5,12.3,3.5z"/>
<path d="M21.1,22h-1.5v-3c0-1.8-1.5-3.3-3.3-3.3h-8c-1.8,0-3.3,1.5-3.3,3.3v3H3.6v-3c0-2.6,2.1-4.8,4.8-4.8h8c2.6,0,4.8,2.1,4.8,4.8V22z"/>
</svg>
