<svg width="24" height="24" viewBox="0 0 24 24" fill="none" xmlns="http://www.w3.org/2000/svg">
<path fill-rule="evenodd" clip-rule="evenodd" d="M13.6522 3.49865L11.426 6.26088L9.27795 8.86068L6.16033 12.7396H10.2451C10.7974 12.7396 11.2451 13.1874 11.2451 13.7396V20.8252L15.7231 15.2104L17.766 12.7141L18.8463 11.333H14.6522C14.0999 11.333 13.6522 10.8853 13.6522 10.333V3.49865ZM14.4747 1.09971C15.1548 1.34146 15.6522 1.99399 15.6522 2.81845V9.33303H19.2643C20.0675 9.33303 20.6026 9.86818 20.8336 10.3949C21.0581 10.9071 21.0837 11.5848 20.7316 12.1586C20.7118 12.1909 20.6902 12.2219 20.6669 12.2517L19.3345 13.955L19.3208 13.9722L17.2749 16.4722L12.5643 22.3787C12.5198 22.4345 12.4694 22.4854 12.4141 22.5305C11.838 22.9998 11.0838 23.1183 10.439 22.8819C9.76178 22.6337 9.24508 21.9996 9.24508 21.154V14.7396H5.73547C4.93228 14.7396 4.39715 14.2045 4.16623 13.6777C3.94168 13.1655 3.91604 12.4879 4.26824 11.914C4.29031 11.8781 4.31464 11.8435 4.34107 11.8106L7.73175 7.59195L9.88024 4.99167L12.5208 1.71528C13.0041 1.04346 13.8097 0.86329 14.4747 1.09971Z"/>
</svg>
