<svg width="32" height="32" viewBox="0 0 32 32" fill="none" xmlns="http://www.w3.org/2000/svg">
<path d="M20 9L20.45 9.6C20.6389 9.45836 20.75 9.23607 20.75 9H20ZM11.25 9C11.25 9.41421 11.5858 9.75 12 9.75C12.4142 9.75 12.75 9.41421 12.75 9H11.25ZM29.6217 22.2023L29.1695 22.8006L29.6217 22.2023ZM2.4 22.2L1.95 21.6L2.4 22.2ZM3 24.75H29.0187V23.25H3V24.75ZM19.55 8.4L15.6127 11.353L16.5127 12.553L20.45 9.6L19.55 8.4ZM15.6127 11.353L1.95 21.6L2.85 22.8L16.5127 12.553L15.6127 11.353ZM30.074 21.604L16.5149 11.3547L15.6104 12.5513L29.1695 22.8006L30.074 21.604ZM20.75 9C20.75 8.21332 20.5202 7.04998 19.8087 6.06177C19.0696 5.03532 17.8444 4.25 16 4.25V5.75C17.3556 5.75 18.1304 6.29802 18.5913 6.93823C19.0798 7.61668 19.25 8.45335 19.25 9H20.75ZM16 4.25C14.1556 4.25 12.9304 5.03532 12.1913 6.06177C11.4798 7.04998 11.25 8.21332 11.25 9H12.75C12.75 8.45335 12.9202 7.61668 13.4087 6.93823C13.8696 6.29802 14.6444 5.75 16 5.75V4.25ZM29.0187 24.75C30.6972 24.75 31.4129 22.6161 30.074 21.604L29.1695 22.8006C29.3607 22.9452 29.2585 23.25 29.0187 23.25V24.75ZM3 23.25C2.75975 23.25 2.65779 22.9442 2.85 22.8L1.95 21.6C0.604592 22.6091 1.31822 24.75 3 24.75V23.25Z" fill="black"/>
</svg>
