<?xml version="1.0" encoding="utf-8"?>
<!-- Generator: Adobe Illustrator 19.2.1, SVG Export Plug-In . SVG Version: 6.00 Build 0)  -->
<svg version="1.1" id="Слой_1" xmlns="http://www.w3.org/2000/svg" xmlns:xlink="http://www.w3.org/1999/xlink" x="0px" y="0px"
	 viewBox="0 0 24 24" style="enable-background:new 0 0 24 24;" xml:space="preserve">
<style type="text/css">
	.st0{fill:none;}
</style>
<path d="M9.8,14.8V8.7c2.2,1,3.9,2,5.9,3.1C14,12.7,12,13.7,9.8,14.8z M22,5.6c-0.4-0.5-1-0.9-1.7-1c-2-0.4-14.6-0.4-16.6,0c-0.6,0.1-1,0.4-1.5,0.7C0.4,7,1,15.8,1.4,17.2c0.2,0.6,0.4,1.1,0.7,1.4C2.5,19,3,19.2,3.6,19.4c1.7,0.3,10.2,0.5,16.6,0.1c0.6-0.1,1.1-0.4,1.5-0.8C23.4,17,23.3,7.7,22,5.6z"/>
</svg>
