<?xml version="1.0" standalone="no"?>
<!DOCTYPE svg PUBLIC "-//W3C//DTD SVG 20010904//EN"
 "http://www.w3.org/TR/2001/REC-SVG-20010904/DTD/svg10.dtd">
<svg version="1.0" xmlns="http://www.w3.org/2000/svg"
 width="700.000000pt" height="700.000000pt" viewBox="0 0 700.000000 700.000000"
 preserveAspectRatio="xMidYMid meet">
<metadata>
Created by potrace 1.14, written by Peter Selinger 2001-2017
</metadata>
<g transform="translate(0.000000,700.000000) scale(0.100000,-0.100000)"
fill="#000000" stroke="none">
<path d="M1747 5249 l-1747 -1749 285 -285 285 -285 730 730 c402 402 733 730
736 730 3 0 334 -328 735 -730 l730 -730 730 730 c402 402 732 730 735 730 2
0 333 -329 734 -730 l730 -730 143 142 c78 79 206 207 284 286 l143 142 -1750
1750 c-963 963 -1751 1750 -1752 1749 -2 0 -789 -788 -1751 -1750z m2201 163
l448 -448 -448 -447 -448 -448 -445 446 c-271 271 -443 450 -439 457 6 10 876
885 882 887 1 1 204 -201 450 -447z"/>
<path d="M1831 2236 l-283 -284 976 -976 976 -976 976 976 976 976 -285 285
-285 285 -691 -691 -691 -691 -690 690 c-379 379 -691 690 -693 690 -1 0 -130
-128 -286 -284z"/>
</g>
</svg>
