<svg width="663" height="66" viewBox="0 0 663 66" fill="none" xmlns="http://www.w3.org/2000/svg">
<path d="M27.926 27.4046C31.8649 27.4046 34.8999 26.7015 36.9339 25.3273C38.8065 24.0489 39.6782 22.2912 39.6782 19.7824C39.6782 17.2736 38.8065 15.4999 36.9339 14.2375C34.8999 12.8633 31.8811 12.1602 27.926 12.1602H12.3963V27.4046H27.926ZM30.0246 53.5791C34.4317 53.5791 37.7411 52.8919 39.8558 51.5177C41.793 50.2713 42.697 48.4017 42.697 45.6213C42.697 42.1697 41.3894 37.5836 30.0246 37.5836H12.3801V53.5791H30.0246ZM0.514893 63.742V1.96523H28.6847C35.7716 1.96523 41.3733 3.41936 45.3284 6.29568C49.461 9.28384 51.5435 13.4865 51.5435 18.7597C51.5435 22.1314 50.7363 25.1036 49.122 27.5964C48.1857 29.0505 47.0395 30.3129 45.7158 31.3675C47.9597 32.4541 49.8484 33.9562 51.3336 35.8258C53.5291 38.5903 54.6591 42.1058 54.6591 46.2604C54.6591 51.8852 52.4798 56.2796 48.1696 59.3157C44.0369 62.24 38.0478 63.7261 30.3636 63.7261H0.514893V63.742ZM204.5 35.4902C209.408 35.4902 213.137 34.4676 215.607 32.4541C218.012 30.5046 219.19 27.7402 219.19 24.017C219.19 20.2937 218.028 17.5612 215.623 15.6277C213.137 13.6463 209.408 12.6395 204.5 12.6395H191.908V35.4743H204.5V35.4902ZM220.288 63.742L207.616 45.8769C206.47 45.9408 205.517 45.9888 204.775 45.9888H191.941V63.742H180.059V1.96523H204.775C212.798 1.96523 219.223 3.91473 223.904 7.78177C228.683 11.7127 231.088 17.1777 231.088 24.017C231.088 28.8587 229.845 33.0614 227.407 36.497C225.357 39.3892 222.548 41.6424 219.061 43.2084L233.703 63.7261H220.288V63.742ZM285.071 63.742L252.252 23.3618V63.742H240.37V1.96523H249.83L282.649 42.3295V1.96523H294.531V63.742H285.071ZM77.0497 64.4132C73.2561 64.4132 69.6884 63.6142 66.4436 62.0322C63.1504 60.4343 60.4707 58.1652 58.4528 55.2569L57.7102 54.1703L64.91 45.813L66.1853 47.6347C69.1234 51.8053 72.691 53.8188 77.0658 53.8188C79.8748 53.8188 81.9088 53.0358 83.281 51.4218C84.7177 49.744 85.4442 47.1393 85.4442 43.6877V12.6395H64.1352V1.96523H97.2448V43.2723C97.2448 50.1435 95.5175 55.4327 92.0952 58.9961C88.6567 62.5915 83.6038 64.4132 77.0658 64.4132M139.556 12.1442C135.553 12.1442 131.888 13.055 128.643 14.8447C125.431 16.6344 122.864 19.1272 121.04 22.2592C119.216 25.3912 118.279 28.9706 118.279 32.8696C118.279 36.7686 119.216 40.348 121.04 43.48C121.815 44.8063 122.719 46.0048 123.816 47.1233L147.983 13.7421C145.384 12.6875 142.559 12.1602 139.556 12.1602M131.113 51.9971C133.728 53.0358 136.57 53.5791 139.556 53.5791C143.56 53.5791 147.192 52.6682 150.356 50.8945C153.52 49.1048 156.054 46.612 157.879 43.48C159.703 40.348 160.639 36.7686 160.639 32.8696C160.639 28.9706 159.719 25.4072 157.879 22.2592C157.12 20.9649 156.248 19.7984 155.215 18.6958L131.097 51.9971H131.113ZM110.515 65.4998L117.053 56.4554C114.534 54.2981 112.403 51.7893 110.724 48.9929C107.851 44.1831 106.398 38.766 106.398 32.8696C106.398 26.9732 107.851 21.5401 110.724 16.7463C113.598 11.9364 117.601 8.11734 122.622 5.40082C127.626 2.68431 133.325 1.31007 139.54 1.31007C144.98 1.31007 150.065 2.39668 154.634 4.53793L157.749 0.239441H168.565L161.995 9.29982C164.465 11.4251 166.547 13.9179 168.21 16.6983C171.051 21.4762 172.488 26.9092 172.488 32.8696C172.488 38.83 171.051 44.263 168.21 49.0409C165.369 53.8187 161.382 57.6219 156.345 60.3384C151.341 63.0549 145.674 64.4291 139.508 64.4291C134.035 64.4291 128.95 63.3585 124.382 61.2332L121.282 65.5158H110.45L110.515 65.4998Z" fill="white"/>
<path d="M320.95 64.3014V2.52461H332.831V53.6271H364.746V64.3014H320.95ZM412.498 39.6131L402.424 16.9701L392.351 39.6131H412.481H412.498ZM423.459 64.3014L416.969 49.7121H387.895L381.406 64.3014H368.927L397.194 2.52461H407.751L436.099 64.3014H423.443H423.459ZM464.753 36.0337C469.661 36.0337 473.39 35.011 475.876 32.9976C478.281 31.048 479.459 28.2836 479.459 24.5604C479.459 20.8371 478.297 18.1046 475.892 16.1711C473.406 14.1897 469.661 13.167 464.769 13.167H452.177V36.0017H464.769L464.753 36.0337ZM480.541 64.3014L467.869 46.4363C466.723 46.5002 465.77 46.5482 465.027 46.5482H452.177V64.3014H440.296V2.52461H465.011C473.034 2.52461 479.459 4.49009 484.141 8.34116C488.919 12.2721 491.341 17.7371 491.341 24.5764C491.341 29.4181 490.098 33.6208 487.66 37.0564C485.61 39.9486 482.801 42.2018 479.314 43.7837L493.956 64.3014H480.541ZM552.733 64.3014V2.52461H597.789V13.1989H564.599V27.7083H594.157V38.2228H564.599V53.6431H598.967V64.3174H552.733V64.3014ZM652.837 64.3014L620.018 23.9372V64.3014H608.137V2.52461H617.597L650.416 42.8889V2.52461H662.297V64.3014H652.837ZM521.512 64.9566C516.912 64.9566 512.408 64.2375 508.13 62.8313C503.787 61.3932 500.3 59.4916 497.782 57.1746L496.846 56.3276L501.495 46.6121L503.222 48.1461C505.289 49.9838 508.001 51.5178 511.278 52.6843C514.571 53.8668 518.026 54.458 521.512 54.458C526.016 54.458 529.374 53.723 531.489 52.3008C533.442 50.9745 534.362 49.3446 534.362 47.1714C534.362 45.6214 533.894 44.4708 532.91 43.528C531.78 42.4574 530.343 41.6105 528.648 41.0352C526.775 40.3961 524.063 39.645 520.608 38.8301C516.121 37.7594 512.424 36.6728 509.647 35.5862C506.677 34.4357 504.094 32.63 501.979 30.2331C499.768 27.7243 498.654 24.3686 498.654 20.2299C498.654 16.7943 499.59 13.6464 501.414 10.8659C503.238 8.10147 506.031 5.88031 509.68 4.23442C513.263 2.63647 517.719 1.83749 522.933 1.83749C526.549 1.83749 530.149 2.3009 533.652 3.22771C537.204 4.1705 540.303 5.54474 542.87 7.31847L544 8.10146L539.9 17.9289L538.156 16.8263C535.831 15.3562 533.313 14.2376 530.682 13.4866C528.034 12.7355 525.419 12.352 522.901 12.352C518.526 12.352 515.249 13.119 513.183 14.6051C511.229 16.0113 510.309 17.6892 510.309 19.8944C510.309 21.4444 510.777 22.5949 511.778 23.5217C512.94 24.6083 514.426 25.4552 516.185 26.0784C518.106 26.7496 520.77 27.4686 524.128 28.2356C528.648 29.3063 532.328 30.4089 535.073 31.4795C538.011 32.63 540.578 34.4197 542.676 36.7687C544.888 39.2455 546.018 42.5693 546.018 46.66C546.018 50.0477 545.065 53.1797 543.209 55.9761C541.352 58.7725 538.511 61.0096 534.798 62.6076C531.166 64.1736 526.694 64.9566 521.48 64.9566" fill="white"/>
</svg>
