<svg width="21" height="21" viewBox="0 0 21 21" fill="none" xmlns="http://www.w3.org/2000/svg">
<path d="M18.5454 2.10177C15.3731 -1.06921 5.59355 -1.02721 2.46327 2.10177C-0.667013 5.23076 -0.971638 14.7437 2.46327 18.1877C5.89818 21.6212 15.1735 21.5582 18.5454 18.1877C21.9172 14.8172 21.7177 5.28326 18.5454 2.10177ZM13.4823 14.1137C13.0411 14.4182 12.4529 14.6177 11.7281 14.6912L10.6881 16.0877H9.01796L9.02846 16.0667L11.1398 13.2212C11.623 13.1897 11.9907 13.1057 12.2428 12.9482C12.5159 12.7802 12.6419 12.5177 12.6419 12.1397C12.6419 11.6672 12.4529 11.0372 10.8457 11.0372H8.33518V13.2422H9.48015L8.36669 14.7437H6.55995V5.96576H9.48015L10.415 4.61127H12.0747L10.0789 7.46725H8.33518V9.55675H10.5411C11.1083 9.55675 11.539 9.46225 11.8226 9.27325C12.0852 9.10525 12.2008 8.86375 12.2008 8.51725C12.2008 8.17075 12.0747 7.92925 11.8226 7.76125C11.7596 7.71925 11.6861 7.68775 11.6125 7.65625L12.5579 6.31226C12.747 6.39626 12.9151 6.49076 13.0726 6.59576C13.6819 7.02626 13.9865 7.62475 13.9865 8.38075C13.9865 8.86375 13.8709 9.28375 13.6293 9.64075C13.5033 9.82974 13.3457 10.0082 13.1672 10.1447C13.4718 10.3022 13.7344 10.5017 13.9445 10.7642C14.2701 11.1632 14.4277 11.6672 14.4277 12.2552C14.4382 13.0427 14.123 13.6727 13.4823 14.1137Z" fill="#344A54"/>
</svg>
