<svg width="180" height="36" viewBox="0 0 180 36" fill="none" xmlns="http://www.w3.org/2000/svg">
<rect width="180" height="36" rx="4" fill="black"/>
<g clip-path="url(#clip0_2337_21110)">
<path d="M35.8177 6H31.8133V26.3066H35.8177V6Z" fill="white"/>
<path d="M27.2133 7.13629H23.2089V27.4425H27.2133V7.13629Z" fill="white"/>
<path d="M18.6089 8.40485H14.6044V28.7149H18.6089V8.40485Z" fill="white"/>
<path d="M10.0045 9.6875H6L6.00002 30H10.0045L10.0045 9.6875Z" fill="white"/>
<path d="M141.582 16.8272L135.135 9.65842H131.365V26.2567H135.301V15.6667L141.187 21.9409H141.915L147.7 15.6667V26.2567H151.636V9.65842H147.866L141.582 16.8272Z" fill="white"/>
<path d="M170.386 9.65842L160.631 20.4467V9.65842H156.695V26.2567H160.301L170.056 15.4684V26.2567H173.991V9.65842H170.386Z" fill="white"/>
<path d="M110.167 15.732C110.167 18.3746 111.612 20.4564 113.83 21.3292L109.671 26.2567H114.488L118.272 21.7741H122.366V26.2567H126.302V9.65842H116.282C112.547 9.65842 110.167 12.214 110.167 15.732ZM122.369 13.3142V18.2223H117.012C115.225 18.2223 114.266 17.2262 114.266 15.7658C114.266 14.3055 115.259 13.3093 117.012 13.3093L122.369 13.3142Z" fill="white"/>
<path d="M91.8786 12.9781C91.6377 18.6865 90.4334 22.3713 88.0755 22.3713H87.4854V26.3559L88.114 26.3897C92.842 26.6533 95.4553 22.5043 95.884 13.4423H102.103V26.2567H106.031V9.65842H92.011L91.8786 12.9781Z" fill="white"/>
<path d="M77.0637 9.42651C71.7407 9.42651 67.9111 13.1113 67.9111 17.9566C67.9111 22.9687 72.0779 26.5229 77.0637 26.5229C82.2565 26.5229 86.2909 22.7704 86.2909 17.9566C86.2909 13.1427 82.2565 9.42651 77.0637 9.42651ZM77.0637 22.5383C74.0554 22.5383 72.0057 20.5799 72.0057 17.9566C72.0057 15.268 74.0578 13.3627 77.0637 13.3627C80.0696 13.3627 82.1891 15.355 82.1891 17.9566C82.1891 20.5581 80.0407 22.5383 77.0637 22.5383Z" fill="white"/>
<path d="M63.7372 9.68973H49.847L49.7145 13.0094C49.517 17.7918 48.2694 22.3397 45.9114 22.405L44.8203 22.4389V30.0084L48.7896 30.0004V26.259H62.5787V30.0004H66.5817V22.405H63.7372V9.68973ZM59.8016 22.405H51.4029C52.824 20.2483 53.5851 17.1269 53.7175 13.476H59.8016V22.405Z" fill="white"/>
</g>
<defs>
<clipPath id="clip0_2337_21110">
<rect width="168" height="24" fill="white" transform="translate(6 6)"/>
</clipPath>
</defs>
</svg>
