<svg width="21" height="21" viewBox="0 0 21 21" fill="none" xmlns="http://www.w3.org/2000/svg">
<path d="M18.5454 2.10202C15.3731 -1.06897 5.59355 -1.02697 2.46327 2.10202C-0.667013 5.23101 -0.971638 14.744 2.46327 18.188C5.89818 21.6214 15.1735 21.5584 18.5454 18.188C21.9172 14.8175 21.7177 5.28351 18.5454 2.10202ZM13.4823 14.114C13.0411 14.4185 12.4529 14.618 11.7281 14.6915L10.6881 16.088H9.01796L9.02846 16.067L11.1398 13.2215C11.623 13.19 11.9907 13.106 12.2428 12.9485C12.5159 12.7805 12.6419 12.518 12.6419 12.14C12.6419 11.6675 12.4529 11.0375 10.8457 11.0375H8.33518V13.2425H9.48015L8.36669 14.744H6.55995V5.966H9.48015L10.415 4.61151H12.0747L10.0789 7.4675H8.33518V9.55699H10.5411C11.1083 9.55699 11.539 9.46249 11.8226 9.27349C12.0852 9.10549 12.2008 8.86399 12.2008 8.51749C12.2008 8.171 12.0747 7.9295 11.8226 7.7615C11.7596 7.7195 11.6861 7.688 11.6125 7.6565L12.5579 6.3125C12.747 6.3965 12.9151 6.491 13.0726 6.596C13.6819 7.0265 13.9865 7.625 13.9865 8.38099C13.9865 8.86399 13.8709 9.28399 13.6293 9.64099C13.5033 9.82999 13.3457 10.0085 13.1672 10.145C13.4718 10.3025 13.7344 10.502 13.9445 10.7645C14.2701 11.1635 14.4277 11.6675 14.4277 12.2555C14.4382 13.043 14.123 13.673 13.4823 14.114Z"/>
</svg>
