<svg width="234" height="32" viewBox="0 0 234 32" xmlns="http://www.w3.org/2000/svg"><path d="M12.4077 9.3039L16.5 13.3965L20.5923 9.3039L16.5 5.2113L12.4077 9.3039ZM9.80328 11.9085L3.10655 18.6056L0.5 16.0011L16.5 0L32.5 16.0011L29.8956 18.6056L23.1989 11.9085L16.5021 18.6056L9.80542 11.9085H9.80328ZM7.57676 23.0783L10.1812 20.4737L16.4979 26.7908L22.8145 20.4737L25.4189 23.0783L16.4979 32L7.57676 23.0783Z" fill="#101010"/>
<path d="M54.2037 14.6288C55.3191 14.6288 56.1785 14.4276 56.7545 14.0345C57.2848 13.6688 57.5317 13.1659 57.5317 12.4482C57.5317 11.7305 57.2848 11.2231 56.7545 10.8619C56.1785 10.4688 55.3237 10.2676 54.2037 10.2676H49.806V14.6288H54.2037ZM54.798 22.1168C56.046 22.1168 56.9831 21.9202 57.582 21.5271C58.1305 21.1705 58.3865 20.6356 58.3865 19.8402C58.3865 18.8528 58.0163 17.5408 54.798 17.5408H49.8014V22.1168H54.798ZM46.4414 25.0242V7.35108H54.4185C56.4254 7.35108 58.0117 7.76708 59.1317 8.58993C60.302 9.44479 60.8917 10.6471 60.8917 12.1556C60.8917 13.1202 60.6631 13.9705 60.206 14.6836C59.9408 15.0996 59.6163 15.4608 59.2414 15.7625C59.8768 16.0734 60.4117 16.5031 60.8323 17.0379C61.454 17.8288 61.774 18.8345 61.774 20.0231C61.774 21.6322 61.1568 22.8894 59.9363 23.7579C58.766 24.5945 57.07 25.0196 54.894 25.0196H46.4414V25.0242ZM104.206 16.9419C105.596 16.9419 106.652 16.6494 107.351 16.0734C108.032 15.5156 108.366 14.7248 108.366 13.6596C108.366 12.5945 108.037 11.8128 107.356 11.2596C106.652 10.6928 105.596 10.4048 104.206 10.4048H100.64V16.9374H104.206V16.9419ZM108.677 25.0242L105.088 19.9134C104.764 19.9316 104.494 19.9454 104.284 19.9454H100.649V25.0242H97.2848V7.35108H104.284C106.556 7.35108 108.375 7.90879 109.701 9.01507C111.054 10.1396 111.735 11.7031 111.735 13.6596C111.735 15.0448 111.383 16.2471 110.693 17.2299C110.112 18.0574 109.317 18.7019 108.329 19.1499L112.476 25.0196H108.677V25.0242ZM127.022 25.0242L117.728 13.4722V25.0242H114.364V7.35108H117.043L126.336 18.8985V7.35108H129.701V25.0242H127.022ZM68.1145 25.2162C67.0403 25.2162 66.03 24.9876 65.1111 24.5351C64.1785 24.0779 63.4197 23.4288 62.8483 22.5968L62.638 22.2859L64.6768 19.8951L65.038 20.4162C65.87 21.6094 66.8803 22.1854 68.1191 22.1854C68.9145 22.1854 69.4905 21.9614 69.8791 21.4996C70.286 21.0196 70.4917 20.2745 70.4917 19.2871V10.4048H64.4574V7.35108H73.8334V19.1682C73.8334 21.1339 73.3443 22.6471 72.3751 23.6665C71.4014 24.6951 69.9705 25.2162 68.1191 25.2162M85.8151 10.2631C84.6814 10.2631 83.6437 10.5236 82.7248 11.0356C81.8151 11.5476 81.0883 12.2608 80.5717 13.1568C80.0551 14.0528 79.79 15.0768 79.79 16.1922C79.79 17.3076 80.0551 18.3316 80.5717 19.2276C80.7911 19.6071 81.0471 19.9499 81.358 20.2699L88.2014 10.7202C87.4654 10.4185 86.6654 10.2676 85.8151 10.2676M83.4243 21.6642C84.1648 21.9614 84.9694 22.1168 85.8151 22.1168C86.9488 22.1168 87.9774 21.8562 88.8734 21.3488C89.7694 20.8368 90.4871 20.1236 91.0037 19.2276C91.5203 18.3316 91.7854 17.3076 91.7854 16.1922C91.7854 15.0768 91.5248 14.0574 91.0037 13.1568C90.7888 12.7865 90.542 12.4528 90.2494 12.1374L83.4197 21.6642H83.4243ZM77.5911 25.5271L79.4426 22.9396C78.7294 22.3225 78.126 21.6048 77.6505 20.8048C76.8368 19.4288 76.4254 17.8791 76.4254 16.1922C76.4254 14.5054 76.8368 12.9511 77.6505 11.5796C78.4643 10.2036 79.598 9.11107 81.0197 8.33393C82.4368 7.55679 84.0506 7.16365 85.8106 7.16365C87.3511 7.16365 88.7911 7.4745 90.0848 8.08708L90.9671 6.85736H94.03L92.1694 9.44936C92.8688 10.0574 93.4585 10.7705 93.9294 11.5659C94.734 12.9328 95.1408 14.4871 95.1408 16.1922C95.1408 17.8974 94.734 19.4516 93.9294 20.8185C93.1248 22.1854 91.9957 23.2734 90.5694 24.0505C89.1523 24.8276 87.5477 25.2208 85.8014 25.2208C84.2517 25.2208 82.8117 24.9145 81.518 24.3065L80.6403 25.5316H77.5728L77.5911 25.5271Z" fill="#101010"/>
<path d="M137.184 25.1842V7.51109H140.548V22.1305H149.586V25.1842H137.184ZM163.108 18.1214L160.256 11.6437L157.403 18.1214H163.104H163.108ZM166.212 25.1842L164.374 21.0105H156.141L154.304 25.1842H150.77L158.774 7.51109H161.764L169.792 25.1842H166.208H166.212ZM177.906 17.0974C179.296 17.0974 180.352 16.8048 181.056 16.2288C181.737 15.6711 182.07 14.8802 182.07 13.8151C182.07 12.7499 181.741 11.9682 181.06 11.4151C180.356 10.8482 179.296 10.5557 177.91 10.5557H174.345V17.0882H177.91L177.906 17.0974ZM182.377 25.1842L178.788 20.0734C178.464 20.0917 178.194 20.1054 177.984 20.1054H174.345V25.1842H170.98V7.51109H177.979C180.251 7.51109 182.07 8.07337 183.396 9.17509C184.749 10.2997 185.435 11.8631 185.435 13.8197C185.435 15.2048 185.083 16.4071 184.393 17.3899C183.812 18.2174 183.017 18.8619 182.029 19.3145L186.176 25.1842H182.377ZM202.82 25.1842V7.51109H215.579V10.5648H206.18V14.7157H214.55V17.7237H206.18V22.1351H215.913V25.1888H202.82V25.1842ZM231.168 25.1842L221.874 13.6368V25.1842H218.509V7.51109H221.188L230.482 19.0585V7.51109H233.846V25.1842H231.168ZM193.979 25.3717C192.676 25.3717 191.401 25.1659 190.189 24.7637C188.96 24.3522 187.972 23.8082 187.259 23.1454L186.994 22.9031L188.31 20.1237L188.8 20.5625C189.385 21.0882 190.153 21.5271 191.081 21.8608C192.013 22.1991 192.992 22.3682 193.979 22.3682C195.254 22.3682 196.205 22.1579 196.804 21.7511C197.357 21.3717 197.618 20.9054 197.618 20.2837C197.618 19.8402 197.485 19.5111 197.206 19.2414C196.886 18.9351 196.48 18.6928 196 18.5282C195.469 18.3454 194.701 18.1305 193.723 17.8974C192.452 17.5911 191.405 17.2802 190.619 16.9694C189.778 16.6402 189.046 16.1237 188.448 15.4379C187.821 14.7202 187.506 13.7602 187.506 12.5762C187.506 11.5934 187.771 10.6928 188.288 9.89737C188.804 9.10651 189.595 8.47109 190.628 8.00023C191.643 7.54309 192.905 7.31451 194.381 7.31451C195.405 7.31451 196.425 7.44709 197.417 7.71223C198.422 7.98194 199.3 8.37509 200.027 8.88251L200.347 9.10651L199.186 11.9179L198.692 11.6025C198.034 11.1819 197.321 10.8619 196.576 10.6471C195.826 10.4322 195.085 10.3225 194.372 10.3225C193.133 10.3225 192.205 10.5419 191.62 10.9671C191.067 11.3694 190.806 11.8494 190.806 12.4802C190.806 12.9237 190.939 13.2528 191.222 13.5179C191.552 13.8288 191.972 14.0711 192.47 14.2494C193.014 14.4414 193.769 14.6471 194.72 14.8665C196 15.1728 197.042 15.4882 197.819 15.7945C198.651 16.1237 199.378 16.6357 199.972 17.3077C200.598 18.0162 200.918 18.9671 200.918 20.1374C200.918 21.1065 200.649 22.0025 200.123 22.8025C199.597 23.6025 198.793 24.2425 197.741 24.6997C196.713 25.1477 195.446 25.3717 193.97 25.3717" fill="#101010"/>
</svg>
