<svg width="1840" height="181" viewBox="0 0 1840 181" fill="none" xmlns="http://www.w3.org/2000/svg">
<path d="M74.2129 74.8623C84.8772 74.8623 93.094 72.9373 98.6009 69.1747C103.671 65.6747 106.031 60.8622 106.031 53.9933C106.031 47.1245 103.671 42.2682 98.6009 38.8119C93.094 35.0493 84.9209 33.1243 74.2129 33.1243H32.1677V74.8623H74.2129ZM79.8947 146.526C91.8265 146.526 100.786 144.644 106.512 140.882C111.756 137.469 114.204 132.351 114.204 124.738C114.204 115.288 110.664 102.731 79.8947 102.731H32.124V146.526H79.8947ZM0 174.395V5.25513H76.2671C95.4541 5.25513 110.62 9.23646 121.328 17.1116C132.517 25.2929 138.155 36.7993 138.155 51.237C138.155 60.4684 135.97 68.606 131.599 75.4311C129.064 79.4124 125.961 82.8687 122.377 85.7562C128.452 88.7313 133.566 92.8438 137.587 97.9626C143.531 105.531 146.59 115.157 146.59 126.532C146.59 141.932 140.69 153.963 129.02 162.276C117.832 170.282 101.617 174.351 80.8125 174.351H0V174.395ZM552.27 97.0001C565.557 97.0001 575.653 94.2001 582.34 88.6875C588.852 83.3499 592.043 75.7811 592.043 65.5872C592.043 55.3933 588.896 47.912 582.383 42.6182C575.653 37.1931 565.557 34.4368 552.27 34.4368H518.179V96.9564H552.27V97.0001ZM595.015 174.395L560.705 125.482C557.602 125.657 555.023 125.788 553.013 125.788H518.267V174.395H486.099V5.25513H553.013C574.735 5.25513 592.13 10.5928 604.805 21.1804C617.742 31.943 624.254 46.9057 624.254 65.6309C624.254 78.8874 620.889 90.3938 614.289 99.8001C608.738 107.719 601.133 113.888 591.693 118.175L631.334 174.351H595.015V174.395ZM770.407 174.395L681.553 63.8372V174.395H649.385V5.25513H674.997L763.851 115.769V5.25513H796.019V174.395H770.407ZM207.211 176.189C196.94 176.189 187.281 174.001 178.496 169.67C169.58 165.295 162.324 159.082 156.861 151.12L154.851 148.145L174.344 125.263L177.796 130.251C185.751 141.669 195.41 147.182 207.254 147.182C214.859 147.182 220.366 145.038 224.081 140.619C227.971 136.026 229.938 128.894 229.938 119.444V34.4368H172.246V5.2114H261.887V118.307C261.887 137.119 257.21 151.601 247.945 161.357C238.635 171.201 224.955 176.189 207.254 176.189M376.44 33.0805C365.601 33.0805 355.68 35.5743 346.895 40.4744C338.198 45.3744 331.248 52.1995 326.31 60.7746C321.371 69.3497 318.836 79.1499 318.836 89.825C318.836 100.5 321.371 110.3 326.31 118.875C328.408 122.507 330.855 125.788 333.827 128.851L399.255 37.4556C392.218 34.568 384.57 33.1243 376.44 33.1243M353.582 142.194C360.663 145.038 368.355 146.526 376.44 146.526C387.28 146.526 397.113 144.032 405.68 139.176C414.246 134.276 421.108 127.451 426.047 118.875C430.986 110.3 433.521 100.5 433.521 89.825C433.521 79.1499 431.029 69.3935 426.047 60.7746C423.993 57.2308 421.633 54.0371 418.835 51.0183L353.538 142.194H353.582ZM297.813 179.164L315.514 154.401C308.696 148.495 302.927 141.626 298.381 133.969C290.602 120.8 286.668 105.969 286.668 89.825C286.668 73.681 290.602 58.8059 298.381 45.6807C306.161 32.5118 317 22.0554 330.593 14.6178C344.142 7.18021 359.57 3.41761 376.397 3.41761C391.126 3.41761 404.893 6.39267 417.262 12.2552L425.697 0.486328H454.98L437.192 25.2929C443.879 31.1117 449.517 37.9368 454.019 45.5494C461.711 58.6309 465.601 73.506 465.601 89.825C465.601 106.144 461.711 121.019 454.019 134.101C446.326 147.182 435.531 157.595 421.895 165.032C408.346 172.47 393.005 176.232 376.309 176.232C361.493 176.232 347.726 173.301 335.357 167.482L326.965 179.207H297.638L297.813 179.164Z" fill="#334A55"/>
<path d="M915.836 179.125V9.98524H948.004V149.9H1034.41V179.125H915.836ZM1163.69 111.53L1136.42 49.5357L1109.15 111.53H1163.65H1163.69ZM1193.37 179.125L1175.8 139.181H1097.09L1079.52 179.125H1045.73L1122.26 9.98524H1150.84L1227.59 179.125H1193.33H1193.37ZM1305.17 101.73C1318.46 101.73 1328.55 98.9302 1335.28 93.4176C1341.8 88.08 1344.99 80.5112 1344.99 70.3173C1344.99 60.1234 1341.84 52.642 1335.33 47.3482C1328.6 41.9231 1318.46 39.1231 1305.21 39.1231H1271.12V101.643H1305.21L1305.17 101.73ZM1347.91 179.125L1313.6 130.212C1310.5 130.387 1307.92 130.518 1305.91 130.518H1271.12V179.125H1238.95V9.98524H1305.87C1327.59 9.98524 1344.99 15.3666 1357.66 25.9104C1370.6 36.6731 1377.15 51.6358 1377.15 70.3611C1377.15 83.6175 1373.79 95.1239 1367.19 104.53C1361.64 112.449 1354.03 118.618 1344.59 122.949L1384.23 179.125H1347.91ZM1543.37 179.125V9.98524H1665.35V39.2106H1575.49V78.9361H1655.52V107.724H1575.49V149.943H1668.54V179.169H1543.37V179.125ZM1814.39 179.125L1725.53 68.611V179.125H1693.37V9.98524H1718.98L1807.83 120.499V9.98524H1840V179.125H1814.39ZM1458.84 180.919C1446.38 180.919 1434.19 178.95 1422.61 175.1C1410.85 171.162 1401.41 165.956 1394.59 159.612L1392.06 157.293L1404.64 130.693L1409.32 134.893C1414.92 139.924 1422.26 144.124 1431.13 147.318C1440.05 150.556 1449.4 152.175 1458.84 152.175C1471.03 152.175 1480.13 150.162 1485.85 146.268C1491.14 142.637 1493.63 138.174 1493.63 132.224C1493.63 127.981 1492.36 124.831 1489.7 122.249C1486.64 119.318 1482.75 116.999 1478.16 115.424C1473.09 113.674 1465.75 111.618 1456.39 109.387C1444.24 106.455 1434.23 103.48 1426.72 100.505C1418.67 97.3552 1411.68 92.4113 1405.96 85.8487C1399.97 78.9799 1396.95 69.7923 1396.95 58.4609C1396.95 49.0545 1399.49 40.4357 1404.43 32.8231C1409.36 25.2542 1416.93 19.1728 1426.8 14.6665C1436.51 10.2915 1448.57 8.10393 1462.69 8.10393C1472.48 8.10393 1482.22 9.37274 1491.71 11.9103C1501.32 14.4916 1509.71 18.2541 1516.66 23.1104L1519.72 25.2542L1508.62 52.1608L1503.9 49.142C1497.61 45.117 1490.79 42.0544 1483.67 39.9981C1476.5 37.9419 1469.42 36.8918 1462.6 36.8918C1450.75 36.8918 1441.88 38.9919 1436.29 43.0607C1431 46.9107 1428.51 51.5045 1428.51 57.5421C1428.51 61.7859 1429.78 64.936 1432.49 67.4735C1435.63 70.4486 1439.65 72.7673 1444.42 74.4736C1449.62 76.3111 1456.83 78.2799 1465.92 80.3799C1478.16 83.3112 1488.12 86.33 1495.55 89.2613C1503.51 92.4113 1510.46 97.3114 1516.14 103.743C1522.13 110.524 1525.19 119.624 1525.19 130.824C1525.19 140.099 1522.61 148.675 1517.58 156.331C1512.55 163.987 1504.86 170.112 1494.81 174.487C1484.98 178.775 1472.87 180.919 1458.75 180.919" fill="#334A55"/>
</svg>
