<svg width="720" height="71" viewBox="0 0 720 71" fill="none" xmlns="http://www.w3.org/2000/svg">
<path d="M674.652 67.863H664.266V2.38135H675.579L713.23 57.5142H709.613V2.38135H719.999V67.863H708.686L670.943 12.7302H674.652V67.863Z" fill="#334A55"/>
<path d="M653.11 67.863H607.484V2.38135H653.11V11.3565H618.149V58.8879H653.11V67.863ZM651.348 39.106H617.222V30.1309H651.348V39.106Z" fill="#334A55"/>
<path d="M539.289 57.1476L546.708 50.0041C548.377 52.08 550.355 53.8811 552.643 55.4075C554.992 56.9339 557.496 58.094 560.154 58.8877C562.875 59.6814 565.719 60.0782 568.686 60.0782C571.901 60.0782 574.683 59.6509 577.032 58.7961C579.443 57.9413 581.329 56.7202 582.689 55.1328C584.049 53.5453 584.729 51.7137 584.729 49.6378C584.729 46.8293 583.431 44.6008 580.834 42.9523C578.3 41.3038 573.817 39.9911 567.388 39.0142C561.391 38.1594 556.538 36.9383 552.828 35.3509C549.119 33.7635 546.399 31.7486 544.668 29.3064C542.998 26.8642 542.164 23.9946 542.164 20.6976C542.164 16.7901 543.246 13.371 545.41 10.4404C547.635 7.44867 550.665 5.12857 554.498 3.48009C558.392 1.77054 562.844 0.915771 567.851 0.915771C573.663 0.915771 578.794 2.01476 583.245 4.21275C587.759 6.41073 591.623 9.34138 594.837 13.0047L587.604 20.1482C585.193 17.0343 582.349 14.5921 579.072 12.8215C575.858 10.9899 572.148 10.074 567.944 10.074C563.555 10.074 559.969 10.9899 557.187 12.8215C554.405 14.6532 553.014 17.0954 553.014 20.1482C553.014 21.7966 553.539 23.2009 554.59 24.361C555.641 25.46 557.372 26.4063 559.784 27.2C562.256 27.9937 565.533 28.6959 569.613 29.3064C575.734 30.2223 580.68 31.5349 584.451 33.2445C588.284 34.954 591.097 37.1215 592.89 39.7469C594.683 42.3722 595.579 45.5166 595.579 49.1799C595.579 53.2095 594.436 56.7507 592.148 59.8035C589.861 62.7952 586.677 65.1458 582.596 66.8554C578.516 68.5039 573.817 69.3281 568.501 69.3281C562.256 69.3281 556.692 68.2291 551.808 66.0311C546.924 63.8331 542.751 60.872 539.289 57.1476Z" fill="#334A55"/>
<path d="M490.368 67.863H479.703V2.38135H506.225C510.8 2.38135 514.819 3.20559 518.281 4.85408C521.743 6.44152 524.432 8.70056 526.349 11.6312C528.327 14.5008 529.316 17.8894 529.316 21.7969C529.316 25.6434 528.327 29.0319 526.349 31.9626C524.432 34.8932 521.743 37.1828 518.281 38.8313C514.819 40.4187 510.8 41.2124 506.225 41.2124H489.44V32.2373H506.225C509.997 32.2373 512.964 31.3215 515.128 29.4898C517.354 27.5971 518.466 25.0328 518.466 21.7969C518.466 18.561 517.354 16.0272 515.128 14.1955C512.964 12.3028 509.997 11.3565 506.225 11.3565H490.368V67.863ZM535.993 67.863H522.732L498.621 37.366H510.862L535.993 67.863Z" fill="#334A55"/>
<path d="M456.536 52.1103H418.329V43.1352H456.536V52.1103ZM469.704 67.8625H458.39L435.67 9.52432H439.194L416.474 67.8625H405.531L431.775 2.38086H443.46L469.704 67.8625Z" fill="#334A55"/>
<path d="M399.387 67.8625H356.543V2.38086H367.208V58.7043H399.387V67.8625Z" fill="#334A55"/>
<path d="M279.078 67.8625H268.691V2.38086H280.005L317.656 57.5137H314.039V2.38086H324.425V67.8625H313.112L275.368 12.7297H279.078V67.8625Z" fill="#334A55"/>
<path d="M214.422 67.863H203.758V2.38135H230.28C234.855 2.38135 238.873 3.20559 242.336 4.85408C245.798 6.44152 248.487 8.70056 250.404 11.6312C252.382 14.5008 253.371 17.8894 253.371 21.7969C253.371 25.6434 252.382 29.0319 250.404 31.9626C248.487 34.8932 245.798 37.1828 242.336 38.8313C238.873 40.4187 234.855 41.2124 230.28 41.2124H213.495V32.2373H230.28C234.051 32.2373 237.019 31.3215 239.183 29.4898C241.408 27.5971 242.521 25.0328 242.521 21.7969C242.521 18.561 241.408 16.0272 239.183 14.1955C237.019 12.3028 234.051 11.3565 230.28 11.3565H214.422V67.863ZM260.048 67.863H246.787L222.676 37.366H234.917L260.048 67.863Z" fill="#334A55"/>
<path d="M156.805 69.3282C151.736 69.3282 147.068 68.4734 142.802 66.7638C138.537 65.0543 134.827 62.6731 131.674 59.6204C128.521 56.5066 126.079 52.8738 124.348 48.722C122.617 44.5092 121.752 39.9606 121.752 35.0762C121.752 30.1918 122.617 25.6737 124.348 21.522C126.079 17.3702 128.521 13.7679 131.674 10.7152C134.827 7.60137 138.537 5.18969 142.802 3.48015C147.068 1.7706 151.736 0.915833 156.805 0.915833C161.875 0.915833 166.543 1.7706 170.808 3.48015C175.074 5.18969 178.784 7.60137 181.937 10.7152C185.09 13.7679 187.532 17.3702 189.263 21.522C190.994 25.6737 191.859 30.1918 191.859 35.0762C191.859 39.9606 190.994 44.5092 189.263 48.722C187.532 52.8738 185.09 56.5066 181.937 59.6204C178.784 62.6731 175.074 65.0543 170.808 66.7638C166.543 68.4734 161.875 69.3282 156.805 69.3282ZM156.805 59.9867C161.504 59.9867 165.646 58.9183 169.232 56.7813C172.818 54.6444 175.631 51.7137 177.671 47.9894C179.711 44.204 180.731 39.8996 180.731 35.0762C180.731 30.2528 179.711 25.979 177.671 22.2546C175.631 18.5303 172.818 15.5996 169.232 13.4627C165.646 11.3257 161.504 10.2573 156.805 10.2573C152.169 10.2573 148.027 11.3257 144.379 13.4627C140.793 15.5996 137.98 18.5303 135.94 22.2546C133.9 25.979 132.88 30.2528 132.88 35.0762C132.88 39.8996 133.9 44.204 135.94 47.9894C137.98 51.7137 140.793 54.6444 144.379 56.7813C148.027 58.9183 152.169 59.9867 156.805 59.9867ZM127.037 70.244L120.824 64.0164L186.481 0L192.787 6.22763L127.037 70.244Z" fill="#334A55"/>
<path d="M110.619 2.38135V42.5862C110.619 51.1339 108.363 57.7279 103.849 62.3681C99.3364 67.0083 92.9067 69.3284 84.5606 69.3284C79.5529 69.3284 75.1943 68.4125 71.4849 66.5809C67.7755 64.7492 64.808 62.1239 62.5824 58.7048C60.4186 55.2246 59.1203 51.0729 58.6875 46.2495L69.352 44.9673C69.8466 49.8518 71.3922 53.5761 73.9888 56.1404C76.5854 58.7048 80.1093 59.9869 84.5606 59.9869C89.5683 59.9869 93.3704 58.4911 95.967 55.4994C98.6254 52.5077 99.9546 48.2033 99.9546 42.5862V2.38135H110.619Z" fill="#334A55"/>
<path d="M0 67.8629V2.38123H26.615C30.9426 2.38123 34.7138 3.11389 37.9286 4.57921C41.2053 5.98348 43.7091 7.96777 45.4402 10.5321C47.2331 13.0964 48.1295 16.0881 48.1295 19.5072C48.1295 22.7431 47.2331 25.6127 45.4402 28.116C43.7091 30.5582 41.2053 32.4814 37.9286 33.8857C34.7138 35.2289 30.9426 35.9005 26.615 35.9005H11.5919V31.3214H27.9132C32.55 31.3214 36.5994 32.054 40.0615 33.5194C43.5237 34.9847 46.213 37.0606 48.1295 39.747C50.046 42.3724 51.0043 45.4862 51.0043 49.0884C51.0043 52.8128 50.046 56.1098 48.1295 58.9794C46.213 61.7879 43.5237 63.9859 40.0615 65.5733C36.5994 67.0997 32.55 67.8629 27.9132 67.8629H0ZM10.6645 58.9794H27.9132C31.7463 58.9794 34.7447 58.0941 36.9086 56.3235C39.0724 54.4918 40.1543 51.958 40.1543 48.7221C40.1543 45.5472 39.0724 43.0745 36.9086 41.3039C34.7447 39.5333 31.7463 38.648 27.9132 38.648H9.73718V29.8561H26.1513C29.6134 29.8561 32.3336 29.0318 34.312 27.3833C36.3521 25.6738 37.3722 23.3537 37.3722 20.423C37.3722 17.5534 36.3521 15.3249 34.312 13.7375C32.3336 12.089 29.6134 11.2648 26.1513 11.2648H10.6645V58.9794Z" fill="#334A55"/>
</svg>
