<svg width="118" height="40" viewBox="0 0 118 40" xmlns="http://www.w3.org/2000/svg"><g><path d="M56.4489 5.79567L58.9981 8.34507L61.5473 5.79567L58.9981 3.24627L56.4489 5.79567ZM54.8265 7.41813L50.6549 11.59L49.0312 9.96753L58.9981 0L68.965 9.96753L67.3426 11.59L63.171 7.41813L58.9994 11.59L54.8279 7.41813H54.8265ZM53.4396 14.3761L55.0619 12.7537L58.9968 16.6888L62.9316 12.7537L64.554 14.3761L58.9968 19.9337L53.4396 14.3761Z" fill="white"/>
<path d="M5.46426 33.2083C6.15909 33.2083 6.69446 33.083 7.05326 32.8381C7.38359 32.6103 7.53737 32.297 7.53737 31.85C7.53737 31.4029 7.38359 31.0868 7.05326 30.8618C6.69446 30.6169 6.16194 30.4916 5.46426 30.4916H2.7248V33.2083H5.46426ZM5.83446 37.8728C6.61187 37.8728 7.19565 37.7503 7.56869 37.5054C7.91041 37.2833 8.06988 36.9501 8.06988 36.4546C8.06988 35.8395 7.83922 35.0223 5.83446 35.0223H2.72195V37.8728H5.83446ZM0.628906 39.6839V28.6748H5.5981C6.84823 28.6748 7.83637 28.9339 8.53405 29.4465C9.26306 29.979 9.63041 30.728 9.63041 31.6677C9.63041 32.2686 9.48802 32.7982 9.20326 33.2425C9.03809 33.5016 8.83591 33.7266 8.6024 33.9145C8.99822 34.1082 9.3314 34.3758 9.59339 34.709C9.98067 35.2017 10.18 35.8282 10.18 36.5686C10.18 37.5709 9.79557 38.354 9.03524 38.8951C8.30624 39.4162 7.24975 39.6811 5.89426 39.6811H0.628906V39.6839ZM36.6121 34.6492C37.4778 34.6492 38.1356 34.467 38.5713 34.1082C38.9956 33.7607 39.2035 33.2681 39.2035 32.6046C39.2035 31.9411 38.9985 31.4541 38.5742 31.1096C38.1356 30.7564 37.4778 30.577 36.6121 30.577H34.3909V34.6464H36.6121V34.6492ZM39.3972 39.6839L37.1617 36.5002C36.9595 36.5116 36.7915 36.5201 36.6605 36.5201H34.3966V39.6839H32.3008V28.6748H36.6605C38.0758 28.6748 39.2092 29.0222 40.035 29.7114C40.878 30.4119 41.3023 31.3858 41.3023 32.6046C41.3023 33.4674 41.083 34.2164 40.653 34.8286C40.2913 35.3441 39.7958 35.7456 39.1807 36.0246L41.7636 39.6811H39.3972V39.6839ZM50.8249 39.6839L45.0356 32.4878V39.6839H42.9397V28.6748H44.6084L50.3977 35.868V28.6748H52.4936V39.6839H50.8249ZM14.1297 39.8035C13.4605 39.8035 12.8312 39.6611 12.2588 39.3792C11.6779 39.0944 11.2052 38.6901 10.8492 38.1718L10.7182 37.9782L11.9883 36.4888L12.2133 36.8135C12.7315 37.5567 13.3609 37.9155 14.1326 37.9155C14.6281 37.9155 14.9869 37.776 15.2289 37.4884C15.4824 37.1893 15.6105 36.7252 15.6105 36.1101V30.577H11.8516V28.6748H17.6922V36.036C17.6922 37.2605 17.3875 38.2031 16.7838 38.8382C16.1772 39.4789 15.2859 39.8035 14.1326 39.8035M25.1559 30.4888C24.4497 30.4888 23.8033 30.6511 23.2309 30.97C22.6642 31.289 22.2114 31.7332 21.8897 32.2913C21.5679 32.8495 21.4027 33.4874 21.4027 34.1822C21.4027 34.877 21.5679 35.5149 21.8897 36.0731C22.0263 36.3094 22.1858 36.523 22.3794 36.7223L26.6424 30.7735C26.1839 30.5856 25.6856 30.4916 25.1559 30.4916M23.6666 37.5909C24.1279 37.776 24.6291 37.8728 25.1559 37.8728C25.8622 37.8728 26.5029 37.7105 27.061 37.3944C27.6192 37.0754 28.0663 36.6312 28.388 36.0731C28.7098 35.5149 28.875 34.877 28.875 34.1822C28.875 33.4874 28.7127 32.8523 28.388 32.2913C28.2542 32.0607 28.1004 31.8528 27.9182 31.6563L23.6638 37.5909H23.6666ZM20.033 39.9972L21.1863 38.3854C20.742 38.0009 20.3661 37.5538 20.07 37.0555C19.5631 36.1984 19.3068 35.233 19.3068 34.1822C19.3068 33.1314 19.5631 32.1632 20.07 31.3089C20.5769 30.4517 21.2831 29.7712 22.1687 29.287C23.0515 28.8029 24.0567 28.558 25.1531 28.558C26.1128 28.558 27.0098 28.7517 27.8157 29.1333L28.3653 28.3672H30.2732L29.1142 29.9819C29.5499 30.3606 29.9172 30.8049 30.2106 31.3004C30.7117 32.1518 30.9652 33.12 30.9652 34.1822C30.9652 35.2444 30.7117 36.2126 30.2106 37.064C29.7094 37.9155 29.006 38.5933 28.1175 39.0774C27.2347 39.5615 26.2352 39.8064 25.1474 39.8064C24.182 39.8064 23.285 39.6156 22.4791 39.2368L21.9324 40H20.0216L20.033 39.9972Z" fill="white"/>
<path d="M57.1562 39.7836V28.7744H59.2521V37.8813H64.882V39.7836H57.1562ZM73.3054 35.3839L71.5285 31.3487L69.7515 35.3839H73.3026H73.3054ZM75.239 39.7836L74.0942 37.1836H68.9656L67.8208 39.7836H65.6195L70.6058 28.7744H72.4682L77.4687 39.7836H75.2361H75.239ZM82.5233 34.746C83.389 34.746 84.0468 34.5638 84.4854 34.205C84.9097 33.8575 85.1176 33.3649 85.1176 32.7014C85.1176 32.0379 84.9125 31.5509 84.4882 31.2064C84.0497 30.8532 83.389 30.671 82.5262 30.671H80.305V34.7403H82.5262L82.5233 34.746ZM85.3084 39.7836L83.0729 36.5999C82.8708 36.6112 82.7027 36.6198 82.5718 36.6198H80.305V39.7836H78.2091V28.7744H82.5689C83.9842 28.7744 85.1176 29.1247 85.9434 29.811C86.7863 30.5115 87.2135 31.4854 87.2135 32.7042C87.2135 33.5671 86.9942 34.316 86.5642 34.9283C86.2025 35.4437 85.707 35.8452 85.0919 36.1271L87.6748 39.7836H85.3084ZM98.0432 39.7836V28.7744H105.991V30.6767H100.136V33.2624H105.35V35.1361H100.136V37.8842H106.199V39.7864H98.0432V39.7836ZM115.702 39.7836L109.912 32.5903V39.7836H107.816V28.7744H109.485L115.274 35.9677V28.7744H117.37V39.7836H115.702ZM92.5358 39.9003C91.7242 39.9003 90.9297 39.7722 90.175 39.5216C89.409 39.2653 88.7939 38.9264 88.3497 38.5135L88.1845 38.3626L89.0046 36.6312L89.3093 36.9046C89.6739 37.232 90.1523 37.5054 90.7303 37.7133C91.3113 37.924 91.9207 38.0294 92.5358 38.0294C93.3303 38.0294 93.9226 37.8984 94.2956 37.645C94.6402 37.4086 94.8025 37.1181 94.8025 36.7308C94.8025 36.4546 94.7199 36.2496 94.5462 36.0816C94.3469 35.8908 94.0934 35.7399 93.7944 35.6373C93.4641 35.5234 92.9857 35.3896 92.3763 35.2444C91.5846 35.0536 90.9325 34.8599 90.4427 34.6663C89.9188 34.4613 89.4631 34.1395 89.0901 33.7123C88.6999 33.2652 88.5035 32.6672 88.5035 31.9297C88.5035 31.3174 88.6686 30.7564 88.9904 30.2609C89.3122 29.7683 89.8048 29.3725 90.4484 29.0791C91.0806 28.7944 91.8666 28.652 92.7864 28.652C93.4242 28.652 94.0593 28.7346 94.6772 28.8997C95.3037 29.0678 95.8505 29.3127 96.3032 29.6287L96.5026 29.7683L95.7793 31.5196L95.4717 31.3231C95.0617 31.0611 94.6174 30.8618 94.1532 30.7279C93.6862 30.5941 93.2249 30.5258 92.7807 30.5258C92.0089 30.5258 91.4309 30.6625 91.0664 30.9273C90.7218 31.1779 90.5595 31.4769 90.5595 31.8699C90.5595 32.1461 90.6421 32.3511 90.8186 32.5163C91.0237 32.7099 91.2856 32.8609 91.596 32.9719C91.9349 33.0915 92.4048 33.2197 92.9971 33.3564C93.7944 33.5471 94.4437 33.7436 94.9278 33.9344C95.4461 34.1395 95.8989 34.4584 96.2691 34.877C96.6592 35.3184 96.8585 35.9107 96.8585 36.6397C96.8585 37.2434 96.6905 37.8016 96.363 38.2999C96.0356 38.7983 95.5344 39.1969 94.8794 39.4817C94.2387 39.7608 93.4499 39.9003 92.5301 39.9003" fill="white"/>
</g></svg>
